<mxfile host="app.diagrams.net" modified="2022-01-10T13:21:28.379Z" agent="5.0 (Macintosh; Intel Mac OS X 10_15_7) AppleWebKit/537.36 (KHTML, like Gecko) Chrome/96.0.4664.110 Safari/537.36" etag="qCBT0C62eXZHJtoDLAuu" version="15.9.6" type="github" pages="10">
  <diagram id="BfC0ObjsqAuIw0lAZM3u" name="Page-1">
    <mxGraphModel dx="1854" dy="1191" grid="0" gridSize="10" guides="1" tooltips="1" connect="1" arrows="1" fold="1" page="1" pageScale="1" pageWidth="827" pageHeight="1169" math="0" shadow="0">
      <root>
        <mxCell id="0" />
        <mxCell id="1" parent="0" />
        <mxCell id="7EZHa_ohF1KCSaO4qlz6-36" value="" style="rounded=0;whiteSpace=wrap;html=1;fillColor=none;opacity=40;" parent="1" vertex="1">
          <mxGeometry x="5" y="429" width="378" height="381" as="geometry" />
        </mxCell>
        <mxCell id="7EZHa_ohF1KCSaO4qlz6-34" value="" style="rounded=0;whiteSpace=wrap;html=1;fillColor=none;opacity=40;" parent="1" vertex="1">
          <mxGeometry x="521" y="336.75" width="210" height="477.25" as="geometry" />
        </mxCell>
        <mxCell id="7EZHa_ohF1KCSaO4qlz6-2" value="&lt;font face=&quot;Times New Roman&quot; style=&quot;font-size: 24px&quot;&gt;kquic&lt;/font&gt;" style="rounded=0;whiteSpace=wrap;html=1;" parent="1" vertex="1">
          <mxGeometry x="240" y="460" width="120" height="60" as="geometry" />
        </mxCell>
        <mxCell id="7EZHa_ohF1KCSaO4qlz6-3" value="&lt;font style=&quot;font-size: 18px&quot;&gt;接入网关&lt;/font&gt;" style="text;html=1;strokeColor=none;fillColor=none;align=center;verticalAlign=middle;whiteSpace=wrap;rounded=0;" parent="1" vertex="1">
          <mxGeometry x="130" y="470" width="90" height="40" as="geometry" />
        </mxCell>
        <mxCell id="7EZHa_ohF1KCSaO4qlz6-4" value="&lt;font style=&quot;font-size: 18px&quot;&gt;用户&lt;/font&gt;" style="shape=umlActor;verticalLabelPosition=bottom;verticalAlign=top;html=1;outlineConnect=0;" parent="1" vertex="1">
          <mxGeometry x="270" y="240" width="30" height="60" as="geometry" />
        </mxCell>
        <mxCell id="7EZHa_ohF1KCSaO4qlz6-7" value="" style="endArrow=classic;html=1;" parent="1" edge="1">
          <mxGeometry width="50" height="50" relative="1" as="geometry">
            <mxPoint x="260" y="330" as="sourcePoint" />
            <mxPoint x="260" y="450" as="targetPoint" />
          </mxGeometry>
        </mxCell>
        <mxCell id="7EZHa_ohF1KCSaO4qlz6-8" value="&lt;font style=&quot;font-size: 18px&quot;&gt;上传&lt;/font&gt;" style="edgeLabel;html=1;align=center;verticalAlign=middle;resizable=0;points=[];" parent="7EZHa_ohF1KCSaO4qlz6-7" vertex="1" connectable="0">
          <mxGeometry x="-0.2" relative="1" as="geometry">
            <mxPoint as="offset" />
          </mxGeometry>
        </mxCell>
        <mxCell id="7EZHa_ohF1KCSaO4qlz6-10" value="" style="endArrow=classic;html=1;" parent="1" edge="1">
          <mxGeometry width="50" height="50" relative="1" as="geometry">
            <mxPoint x="320" y="450" as="sourcePoint" />
            <mxPoint x="320" y="330" as="targetPoint" />
          </mxGeometry>
        </mxCell>
        <mxCell id="7EZHa_ohF1KCSaO4qlz6-11" value="&lt;font style=&quot;font-size: 18px&quot;&gt;应答&lt;/font&gt;" style="edgeLabel;html=1;align=center;verticalAlign=middle;resizable=0;points=[];" parent="7EZHa_ohF1KCSaO4qlz6-10" vertex="1" connectable="0">
          <mxGeometry x="0.1" y="-1" relative="1" as="geometry">
            <mxPoint as="offset" />
          </mxGeometry>
        </mxCell>
        <mxCell id="7EZHa_ohF1KCSaO4qlz6-12" value="&lt;font face=&quot;Times New Roman&quot; style=&quot;font-size: 24px&quot;&gt;auth_server&lt;/font&gt;" style="rounded=0;whiteSpace=wrap;html=1;" parent="1" vertex="1">
          <mxGeometry x="570" y="460" width="120" height="60" as="geometry" />
        </mxCell>
        <mxCell id="7EZHa_ohF1KCSaO4qlz6-13" value="&lt;span style=&quot;font-size: 18px&quot;&gt;鉴权服务器&lt;/span&gt;" style="text;html=1;strokeColor=none;fillColor=none;align=center;verticalAlign=middle;whiteSpace=wrap;rounded=0;" parent="1" vertex="1">
          <mxGeometry x="562.5" y="410" width="135" height="40" as="geometry" />
        </mxCell>
        <mxCell id="7EZHa_ohF1KCSaO4qlz6-14" value="" style="endArrow=classic;html=1;exitX=1;exitY=0.5;exitDx=0;exitDy=0;entryX=0;entryY=0.5;entryDx=0;entryDy=0;" parent="1" edge="1">
          <mxGeometry width="50" height="50" relative="1" as="geometry">
            <mxPoint x="360" y="478" as="sourcePoint" />
            <mxPoint x="570" y="478" as="targetPoint" />
          </mxGeometry>
        </mxCell>
        <mxCell id="7EZHa_ohF1KCSaO4qlz6-15" value="&lt;span style=&quot;font-size: 18px&quot;&gt;鉴权请求&lt;/span&gt;" style="edgeLabel;html=1;align=center;verticalAlign=middle;resizable=0;points=[];" parent="7EZHa_ohF1KCSaO4qlz6-14" vertex="1" connectable="0">
          <mxGeometry x="0.1" y="-1" relative="1" as="geometry">
            <mxPoint y="-1" as="offset" />
          </mxGeometry>
        </mxCell>
        <mxCell id="7EZHa_ohF1KCSaO4qlz6-17" value="&lt;font face=&quot;Times New Roman&quot; style=&quot;font-size: 24px&quot;&gt;file_server&lt;/font&gt;" style="rounded=0;whiteSpace=wrap;html=1;" parent="1" vertex="1">
          <mxGeometry x="240" y="590" width="120" height="60" as="geometry" />
        </mxCell>
        <mxCell id="7EZHa_ohF1KCSaO4qlz6-18" value="" style="endArrow=classic;html=1;" parent="1" edge="1">
          <mxGeometry width="50" height="50" relative="1" as="geometry">
            <mxPoint x="285" y="520" as="sourcePoint" />
            <mxPoint x="285" y="590" as="targetPoint" />
          </mxGeometry>
        </mxCell>
        <mxCell id="7EZHa_ohF1KCSaO4qlz6-19" value="&lt;font style=&quot;font-size: 18px&quot;&gt;上传&lt;/font&gt;" style="edgeLabel;html=1;align=center;verticalAlign=middle;resizable=0;points=[];" parent="7EZHa_ohF1KCSaO4qlz6-18" vertex="1" connectable="0">
          <mxGeometry x="-0.2" relative="1" as="geometry">
            <mxPoint as="offset" />
          </mxGeometry>
        </mxCell>
        <mxCell id="7EZHa_ohF1KCSaO4qlz6-20" value="&lt;font face=&quot;Times New Roman&quot; style=&quot;font-size: 24px&quot;&gt;da_proxy&lt;/font&gt;" style="rounded=0;whiteSpace=wrap;html=1;" parent="1" vertex="1">
          <mxGeometry x="240" y="740" width="120" height="60" as="geometry" />
        </mxCell>
        <mxCell id="7EZHa_ohF1KCSaO4qlz6-21" value="" style="endArrow=classic;html=1;exitX=0.348;exitY=1.032;exitDx=0;exitDy=0;exitPerimeter=0;entryX=0.344;entryY=0.008;entryDx=0;entryDy=0;entryPerimeter=0;" parent="1" source="7EZHa_ohF1KCSaO4qlz6-17" target="7EZHa_ohF1KCSaO4qlz6-20" edge="1">
          <mxGeometry width="50" height="50" relative="1" as="geometry">
            <mxPoint x="280" y="660" as="sourcePoint" />
            <mxPoint x="280" y="730" as="targetPoint" />
          </mxGeometry>
        </mxCell>
        <mxCell id="7EZHa_ohF1KCSaO4qlz6-22" value="&lt;font style=&quot;font-size: 18px&quot;&gt;上传&lt;/font&gt;" style="edgeLabel;html=1;align=center;verticalAlign=middle;resizable=0;points=[];" parent="7EZHa_ohF1KCSaO4qlz6-21" vertex="1" connectable="0">
          <mxGeometry x="-0.2" relative="1" as="geometry">
            <mxPoint as="offset" />
          </mxGeometry>
        </mxCell>
        <mxCell id="7EZHa_ohF1KCSaO4qlz6-23" value="&lt;font face=&quot;Times New Roman&quot;&gt;&lt;span style=&quot;font-size: 24px&quot;&gt;本地磁盘缓存&lt;/span&gt;&lt;/font&gt;" style="rounded=0;whiteSpace=wrap;html=1;" parent="1" vertex="1">
          <mxGeometry x="10" y="590" width="120" height="60" as="geometry" />
        </mxCell>
        <mxCell id="7EZHa_ohF1KCSaO4qlz6-24" value="" style="endArrow=classic;html=1;exitX=1;exitY=0.25;exitDx=0;exitDy=0;entryX=0;entryY=0.25;entryDx=0;entryDy=0;" parent="1" source="7EZHa_ohF1KCSaO4qlz6-23" target="7EZHa_ohF1KCSaO4qlz6-17" edge="1">
          <mxGeometry width="50" height="50" relative="1" as="geometry">
            <mxPoint x="10" y="560" as="sourcePoint" />
            <mxPoint x="220" y="560" as="targetPoint" />
            <Array as="points">
              <mxPoint x="190" y="605" />
            </Array>
          </mxGeometry>
        </mxCell>
        <mxCell id="7EZHa_ohF1KCSaO4qlz6-25" value="&lt;span style=&quot;font-size: 18px&quot;&gt;读&lt;/span&gt;" style="edgeLabel;html=1;align=center;verticalAlign=middle;resizable=0;points=[];" parent="7EZHa_ohF1KCSaO4qlz6-24" vertex="1" connectable="0">
          <mxGeometry x="0.1" y="-1" relative="1" as="geometry">
            <mxPoint y="-1" as="offset" />
          </mxGeometry>
        </mxCell>
        <mxCell id="7EZHa_ohF1KCSaO4qlz6-30" value="" style="endArrow=classic;html=1;exitX=-0.024;exitY=0.636;exitDx=0;exitDy=0;entryX=1.007;entryY=0.659;entryDx=0;entryDy=0;exitPerimeter=0;entryPerimeter=0;" parent="1" source="7EZHa_ohF1KCSaO4qlz6-17" target="7EZHa_ohF1KCSaO4qlz6-23" edge="1">
          <mxGeometry width="50" height="50" relative="1" as="geometry">
            <mxPoint x="380" y="660" as="sourcePoint" />
            <mxPoint x="590" y="660" as="targetPoint" />
          </mxGeometry>
        </mxCell>
        <mxCell id="7EZHa_ohF1KCSaO4qlz6-31" value="&lt;span style=&quot;font-size: 18px&quot;&gt;写&lt;/span&gt;" style="edgeLabel;html=1;align=center;verticalAlign=middle;resizable=0;points=[];" parent="7EZHa_ohF1KCSaO4qlz6-30" vertex="1" connectable="0">
          <mxGeometry x="0.1" y="-1" relative="1" as="geometry">
            <mxPoint y="-1" as="offset" />
          </mxGeometry>
        </mxCell>
        <mxCell id="7EZHa_ohF1KCSaO4qlz6-32" value="&lt;font face=&quot;Times New Roman&quot; style=&quot;font-size: 24px&quot;&gt;blobstore&lt;/font&gt;" style="rounded=0;whiteSpace=wrap;html=1;" parent="1" vertex="1">
          <mxGeometry x="577.5" y="691" width="120" height="60" as="geometry" />
        </mxCell>
        <mxCell id="7EZHa_ohF1KCSaO4qlz6-33" value="&lt;font face=&quot;Times New Roman&quot; style=&quot;font-size: 24px&quot;&gt;索引表&lt;/font&gt;" style="rounded=0;whiteSpace=wrap;html=1;" parent="1" vertex="1">
          <mxGeometry x="573" y="576" width="120" height="60" as="geometry" />
        </mxCell>
        <mxCell id="7EZHa_ohF1KCSaO4qlz6-35" value="&lt;span style=&quot;font-size: 18px&quot;&gt;&lt;font color=&quot;#ff6666&quot;&gt;IDC&lt;/font&gt;&lt;/span&gt;" style="text;html=1;strokeColor=none;fillColor=none;align=center;verticalAlign=middle;whiteSpace=wrap;rounded=0;" parent="1" vertex="1">
          <mxGeometry x="562.5" y="354" width="135" height="40" as="geometry" />
        </mxCell>
        <mxCell id="7EZHa_ohF1KCSaO4qlz6-37" value="&lt;span style=&quot;font-size: 18px&quot;&gt;&lt;font color=&quot;#ff6666&quot;&gt;CDN&lt;/font&gt;&lt;/span&gt;" style="text;html=1;strokeColor=none;fillColor=none;align=center;verticalAlign=middle;whiteSpace=wrap;rounded=0;" parent="1" vertex="1">
          <mxGeometry x="43" y="740" width="135" height="40" as="geometry" />
        </mxCell>
        <mxCell id="Scbk1sA1Ur1hFTP5WBdU-1" value="" style="endArrow=classic;html=1;exitX=1;exitY=0.5;exitDx=0;exitDy=0;" parent="1" target="7EZHa_ohF1KCSaO4qlz6-33" edge="1">
          <mxGeometry width="50" height="50" relative="1" as="geometry">
            <mxPoint x="360" y="622" as="sourcePoint" />
            <mxPoint x="570" y="622" as="targetPoint" />
          </mxGeometry>
        </mxCell>
        <mxCell id="Scbk1sA1Ur1hFTP5WBdU-2" value="&lt;span style=&quot;font-size: 18px&quot;&gt;缓存成功后，&lt;br&gt;保存信息&lt;br&gt;&lt;/span&gt;" style="edgeLabel;html=1;align=center;verticalAlign=middle;resizable=0;points=[];" parent="Scbk1sA1Ur1hFTP5WBdU-1" vertex="1" connectable="0">
          <mxGeometry x="0.1" y="-1" relative="1" as="geometry">
            <mxPoint x="-21" y="-13" as="offset" />
          </mxGeometry>
        </mxCell>
        <mxCell id="Scbk1sA1Ur1hFTP5WBdU-3" value="" style="endArrow=classic;html=1;exitX=1;exitY=0.5;exitDx=0;exitDy=0;entryX=0;entryY=0.25;entryDx=0;entryDy=0;" parent="1" target="7EZHa_ohF1KCSaO4qlz6-32" edge="1">
          <mxGeometry width="50" height="50" relative="1" as="geometry">
            <mxPoint x="360" y="748.48" as="sourcePoint" />
            <mxPoint x="573" y="735.9964835164835" as="targetPoint" />
          </mxGeometry>
        </mxCell>
        <mxCell id="Scbk1sA1Ur1hFTP5WBdU-4" value="&lt;span style=&quot;font-size: 18px&quot;&gt;上传&lt;br&gt;&lt;/span&gt;" style="edgeLabel;html=1;align=center;verticalAlign=middle;resizable=0;points=[];" parent="Scbk1sA1Ur1hFTP5WBdU-3" vertex="1" connectable="0">
          <mxGeometry x="0.1" y="-1" relative="1" as="geometry">
            <mxPoint x="-18" y="-1" as="offset" />
          </mxGeometry>
        </mxCell>
        <mxCell id="Scbk1sA1Ur1hFTP5WBdU-5" value="" style="endArrow=classic;html=1;exitX=0;exitY=0.75;exitDx=0;exitDy=0;entryX=1;entryY=0.75;entryDx=0;entryDy=0;" parent="1" source="7EZHa_ohF1KCSaO4qlz6-32" target="7EZHa_ohF1KCSaO4qlz6-20" edge="1">
          <mxGeometry width="50" height="50" relative="1" as="geometry">
            <mxPoint x="391" y="964.48" as="sourcePoint" />
            <mxPoint x="608.5" y="922" as="targetPoint" />
          </mxGeometry>
        </mxCell>
        <mxCell id="Scbk1sA1Ur1hFTP5WBdU-6" value="&lt;span style=&quot;font-size: 18px&quot;&gt;下载&lt;br&gt;&lt;/span&gt;" style="edgeLabel;html=1;align=center;verticalAlign=middle;resizable=0;points=[];" parent="Scbk1sA1Ur1hFTP5WBdU-5" vertex="1" connectable="0">
          <mxGeometry x="0.1" y="-1" relative="1" as="geometry">
            <mxPoint x="-18" y="-1" as="offset" />
          </mxGeometry>
        </mxCell>
      </root>
    </mxGraphModel>
  </diagram>
  <diagram id="zci9yfvtBs46tkPGxSLb" name="第 2 页">
    <mxGraphModel dx="2066" dy="1154" grid="0" gridSize="10" guides="1" tooltips="1" connect="1" arrows="1" fold="1" page="1" pageScale="1" pageWidth="827" pageHeight="1169" math="0" shadow="0">
      <root>
        <mxCell id="GXCIaeB6LlrhN9iPG05d-0" />
        <mxCell id="GXCIaeB6LlrhN9iPG05d-1" parent="GXCIaeB6LlrhN9iPG05d-0" />
        <mxCell id="GXCIaeB6LlrhN9iPG05d-3" value="&lt;font style=&quot;font-size: 24px&quot;&gt;内存&lt;/font&gt;" style="rounded=0;whiteSpace=wrap;html=1;" parent="GXCIaeB6LlrhN9iPG05d-1" vertex="1">
          <mxGeometry x="178" y="484" width="552" height="52" as="geometry" />
        </mxCell>
        <mxCell id="GXCIaeB6LlrhN9iPG05d-22" value="" style="group" parent="GXCIaeB6LlrhN9iPG05d-1" vertex="1" connectable="0">
          <mxGeometry x="178" y="553" width="273" height="378" as="geometry" />
        </mxCell>
        <mxCell id="GXCIaeB6LlrhN9iPG05d-4" value="" style="rounded=0;whiteSpace=wrap;html=1;" parent="GXCIaeB6LlrhN9iPG05d-22" vertex="1">
          <mxGeometry width="273" height="378" as="geometry" />
        </mxCell>
        <mxCell id="GXCIaeB6LlrhN9iPG05d-5" value="&lt;font style=&quot;font-size: 24px&quot;&gt;CPU&lt;/font&gt;" style="text;html=1;strokeColor=none;fillColor=none;align=center;verticalAlign=middle;whiteSpace=wrap;rounded=0;" parent="GXCIaeB6LlrhN9iPG05d-22" vertex="1">
          <mxGeometry x="30" y="22" width="40" height="20" as="geometry" />
        </mxCell>
        <mxCell id="GXCIaeB6LlrhN9iPG05d-6" value="&lt;font style=&quot;font-size: 24px&quot;&gt;L3缓存&lt;/font&gt;" style="rounded=0;whiteSpace=wrap;html=1;" parent="GXCIaeB6LlrhN9iPG05d-22" vertex="1">
          <mxGeometry x="8" y="59" width="251.25" height="52" as="geometry" />
        </mxCell>
        <mxCell id="GXCIaeB6LlrhN9iPG05d-12" value="" style="group" parent="GXCIaeB6LlrhN9iPG05d-22" vertex="1" connectable="0">
          <mxGeometry x="6" y="125" width="124" height="241" as="geometry" />
        </mxCell>
        <mxCell id="GXCIaeB6LlrhN9iPG05d-7" value="" style="rounded=0;whiteSpace=wrap;html=1;" parent="GXCIaeB6LlrhN9iPG05d-12" vertex="1">
          <mxGeometry width="124" height="241" as="geometry" />
        </mxCell>
        <mxCell id="GXCIaeB6LlrhN9iPG05d-8" value="&lt;font style=&quot;font-size: 24px&quot;&gt;L2缓存&lt;/font&gt;" style="rounded=0;whiteSpace=wrap;html=1;" parent="GXCIaeB6LlrhN9iPG05d-12" vertex="1">
          <mxGeometry x="4" y="65" width="116" height="52" as="geometry" />
        </mxCell>
        <mxCell id="GXCIaeB6LlrhN9iPG05d-9" value="&lt;font style=&quot;font-size: 24px&quot;&gt;L1缓存&lt;/font&gt;" style="rounded=0;whiteSpace=wrap;html=1;" parent="GXCIaeB6LlrhN9iPG05d-12" vertex="1">
          <mxGeometry x="4" y="125" width="116" height="52" as="geometry" />
        </mxCell>
        <mxCell id="GXCIaeB6LlrhN9iPG05d-10" value="&lt;font style=&quot;font-size: 24px&quot;&gt;线程&lt;/font&gt;" style="rounded=0;whiteSpace=wrap;html=1;" parent="GXCIaeB6LlrhN9iPG05d-12" vertex="1">
          <mxGeometry x="6" y="182" width="51" height="52" as="geometry" />
        </mxCell>
        <mxCell id="GXCIaeB6LlrhN9iPG05d-11" value="&lt;font style=&quot;font-size: 24px&quot;&gt;线程&lt;/font&gt;" style="rounded=0;whiteSpace=wrap;html=1;" parent="GXCIaeB6LlrhN9iPG05d-12" vertex="1">
          <mxGeometry x="66" y="182" width="51" height="52" as="geometry" />
        </mxCell>
        <mxCell id="GXCIaeB6LlrhN9iPG05d-19" value="&lt;font style=&quot;font-size: 24px&quot;&gt;Core&lt;/font&gt;" style="text;html=1;strokeColor=none;fillColor=none;align=center;verticalAlign=middle;whiteSpace=wrap;rounded=0;" parent="GXCIaeB6LlrhN9iPG05d-12" vertex="1">
          <mxGeometry x="42" y="31" width="40" height="20" as="geometry" />
        </mxCell>
        <mxCell id="GXCIaeB6LlrhN9iPG05d-13" value="" style="group" parent="GXCIaeB6LlrhN9iPG05d-22" vertex="1" connectable="0">
          <mxGeometry x="139" y="125" width="124" height="241" as="geometry" />
        </mxCell>
        <mxCell id="GXCIaeB6LlrhN9iPG05d-14" value="" style="rounded=0;whiteSpace=wrap;html=1;" parent="GXCIaeB6LlrhN9iPG05d-13" vertex="1">
          <mxGeometry width="124" height="241" as="geometry" />
        </mxCell>
        <mxCell id="GXCIaeB6LlrhN9iPG05d-15" value="&lt;font style=&quot;font-size: 24px&quot;&gt;L2缓存&lt;/font&gt;" style="rounded=0;whiteSpace=wrap;html=1;" parent="GXCIaeB6LlrhN9iPG05d-13" vertex="1">
          <mxGeometry x="4" y="65" width="116" height="52" as="geometry" />
        </mxCell>
        <mxCell id="GXCIaeB6LlrhN9iPG05d-16" value="&lt;font style=&quot;font-size: 24px&quot;&gt;L1缓存&lt;/font&gt;" style="rounded=0;whiteSpace=wrap;html=1;" parent="GXCIaeB6LlrhN9iPG05d-13" vertex="1">
          <mxGeometry x="4" y="125" width="116" height="52" as="geometry" />
        </mxCell>
        <mxCell id="GXCIaeB6LlrhN9iPG05d-17" value="&lt;font style=&quot;font-size: 24px&quot;&gt;线程&lt;/font&gt;" style="rounded=0;whiteSpace=wrap;html=1;" parent="GXCIaeB6LlrhN9iPG05d-13" vertex="1">
          <mxGeometry x="6" y="182" width="51" height="52" as="geometry" />
        </mxCell>
        <mxCell id="GXCIaeB6LlrhN9iPG05d-18" value="&lt;font style=&quot;font-size: 24px&quot;&gt;线程&lt;/font&gt;" style="rounded=0;whiteSpace=wrap;html=1;" parent="GXCIaeB6LlrhN9iPG05d-13" vertex="1">
          <mxGeometry x="66" y="182" width="51" height="52" as="geometry" />
        </mxCell>
        <mxCell id="GXCIaeB6LlrhN9iPG05d-21" value="&lt;font style=&quot;font-size: 24px&quot;&gt;Core&lt;/font&gt;" style="text;html=1;strokeColor=none;fillColor=none;align=center;verticalAlign=middle;whiteSpace=wrap;rounded=0;" parent="GXCIaeB6LlrhN9iPG05d-13" vertex="1">
          <mxGeometry x="42" y="30" width="40" height="20" as="geometry" />
        </mxCell>
        <mxCell id="GXCIaeB6LlrhN9iPG05d-23" value="" style="group" parent="GXCIaeB6LlrhN9iPG05d-1" vertex="1" connectable="0">
          <mxGeometry x="459" y="553" width="273" height="378" as="geometry" />
        </mxCell>
        <mxCell id="GXCIaeB6LlrhN9iPG05d-24" value="" style="rounded=0;whiteSpace=wrap;html=1;" parent="GXCIaeB6LlrhN9iPG05d-23" vertex="1">
          <mxGeometry width="273" height="378" as="geometry" />
        </mxCell>
        <mxCell id="GXCIaeB6LlrhN9iPG05d-25" value="&lt;font style=&quot;font-size: 24px&quot;&gt;CPU&lt;/font&gt;" style="text;html=1;strokeColor=none;fillColor=none;align=center;verticalAlign=middle;whiteSpace=wrap;rounded=0;" parent="GXCIaeB6LlrhN9iPG05d-23" vertex="1">
          <mxGeometry x="30" y="22" width="40" height="20" as="geometry" />
        </mxCell>
        <mxCell id="GXCIaeB6LlrhN9iPG05d-26" value="&lt;font style=&quot;font-size: 24px&quot;&gt;L3缓存&lt;/font&gt;" style="rounded=0;whiteSpace=wrap;html=1;" parent="GXCIaeB6LlrhN9iPG05d-23" vertex="1">
          <mxGeometry x="8" y="59" width="251.25" height="52" as="geometry" />
        </mxCell>
        <mxCell id="GXCIaeB6LlrhN9iPG05d-27" value="" style="group" parent="GXCIaeB6LlrhN9iPG05d-23" vertex="1" connectable="0">
          <mxGeometry x="6" y="125" width="124" height="241" as="geometry" />
        </mxCell>
        <mxCell id="GXCIaeB6LlrhN9iPG05d-28" value="" style="rounded=0;whiteSpace=wrap;html=1;" parent="GXCIaeB6LlrhN9iPG05d-27" vertex="1">
          <mxGeometry width="124" height="241" as="geometry" />
        </mxCell>
        <mxCell id="GXCIaeB6LlrhN9iPG05d-29" value="&lt;font style=&quot;font-size: 24px&quot;&gt;L2缓存&lt;/font&gt;" style="rounded=0;whiteSpace=wrap;html=1;" parent="GXCIaeB6LlrhN9iPG05d-27" vertex="1">
          <mxGeometry x="4" y="65" width="116" height="52" as="geometry" />
        </mxCell>
        <mxCell id="GXCIaeB6LlrhN9iPG05d-30" value="&lt;font style=&quot;font-size: 24px&quot;&gt;L1缓存&lt;/font&gt;" style="rounded=0;whiteSpace=wrap;html=1;" parent="GXCIaeB6LlrhN9iPG05d-27" vertex="1">
          <mxGeometry x="4" y="125" width="116" height="52" as="geometry" />
        </mxCell>
        <mxCell id="GXCIaeB6LlrhN9iPG05d-31" value="&lt;font style=&quot;font-size: 24px&quot;&gt;线程&lt;/font&gt;" style="rounded=0;whiteSpace=wrap;html=1;" parent="GXCIaeB6LlrhN9iPG05d-27" vertex="1">
          <mxGeometry x="6" y="182" width="51" height="52" as="geometry" />
        </mxCell>
        <mxCell id="GXCIaeB6LlrhN9iPG05d-32" value="&lt;font style=&quot;font-size: 24px&quot;&gt;线程&lt;/font&gt;" style="rounded=0;whiteSpace=wrap;html=1;" parent="GXCIaeB6LlrhN9iPG05d-27" vertex="1">
          <mxGeometry x="66" y="182" width="51" height="52" as="geometry" />
        </mxCell>
        <mxCell id="GXCIaeB6LlrhN9iPG05d-33" value="&lt;font style=&quot;font-size: 24px&quot;&gt;Core&lt;/font&gt;" style="text;html=1;strokeColor=none;fillColor=none;align=center;verticalAlign=middle;whiteSpace=wrap;rounded=0;" parent="GXCIaeB6LlrhN9iPG05d-27" vertex="1">
          <mxGeometry x="42" y="31" width="40" height="20" as="geometry" />
        </mxCell>
        <mxCell id="GXCIaeB6LlrhN9iPG05d-34" value="" style="group" parent="GXCIaeB6LlrhN9iPG05d-23" vertex="1" connectable="0">
          <mxGeometry x="139" y="125" width="124" height="241" as="geometry" />
        </mxCell>
        <mxCell id="GXCIaeB6LlrhN9iPG05d-35" value="" style="rounded=0;whiteSpace=wrap;html=1;" parent="GXCIaeB6LlrhN9iPG05d-34" vertex="1">
          <mxGeometry width="124" height="241" as="geometry" />
        </mxCell>
        <mxCell id="GXCIaeB6LlrhN9iPG05d-36" value="&lt;font style=&quot;font-size: 24px&quot;&gt;L2缓存&lt;/font&gt;" style="rounded=0;whiteSpace=wrap;html=1;" parent="GXCIaeB6LlrhN9iPG05d-34" vertex="1">
          <mxGeometry x="4" y="65" width="116" height="52" as="geometry" />
        </mxCell>
        <mxCell id="GXCIaeB6LlrhN9iPG05d-37" value="&lt;font style=&quot;font-size: 24px&quot;&gt;L1缓存&lt;/font&gt;" style="rounded=0;whiteSpace=wrap;html=1;" parent="GXCIaeB6LlrhN9iPG05d-34" vertex="1">
          <mxGeometry x="4" y="125" width="116" height="52" as="geometry" />
        </mxCell>
        <mxCell id="GXCIaeB6LlrhN9iPG05d-38" value="&lt;font style=&quot;font-size: 24px&quot;&gt;线程&lt;/font&gt;" style="rounded=0;whiteSpace=wrap;html=1;" parent="GXCIaeB6LlrhN9iPG05d-34" vertex="1">
          <mxGeometry x="6" y="182" width="51" height="52" as="geometry" />
        </mxCell>
        <mxCell id="GXCIaeB6LlrhN9iPG05d-39" value="&lt;font style=&quot;font-size: 24px&quot;&gt;线程&lt;/font&gt;" style="rounded=0;whiteSpace=wrap;html=1;" parent="GXCIaeB6LlrhN9iPG05d-34" vertex="1">
          <mxGeometry x="66" y="182" width="51" height="52" as="geometry" />
        </mxCell>
        <mxCell id="GXCIaeB6LlrhN9iPG05d-40" value="&lt;font style=&quot;font-size: 24px&quot;&gt;Core&lt;/font&gt;" style="text;html=1;strokeColor=none;fillColor=none;align=center;verticalAlign=middle;whiteSpace=wrap;rounded=0;" parent="GXCIaeB6LlrhN9iPG05d-34" vertex="1">
          <mxGeometry x="42" y="30" width="40" height="20" as="geometry" />
        </mxCell>
      </root>
    </mxGraphModel>
  </diagram>
  <diagram id="r6TW8XECkbQ8y_b-IXtM" name="第 3 页">
    <mxGraphModel dx="2066" dy="1154" grid="0" gridSize="10" guides="1" tooltips="1" connect="1" arrows="1" fold="1" page="1" pageScale="1" pageWidth="827" pageHeight="1169" math="0" shadow="0">
      <root>
        <mxCell id="GHsKXrYs0OdW-Ewvd2MH-0" />
        <mxCell id="GHsKXrYs0OdW-Ewvd2MH-1" parent="GHsKXrYs0OdW-Ewvd2MH-0" />
        <mxCell id="GHsKXrYs0OdW-Ewvd2MH-32" value="" style="rounded=0;whiteSpace=wrap;html=1;" parent="GHsKXrYs0OdW-Ewvd2MH-1" vertex="1">
          <mxGeometry x="63" y="274" width="703" height="568" as="geometry" />
        </mxCell>
        <mxCell id="GHsKXrYs0OdW-Ewvd2MH-20" style="edgeStyle=none;rounded=0;orthogonalLoop=1;jettySize=auto;html=1;exitX=0.5;exitY=1;exitDx=0;exitDy=0;entryX=0.5;entryY=0;entryDx=0;entryDy=0;startArrow=classic;startFill=1;" parent="GHsKXrYs0OdW-Ewvd2MH-1" source="GHsKXrYs0OdW-Ewvd2MH-17" target="GHsKXrYs0OdW-Ewvd2MH-18" edge="1">
          <mxGeometry relative="1" as="geometry" />
        </mxCell>
        <mxCell id="GHsKXrYs0OdW-Ewvd2MH-21" style="edgeStyle=none;rounded=0;orthogonalLoop=1;jettySize=auto;html=1;exitX=0.5;exitY=1;exitDx=0;exitDy=0;entryX=0.5;entryY=0;entryDx=0;entryDy=0;startArrow=classic;startFill=1;" parent="GHsKXrYs0OdW-Ewvd2MH-1" source="GHsKXrYs0OdW-Ewvd2MH-17" target="GHsKXrYs0OdW-Ewvd2MH-19" edge="1">
          <mxGeometry relative="1" as="geometry" />
        </mxCell>
        <mxCell id="GHsKXrYs0OdW-Ewvd2MH-29" style="edgeStyle=none;rounded=0;orthogonalLoop=1;jettySize=auto;html=1;exitX=1;exitY=0.5;exitDx=0;exitDy=0;entryX=0;entryY=0.5;entryDx=0;entryDy=0;startArrow=classic;startFill=1;" parent="GHsKXrYs0OdW-Ewvd2MH-1" source="GHsKXrYs0OdW-Ewvd2MH-17" target="GHsKXrYs0OdW-Ewvd2MH-22" edge="1">
          <mxGeometry relative="1" as="geometry" />
        </mxCell>
        <mxCell id="GHsKXrYs0OdW-Ewvd2MH-17" value="&lt;font&gt;&lt;span style=&quot;font-size: 18px&quot;&gt;kquic&lt;/span&gt;&lt;br&gt;&lt;span style=&quot;font-size: 18px&quot;&gt;10.40.34.147:3333&lt;/span&gt;&lt;br&gt;&lt;/font&gt;" style="rounded=0;whiteSpace=wrap;html=1;strokeWidth=2;" parent="GHsKXrYs0OdW-Ewvd2MH-1" vertex="1">
          <mxGeometry x="218" y="293" width="236" height="56" as="geometry" />
        </mxCell>
        <mxCell id="GHsKXrYs0OdW-Ewvd2MH-25" style="edgeStyle=none;rounded=0;orthogonalLoop=1;jettySize=auto;html=1;exitX=0.5;exitY=1;exitDx=0;exitDy=0;entryX=0.5;entryY=0;entryDx=0;entryDy=0;startArrow=classic;startFill=1;" parent="GHsKXrYs0OdW-Ewvd2MH-1" source="GHsKXrYs0OdW-Ewvd2MH-18" target="GHsKXrYs0OdW-Ewvd2MH-24" edge="1">
          <mxGeometry relative="1" as="geometry" />
        </mxCell>
        <mxCell id="GHsKXrYs0OdW-Ewvd2MH-28" style="edgeStyle=none;rounded=0;orthogonalLoop=1;jettySize=auto;html=1;exitX=0.5;exitY=1;exitDx=0;exitDy=0;entryX=0.5;entryY=0;entryDx=0;entryDy=0;startArrow=classic;startFill=1;" parent="GHsKXrYs0OdW-Ewvd2MH-1" source="GHsKXrYs0OdW-Ewvd2MH-18" target="GHsKXrYs0OdW-Ewvd2MH-23" edge="1">
          <mxGeometry relative="1" as="geometry" />
        </mxCell>
        <mxCell id="GHsKXrYs0OdW-Ewvd2MH-18" value="&lt;font&gt;&lt;span style=&quot;font-size: 18px&quot;&gt;file_server&lt;/span&gt;&lt;br&gt;&lt;span style=&quot;font-size: 18px&quot;&gt;10.40.34.147:12346&lt;/span&gt;&lt;br&gt;&lt;/font&gt;" style="rounded=0;whiteSpace=wrap;html=1;strokeWidth=2;" parent="GHsKXrYs0OdW-Ewvd2MH-1" vertex="1">
          <mxGeometry x="73" y="518" width="236" height="56" as="geometry" />
        </mxCell>
        <mxCell id="GHsKXrYs0OdW-Ewvd2MH-27" style="edgeStyle=none;rounded=0;orthogonalLoop=1;jettySize=auto;html=1;exitX=0.5;exitY=1;exitDx=0;exitDy=0;startArrow=classic;startFill=1;" parent="GHsKXrYs0OdW-Ewvd2MH-1" source="GHsKXrYs0OdW-Ewvd2MH-19" edge="1">
          <mxGeometry relative="1" as="geometry">
            <mxPoint x="474" y="728" as="targetPoint" />
          </mxGeometry>
        </mxCell>
        <mxCell id="GHsKXrYs0OdW-Ewvd2MH-19" value="&lt;font&gt;&lt;span style=&quot;font-size: 18px&quot;&gt;file_server&lt;/span&gt;&lt;br&gt;&lt;span style=&quot;font-size: 18px&quot;&gt;10.40.56.152:4446&lt;/span&gt;&lt;br&gt;&lt;/font&gt;" style="rounded=0;whiteSpace=wrap;html=1;strokeWidth=2;" parent="GHsKXrYs0OdW-Ewvd2MH-1" vertex="1">
          <mxGeometry x="356" y="518" width="236" height="56" as="geometry" />
        </mxCell>
        <mxCell id="GHsKXrYs0OdW-Ewvd2MH-22" value="&lt;font&gt;&lt;span style=&quot;font-size: 18px&quot;&gt;鉴仅服务器&lt;/span&gt;&lt;br&gt;&lt;span style=&quot;font-size: 18px&quot;&gt;10.40.34.147:12347&lt;/span&gt;&lt;br&gt;&lt;/font&gt;" style="rounded=0;whiteSpace=wrap;html=1;strokeWidth=2;" parent="GHsKXrYs0OdW-Ewvd2MH-1" vertex="1">
          <mxGeometry x="524" y="293" width="236" height="56" as="geometry" />
        </mxCell>
        <mxCell id="GHsKXrYs0OdW-Ewvd2MH-26" style="edgeStyle=none;rounded=0;orthogonalLoop=1;jettySize=auto;html=1;exitX=0.5;exitY=0;exitDx=0;exitDy=0;entryX=0.5;entryY=1;entryDx=0;entryDy=0;startArrow=classic;startFill=1;" parent="GHsKXrYs0OdW-Ewvd2MH-1" source="GHsKXrYs0OdW-Ewvd2MH-23" target="GHsKXrYs0OdW-Ewvd2MH-19" edge="1">
          <mxGeometry relative="1" as="geometry" />
        </mxCell>
        <mxCell id="GHsKXrYs0OdW-Ewvd2MH-23" value="&lt;font&gt;&lt;span style=&quot;font-size: 18px&quot;&gt;da_proxy&lt;/span&gt;&lt;br&gt;&lt;span style=&quot;font-size: 18px&quot;&gt;10.40.34.147:4446&lt;/span&gt;&lt;br&gt;&lt;/font&gt;" style="rounded=0;whiteSpace=wrap;html=1;strokeWidth=2;" parent="GHsKXrYs0OdW-Ewvd2MH-1" vertex="1">
          <mxGeometry x="73" y="731" width="236" height="56" as="geometry" />
        </mxCell>
        <mxCell id="GHsKXrYs0OdW-Ewvd2MH-24" value="&lt;font&gt;&lt;span style=&quot;font-size: 18px&quot;&gt;da_proxy&lt;/span&gt;&lt;br&gt;&lt;span style=&quot;font-size: 18px&quot;&gt;10.40.34.147:4447&lt;/span&gt;&lt;br&gt;&lt;/font&gt;" style="rounded=0;whiteSpace=wrap;html=1;strokeWidth=2;" parent="GHsKXrYs0OdW-Ewvd2MH-1" vertex="1">
          <mxGeometry x="356" y="731" width="236" height="56" as="geometry" />
        </mxCell>
        <mxCell id="GHsKXrYs0OdW-Ewvd2MH-30" value="&lt;font&gt;&lt;br&gt;&lt;/font&gt;" style="rounded=0;whiteSpace=wrap;html=1;" parent="GHsKXrYs0OdW-Ewvd2MH-1" vertex="1">
          <mxGeometry x="548" y="805" width="44" height="25" as="geometry" />
        </mxCell>
        <mxCell id="GHsKXrYs0OdW-Ewvd2MH-31" value="&lt;font style=&quot;font-size: 14px&quot;&gt;进程&lt;/font&gt;" style="text;html=1;strokeColor=none;fillColor=none;align=center;verticalAlign=middle;whiteSpace=wrap;rounded=0;" parent="GHsKXrYs0OdW-Ewvd2MH-1" vertex="1">
          <mxGeometry x="604" y="807.5" width="40" height="20" as="geometry" />
        </mxCell>
        <mxCell id="GHsKXrYs0OdW-Ewvd2MH-34" style="edgeStyle=none;rounded=0;orthogonalLoop=1;jettySize=auto;html=1;startArrow=classic;startFill=1;" parent="GHsKXrYs0OdW-Ewvd2MH-1" edge="1">
          <mxGeometry relative="1" as="geometry">
            <mxPoint x="692" y="817" as="targetPoint" />
            <mxPoint x="660" y="817" as="sourcePoint" />
            <Array as="points">
              <mxPoint x="692" y="817" />
            </Array>
          </mxGeometry>
        </mxCell>
        <mxCell id="GHsKXrYs0OdW-Ewvd2MH-35" value="&lt;font style=&quot;font-size: 14px&quot;&gt;数据流&lt;/font&gt;" style="text;html=1;strokeColor=none;fillColor=none;align=center;verticalAlign=middle;whiteSpace=wrap;rounded=0;" parent="GHsKXrYs0OdW-Ewvd2MH-1" vertex="1">
          <mxGeometry x="696" y="807.5" width="57" height="20" as="geometry" />
        </mxCell>
      </root>
    </mxGraphModel>
  </diagram>
  <diagram id="FP6Vy35aF5TwTHgz3CSm" name="第 4 页">
    <mxGraphModel dx="2066" dy="1154" grid="0" gridSize="10" guides="1" tooltips="1" connect="1" arrows="1" fold="1" page="1" pageScale="1" pageWidth="827" pageHeight="1169" math="0" shadow="0">
      <root>
        <mxCell id="_-Dv0ZLfTRlC5KwN9eCK-0" />
        <mxCell id="_-Dv0ZLfTRlC5KwN9eCK-1" parent="_-Dv0ZLfTRlC5KwN9eCK-0" />
        <mxCell id="_-Dv0ZLfTRlC5KwN9eCK-2" value="k1" style="ellipse;whiteSpace=wrap;html=1;aspect=fixed;fontSize=17;" vertex="1" parent="_-Dv0ZLfTRlC5KwN9eCK-1">
          <mxGeometry x="160" y="307" width="29" height="29" as="geometry" />
        </mxCell>
        <mxCell id="_-Dv0ZLfTRlC5KwN9eCK-4" value="f1" style="whiteSpace=wrap;html=1;aspect=fixed;fontSize=17;" vertex="1" parent="_-Dv0ZLfTRlC5KwN9eCK-1">
          <mxGeometry x="347" y="223" width="36" height="36" as="geometry" />
        </mxCell>
        <mxCell id="_-Dv0ZLfTRlC5KwN9eCK-5" value="d1" style="rhombus;whiteSpace=wrap;html=1;fontSize=17;" vertex="1" parent="_-Dv0ZLfTRlC5KwN9eCK-1">
          <mxGeometry x="551" y="283" width="45" height="53" as="geometry" />
        </mxCell>
        <mxCell id="_-Dv0ZLfTRlC5KwN9eCK-6" value="f2" style="whiteSpace=wrap;html=1;aspect=fixed;fontSize=17;" vertex="1" parent="_-Dv0ZLfTRlC5KwN9eCK-1">
          <mxGeometry x="347" y="300" width="36" height="36" as="geometry" />
        </mxCell>
        <mxCell id="_-Dv0ZLfTRlC5KwN9eCK-7" value="f3" style="whiteSpace=wrap;html=1;aspect=fixed;fontSize=17;" vertex="1" parent="_-Dv0ZLfTRlC5KwN9eCK-1">
          <mxGeometry x="347" y="377" width="36" height="36" as="geometry" />
        </mxCell>
        <mxCell id="_-Dv0ZLfTRlC5KwN9eCK-8" value="f4" style="whiteSpace=wrap;html=1;aspect=fixed;fontSize=17;" vertex="1" parent="_-Dv0ZLfTRlC5KwN9eCK-1">
          <mxGeometry x="347" y="454" width="36" height="36" as="geometry" />
        </mxCell>
        <mxCell id="_-Dv0ZLfTRlC5KwN9eCK-9" value="k2" style="ellipse;whiteSpace=wrap;html=1;aspect=fixed;fontSize=17;" vertex="1" parent="_-Dv0ZLfTRlC5KwN9eCK-1">
          <mxGeometry x="160" y="380.5" width="29" height="29" as="geometry" />
        </mxCell>
        <mxCell id="_-Dv0ZLfTRlC5KwN9eCK-10" value="d2" style="rhombus;whiteSpace=wrap;html=1;fontSize=17;" vertex="1" parent="_-Dv0ZLfTRlC5KwN9eCK-1">
          <mxGeometry x="551" y="371" width="45" height="53" as="geometry" />
        </mxCell>
        <mxCell id="_-Dv0ZLfTRlC5KwN9eCK-12" value="" style="endArrow=none;html=1;fontSize=17;" edge="1" parent="_-Dv0ZLfTRlC5KwN9eCK-1">
          <mxGeometry width="50" height="50" relative="1" as="geometry">
            <mxPoint x="189" y="318" as="sourcePoint" />
            <mxPoint x="342" y="318" as="targetPoint" />
          </mxGeometry>
        </mxCell>
        <mxCell id="_-Dv0ZLfTRlC5KwN9eCK-15" value="" style="endArrow=none;html=1;fontSize=17;" edge="1" parent="_-Dv0ZLfTRlC5KwN9eCK-1">
          <mxGeometry width="50" height="50" relative="1" as="geometry">
            <mxPoint x="190" y="392" as="sourcePoint" />
            <mxPoint x="345" y="321" as="targetPoint" />
          </mxGeometry>
        </mxCell>
        <mxCell id="_-Dv0ZLfTRlC5KwN9eCK-16" value="" style="endArrow=none;html=1;fontSize=17;" edge="1" parent="_-Dv0ZLfTRlC5KwN9eCK-1">
          <mxGeometry width="50" height="50" relative="1" as="geometry">
            <mxPoint x="189" y="318" as="sourcePoint" />
            <mxPoint x="342" y="240" as="targetPoint" />
          </mxGeometry>
        </mxCell>
        <mxCell id="_-Dv0ZLfTRlC5KwN9eCK-17" value="" style="endArrow=none;html=1;fontSize=17;" edge="1" parent="_-Dv0ZLfTRlC5KwN9eCK-1">
          <mxGeometry width="50" height="50" relative="1" as="geometry">
            <mxPoint x="190" y="392" as="sourcePoint" />
            <mxPoint x="345" y="244" as="targetPoint" />
          </mxGeometry>
        </mxCell>
        <mxCell id="_-Dv0ZLfTRlC5KwN9eCK-18" value="" style="endArrow=none;html=1;fontSize=17;exitX=1;exitY=0.5;exitDx=0;exitDy=0;" edge="1" parent="_-Dv0ZLfTRlC5KwN9eCK-1" source="_-Dv0ZLfTRlC5KwN9eCK-4">
          <mxGeometry width="50" height="50" relative="1" as="geometry">
            <mxPoint x="387" y="583" as="sourcePoint" />
            <mxPoint x="550" y="307" as="targetPoint" />
          </mxGeometry>
        </mxCell>
        <mxCell id="_-Dv0ZLfTRlC5KwN9eCK-19" value="" style="endArrow=none;html=1;fontSize=17;exitX=1;exitY=0.5;exitDx=0;exitDy=0;" edge="1" parent="_-Dv0ZLfTRlC5KwN9eCK-1" source="_-Dv0ZLfTRlC5KwN9eCK-4">
          <mxGeometry width="50" height="50" relative="1" as="geometry">
            <mxPoint x="383" y="241" as="sourcePoint" />
            <mxPoint x="550" y="390" as="targetPoint" />
          </mxGeometry>
        </mxCell>
        <mxCell id="_-Dv0ZLfTRlC5KwN9eCK-20" value="" style="endArrow=none;html=1;fontSize=17;exitX=1;exitY=0.5;exitDx=0;exitDy=0;" edge="1" parent="_-Dv0ZLfTRlC5KwN9eCK-1" source="_-Dv0ZLfTRlC5KwN9eCK-6">
          <mxGeometry width="50" height="50" relative="1" as="geometry">
            <mxPoint x="383" y="241" as="sourcePoint" />
            <mxPoint x="550" y="390" as="targetPoint" />
          </mxGeometry>
        </mxCell>
        <mxCell id="_-Dv0ZLfTRlC5KwN9eCK-21" value="" style="endArrow=none;html=1;fontSize=17;exitX=1;exitY=0.5;exitDx=0;exitDy=0;" edge="1" parent="_-Dv0ZLfTRlC5KwN9eCK-1" source="_-Dv0ZLfTRlC5KwN9eCK-6">
          <mxGeometry width="50" height="50" relative="1" as="geometry">
            <mxPoint x="387" y="583" as="sourcePoint" />
            <mxPoint x="550" y="307" as="targetPoint" />
          </mxGeometry>
        </mxCell>
        <mxCell id="_-Dv0ZLfTRlC5KwN9eCK-22" value="k1" style="ellipse;whiteSpace=wrap;html=1;aspect=fixed;fontSize=17;" vertex="1" parent="_-Dv0ZLfTRlC5KwN9eCK-1">
          <mxGeometry x="160" y="623" width="29" height="29" as="geometry" />
        </mxCell>
        <mxCell id="_-Dv0ZLfTRlC5KwN9eCK-23" value="f1" style="whiteSpace=wrap;html=1;aspect=fixed;fontSize=17;" vertex="1" parent="_-Dv0ZLfTRlC5KwN9eCK-1">
          <mxGeometry x="347" y="539" width="36" height="36" as="geometry" />
        </mxCell>
        <mxCell id="_-Dv0ZLfTRlC5KwN9eCK-24" value="d1" style="rhombus;whiteSpace=wrap;html=1;fontSize=17;" vertex="1" parent="_-Dv0ZLfTRlC5KwN9eCK-1">
          <mxGeometry x="551" y="599" width="45" height="53" as="geometry" />
        </mxCell>
        <mxCell id="_-Dv0ZLfTRlC5KwN9eCK-25" value="f2" style="whiteSpace=wrap;html=1;aspect=fixed;fontSize=17;" vertex="1" parent="_-Dv0ZLfTRlC5KwN9eCK-1">
          <mxGeometry x="347" y="616" width="36" height="36" as="geometry" />
        </mxCell>
        <mxCell id="_-Dv0ZLfTRlC5KwN9eCK-26" value="f3" style="whiteSpace=wrap;html=1;aspect=fixed;fontSize=17;fillColor=#d5e8d4;strokeColor=#82b366;" vertex="1" parent="_-Dv0ZLfTRlC5KwN9eCK-1">
          <mxGeometry x="347" y="693" width="36" height="36" as="geometry" />
        </mxCell>
        <mxCell id="_-Dv0ZLfTRlC5KwN9eCK-27" value="f4" style="whiteSpace=wrap;html=1;aspect=fixed;fontSize=17;fillColor=#d5e8d4;strokeColor=#82b366;" vertex="1" parent="_-Dv0ZLfTRlC5KwN9eCK-1">
          <mxGeometry x="347" y="770" width="36" height="36" as="geometry" />
        </mxCell>
        <mxCell id="_-Dv0ZLfTRlC5KwN9eCK-28" value="k2" style="ellipse;whiteSpace=wrap;html=1;aspect=fixed;fontSize=17;" vertex="1" parent="_-Dv0ZLfTRlC5KwN9eCK-1">
          <mxGeometry x="160" y="696.5" width="29" height="29" as="geometry" />
        </mxCell>
        <mxCell id="_-Dv0ZLfTRlC5KwN9eCK-29" value="d2" style="rhombus;whiteSpace=wrap;html=1;fontSize=17;" vertex="1" parent="_-Dv0ZLfTRlC5KwN9eCK-1">
          <mxGeometry x="551" y="687" width="45" height="53" as="geometry" />
        </mxCell>
        <mxCell id="_-Dv0ZLfTRlC5KwN9eCK-30" value="" style="endArrow=none;html=1;fontSize=17;" edge="1" parent="_-Dv0ZLfTRlC5KwN9eCK-1">
          <mxGeometry width="50" height="50" relative="1" as="geometry">
            <mxPoint x="189" y="634" as="sourcePoint" />
            <mxPoint x="342" y="785" as="targetPoint" />
          </mxGeometry>
        </mxCell>
        <mxCell id="_-Dv0ZLfTRlC5KwN9eCK-31" value="" style="endArrow=none;html=1;fontSize=17;" edge="1" parent="_-Dv0ZLfTRlC5KwN9eCK-1">
          <mxGeometry width="50" height="50" relative="1" as="geometry">
            <mxPoint x="190" y="708" as="sourcePoint" />
            <mxPoint x="345" y="790" as="targetPoint" />
          </mxGeometry>
        </mxCell>
        <mxCell id="_-Dv0ZLfTRlC5KwN9eCK-32" value="" style="endArrow=none;html=1;fontSize=17;entryX=0;entryY=0.25;entryDx=0;entryDy=0;" edge="1" parent="_-Dv0ZLfTRlC5KwN9eCK-1" target="_-Dv0ZLfTRlC5KwN9eCK-26">
          <mxGeometry width="50" height="50" relative="1" as="geometry">
            <mxPoint x="189" y="634" as="sourcePoint" />
            <mxPoint x="342" y="556" as="targetPoint" />
          </mxGeometry>
        </mxCell>
        <mxCell id="_-Dv0ZLfTRlC5KwN9eCK-33" value="" style="endArrow=none;html=1;fontSize=17;entryX=0;entryY=0.5;entryDx=0;entryDy=0;" edge="1" parent="_-Dv0ZLfTRlC5KwN9eCK-1" target="_-Dv0ZLfTRlC5KwN9eCK-26">
          <mxGeometry width="50" height="50" relative="1" as="geometry">
            <mxPoint x="190" y="708" as="sourcePoint" />
            <mxPoint x="345" y="560" as="targetPoint" />
          </mxGeometry>
        </mxCell>
        <mxCell id="_-Dv0ZLfTRlC5KwN9eCK-34" value="" style="endArrow=none;html=1;fontSize=17;exitX=1;exitY=0.5;exitDx=0;exitDy=0;" edge="1" source="_-Dv0ZLfTRlC5KwN9eCK-26" parent="_-Dv0ZLfTRlC5KwN9eCK-1">
          <mxGeometry width="50" height="50" relative="1" as="geometry">
            <mxPoint x="387" y="899" as="sourcePoint" />
            <mxPoint x="550" y="623" as="targetPoint" />
          </mxGeometry>
        </mxCell>
        <mxCell id="_-Dv0ZLfTRlC5KwN9eCK-37" value="" style="endArrow=none;html=1;fontSize=17;exitX=1;exitY=0.5;exitDx=0;exitDy=0;" edge="1" source="_-Dv0ZLfTRlC5KwN9eCK-27" parent="_-Dv0ZLfTRlC5KwN9eCK-1">
          <mxGeometry width="50" height="50" relative="1" as="geometry">
            <mxPoint x="387" y="899" as="sourcePoint" />
            <mxPoint x="550" y="623" as="targetPoint" />
          </mxGeometry>
        </mxCell>
        <mxCell id="_-Dv0ZLfTRlC5KwN9eCK-38" value="k1" style="ellipse;whiteSpace=wrap;html=1;aspect=fixed;fontSize=17;" vertex="1" parent="_-Dv0ZLfTRlC5KwN9eCK-1">
          <mxGeometry x="160" y="928" width="29" height="29" as="geometry" />
        </mxCell>
        <mxCell id="_-Dv0ZLfTRlC5KwN9eCK-39" value="f1" style="whiteSpace=wrap;html=1;aspect=fixed;fontSize=17;fillColor=#d5e8d4;strokeColor=#82b366;" vertex="1" parent="_-Dv0ZLfTRlC5KwN9eCK-1">
          <mxGeometry x="347" y="844" width="36" height="36" as="geometry" />
        </mxCell>
        <mxCell id="_-Dv0ZLfTRlC5KwN9eCK-40" value="d1" style="rhombus;whiteSpace=wrap;html=1;fontSize=17;" vertex="1" parent="_-Dv0ZLfTRlC5KwN9eCK-1">
          <mxGeometry x="551" y="904" width="45" height="53" as="geometry" />
        </mxCell>
        <mxCell id="_-Dv0ZLfTRlC5KwN9eCK-41" value="f2" style="whiteSpace=wrap;html=1;aspect=fixed;fontSize=17;fillColor=#d5e8d4;strokeColor=#82b366;" vertex="1" parent="_-Dv0ZLfTRlC5KwN9eCK-1">
          <mxGeometry x="347" y="921" width="36" height="36" as="geometry" />
        </mxCell>
        <mxCell id="_-Dv0ZLfTRlC5KwN9eCK-42" value="f3" style="whiteSpace=wrap;html=1;aspect=fixed;fontSize=17;fillColor=#d5e8d4;strokeColor=#82b366;" vertex="1" parent="_-Dv0ZLfTRlC5KwN9eCK-1">
          <mxGeometry x="347" y="998" width="36" height="36" as="geometry" />
        </mxCell>
        <mxCell id="_-Dv0ZLfTRlC5KwN9eCK-43" value="f4" style="whiteSpace=wrap;html=1;aspect=fixed;fontSize=17;fillColor=#d5e8d4;strokeColor=#82b366;" vertex="1" parent="_-Dv0ZLfTRlC5KwN9eCK-1">
          <mxGeometry x="347" y="1075" width="36" height="36" as="geometry" />
        </mxCell>
        <mxCell id="_-Dv0ZLfTRlC5KwN9eCK-44" value="k2" style="ellipse;whiteSpace=wrap;html=1;aspect=fixed;fontSize=17;" vertex="1" parent="_-Dv0ZLfTRlC5KwN9eCK-1">
          <mxGeometry x="160" y="1001.5" width="29" height="29" as="geometry" />
        </mxCell>
        <mxCell id="_-Dv0ZLfTRlC5KwN9eCK-45" value="d2" style="rhombus;whiteSpace=wrap;html=1;fontSize=17;fillColor=#d5e8d4;strokeColor=#82b366;" vertex="1" parent="_-Dv0ZLfTRlC5KwN9eCK-1">
          <mxGeometry x="551" y="992" width="45" height="53" as="geometry" />
        </mxCell>
        <mxCell id="_-Dv0ZLfTRlC5KwN9eCK-46" value="" style="endArrow=none;html=1;fontSize=17;entryX=0;entryY=0.5;entryDx=0;entryDy=0;" edge="1" parent="_-Dv0ZLfTRlC5KwN9eCK-1" target="_-Dv0ZLfTRlC5KwN9eCK-41">
          <mxGeometry width="50" height="50" relative="1" as="geometry">
            <mxPoint x="189" y="939" as="sourcePoint" />
            <mxPoint x="342" y="1090" as="targetPoint" />
          </mxGeometry>
        </mxCell>
        <mxCell id="_-Dv0ZLfTRlC5KwN9eCK-47" value="" style="endArrow=none;html=1;fontSize=17;" edge="1" parent="_-Dv0ZLfTRlC5KwN9eCK-1">
          <mxGeometry width="50" height="50" relative="1" as="geometry">
            <mxPoint x="190" y="1013" as="sourcePoint" />
            <mxPoint x="345" y="941" as="targetPoint" />
          </mxGeometry>
        </mxCell>
        <mxCell id="_-Dv0ZLfTRlC5KwN9eCK-48" value="" style="endArrow=none;html=1;fontSize=17;entryX=0;entryY=0.5;entryDx=0;entryDy=0;" edge="1" target="_-Dv0ZLfTRlC5KwN9eCK-39" parent="_-Dv0ZLfTRlC5KwN9eCK-1">
          <mxGeometry width="50" height="50" relative="1" as="geometry">
            <mxPoint x="189" y="939" as="sourcePoint" />
            <mxPoint x="342" y="861" as="targetPoint" />
          </mxGeometry>
        </mxCell>
        <mxCell id="_-Dv0ZLfTRlC5KwN9eCK-49" value="" style="endArrow=none;html=1;fontSize=17;entryX=0;entryY=0.5;entryDx=0;entryDy=0;" edge="1" target="_-Dv0ZLfTRlC5KwN9eCK-39" parent="_-Dv0ZLfTRlC5KwN9eCK-1">
          <mxGeometry width="50" height="50" relative="1" as="geometry">
            <mxPoint x="190" y="1013" as="sourcePoint" />
            <mxPoint x="345" y="865" as="targetPoint" />
          </mxGeometry>
        </mxCell>
        <mxCell id="_-Dv0ZLfTRlC5KwN9eCK-50" value="" style="endArrow=none;html=1;fontSize=17;exitX=1;exitY=0.5;exitDx=0;exitDy=0;entryX=0;entryY=0.5;entryDx=0;entryDy=0;" edge="1" source="_-Dv0ZLfTRlC5KwN9eCK-39" parent="_-Dv0ZLfTRlC5KwN9eCK-1" target="_-Dv0ZLfTRlC5KwN9eCK-45">
          <mxGeometry width="50" height="50" relative="1" as="geometry">
            <mxPoint x="387" y="1204" as="sourcePoint" />
            <mxPoint x="550" y="928" as="targetPoint" />
          </mxGeometry>
        </mxCell>
        <mxCell id="_-Dv0ZLfTRlC5KwN9eCK-51" value="" style="endArrow=none;html=1;fontSize=17;exitX=1;exitY=0.5;exitDx=0;exitDy=0;entryX=0;entryY=0.5;entryDx=0;entryDy=0;" edge="1" source="_-Dv0ZLfTRlC5KwN9eCK-41" parent="_-Dv0ZLfTRlC5KwN9eCK-1" target="_-Dv0ZLfTRlC5KwN9eCK-45">
          <mxGeometry width="50" height="50" relative="1" as="geometry">
            <mxPoint x="387" y="1204" as="sourcePoint" />
            <mxPoint x="550" y="928" as="targetPoint" />
          </mxGeometry>
        </mxCell>
        <mxCell id="_-Dv0ZLfTRlC5KwN9eCK-52" value="k1" style="ellipse;whiteSpace=wrap;html=1;aspect=fixed;fontSize=17;" vertex="1" parent="_-Dv0ZLfTRlC5KwN9eCK-1">
          <mxGeometry x="160" y="1266" width="29" height="29" as="geometry" />
        </mxCell>
        <mxCell id="_-Dv0ZLfTRlC5KwN9eCK-53" value="f1" style="whiteSpace=wrap;html=1;aspect=fixed;fontSize=17;fillColor=#d5e8d4;strokeColor=#82b366;" vertex="1" parent="_-Dv0ZLfTRlC5KwN9eCK-1">
          <mxGeometry x="347" y="1182" width="36" height="36" as="geometry" />
        </mxCell>
        <mxCell id="_-Dv0ZLfTRlC5KwN9eCK-54" value="d1" style="rhombus;whiteSpace=wrap;html=1;fontSize=17;fillColor=#d5e8d4;strokeColor=#82b366;" vertex="1" parent="_-Dv0ZLfTRlC5KwN9eCK-1">
          <mxGeometry x="551" y="1242" width="45" height="53" as="geometry" />
        </mxCell>
        <mxCell id="_-Dv0ZLfTRlC5KwN9eCK-55" value="f2" style="whiteSpace=wrap;html=1;aspect=fixed;fontSize=17;fillColor=#d5e8d4;strokeColor=#82b366;" vertex="1" parent="_-Dv0ZLfTRlC5KwN9eCK-1">
          <mxGeometry x="347" y="1259" width="36" height="36" as="geometry" />
        </mxCell>
        <mxCell id="_-Dv0ZLfTRlC5KwN9eCK-56" value="f3" style="whiteSpace=wrap;html=1;aspect=fixed;fontSize=17;fillColor=#d5e8d4;strokeColor=#82b366;" vertex="1" parent="_-Dv0ZLfTRlC5KwN9eCK-1">
          <mxGeometry x="347" y="1336" width="36" height="36" as="geometry" />
        </mxCell>
        <mxCell id="_-Dv0ZLfTRlC5KwN9eCK-57" value="f4" style="whiteSpace=wrap;html=1;aspect=fixed;fontSize=17;fillColor=#d5e8d4;strokeColor=#82b366;" vertex="1" parent="_-Dv0ZLfTRlC5KwN9eCK-1">
          <mxGeometry x="347" y="1413" width="36" height="36" as="geometry" />
        </mxCell>
        <mxCell id="_-Dv0ZLfTRlC5KwN9eCK-58" value="k2" style="ellipse;whiteSpace=wrap;html=1;aspect=fixed;fontSize=17;" vertex="1" parent="_-Dv0ZLfTRlC5KwN9eCK-1">
          <mxGeometry x="160" y="1339.5" width="29" height="29" as="geometry" />
        </mxCell>
        <mxCell id="_-Dv0ZLfTRlC5KwN9eCK-59" value="d2" style="rhombus;whiteSpace=wrap;html=1;fontSize=17;fillColor=#d5e8d4;strokeColor=#82b366;" vertex="1" parent="_-Dv0ZLfTRlC5KwN9eCK-1">
          <mxGeometry x="551" y="1330" width="45" height="53" as="geometry" />
        </mxCell>
        <mxCell id="_-Dv0ZLfTRlC5KwN9eCK-60" value="" style="endArrow=none;html=1;fontSize=17;entryX=0;entryY=0.5;entryDx=0;entryDy=0;" edge="1" target="_-Dv0ZLfTRlC5KwN9eCK-57" parent="_-Dv0ZLfTRlC5KwN9eCK-1">
          <mxGeometry width="50" height="50" relative="1" as="geometry">
            <mxPoint x="189" y="1277" as="sourcePoint" />
            <mxPoint x="342" y="1428" as="targetPoint" />
          </mxGeometry>
        </mxCell>
        <mxCell id="_-Dv0ZLfTRlC5KwN9eCK-61" value="" style="endArrow=none;html=1;fontSize=17;entryX=0;entryY=0.5;entryDx=0;entryDy=0;" edge="1" parent="_-Dv0ZLfTRlC5KwN9eCK-1" target="_-Dv0ZLfTRlC5KwN9eCK-57">
          <mxGeometry width="50" height="50" relative="1" as="geometry">
            <mxPoint x="190" y="1351" as="sourcePoint" />
            <mxPoint x="345" y="1279" as="targetPoint" />
          </mxGeometry>
        </mxCell>
        <mxCell id="_-Dv0ZLfTRlC5KwN9eCK-62" value="" style="endArrow=none;html=1;fontSize=17;entryX=0;entryY=0.5;entryDx=0;entryDy=0;" edge="1" target="_-Dv0ZLfTRlC5KwN9eCK-56" parent="_-Dv0ZLfTRlC5KwN9eCK-1">
          <mxGeometry width="50" height="50" relative="1" as="geometry">
            <mxPoint x="189" y="1277" as="sourcePoint" />
            <mxPoint x="342" y="1199" as="targetPoint" />
          </mxGeometry>
        </mxCell>
        <mxCell id="_-Dv0ZLfTRlC5KwN9eCK-63" value="" style="endArrow=none;html=1;fontSize=17;entryX=0;entryY=0.5;entryDx=0;entryDy=0;" edge="1" target="_-Dv0ZLfTRlC5KwN9eCK-56" parent="_-Dv0ZLfTRlC5KwN9eCK-1">
          <mxGeometry width="50" height="50" relative="1" as="geometry">
            <mxPoint x="190" y="1351" as="sourcePoint" />
            <mxPoint x="345" y="1203" as="targetPoint" />
          </mxGeometry>
        </mxCell>
        <mxCell id="_-Dv0ZLfTRlC5KwN9eCK-64" value="" style="endArrow=none;html=1;fontSize=17;exitX=1;exitY=0.5;exitDx=0;exitDy=0;entryX=0;entryY=0.5;entryDx=0;entryDy=0;" edge="1" source="_-Dv0ZLfTRlC5KwN9eCK-56" target="_-Dv0ZLfTRlC5KwN9eCK-54" parent="_-Dv0ZLfTRlC5KwN9eCK-1">
          <mxGeometry width="50" height="50" relative="1" as="geometry">
            <mxPoint x="387" y="1542" as="sourcePoint" />
            <mxPoint x="550" y="1266" as="targetPoint" />
          </mxGeometry>
        </mxCell>
        <mxCell id="_-Dv0ZLfTRlC5KwN9eCK-65" value="" style="endArrow=none;html=1;fontSize=17;exitX=1;exitY=0.5;exitDx=0;exitDy=0;entryX=0;entryY=0.5;entryDx=0;entryDy=0;" edge="1" source="_-Dv0ZLfTRlC5KwN9eCK-57" target="_-Dv0ZLfTRlC5KwN9eCK-54" parent="_-Dv0ZLfTRlC5KwN9eCK-1">
          <mxGeometry width="50" height="50" relative="1" as="geometry">
            <mxPoint x="387" y="1542" as="sourcePoint" />
            <mxPoint x="550" y="1266" as="targetPoint" />
          </mxGeometry>
        </mxCell>
        <mxCell id="_-Dv0ZLfTRlC5KwN9eCK-66" value="" style="endArrow=none;html=1;fontSize=17;exitX=1;exitY=0.5;exitDx=0;exitDy=0;entryX=0;entryY=0.5;entryDx=0;entryDy=0;" edge="1" parent="_-Dv0ZLfTRlC5KwN9eCK-1" source="_-Dv0ZLfTRlC5KwN9eCK-57" target="_-Dv0ZLfTRlC5KwN9eCK-59">
          <mxGeometry width="50" height="50" relative="1" as="geometry">
            <mxPoint x="387" y="1542" as="sourcePoint" />
            <mxPoint x="550" y="1266" as="targetPoint" />
          </mxGeometry>
        </mxCell>
        <mxCell id="_-Dv0ZLfTRlC5KwN9eCK-67" value="" style="endArrow=none;html=1;fontSize=17;exitX=1;exitY=0.5;exitDx=0;exitDy=0;entryX=0;entryY=0.5;entryDx=0;entryDy=0;" edge="1" parent="_-Dv0ZLfTRlC5KwN9eCK-1" source="_-Dv0ZLfTRlC5KwN9eCK-56" target="_-Dv0ZLfTRlC5KwN9eCK-59">
          <mxGeometry width="50" height="50" relative="1" as="geometry">
            <mxPoint x="387" y="1542" as="sourcePoint" />
            <mxPoint x="550" y="1266" as="targetPoint" />
          </mxGeometry>
        </mxCell>
      </root>
    </mxGraphModel>
  </diagram>
  <diagram id="WzVFjEF0Mu5Y9PJq_H_D" name="第 5 页">
    <mxGraphModel dx="2066" dy="1097" grid="0" gridSize="10" guides="1" tooltips="1" connect="1" arrows="1" fold="1" page="1" pageScale="1" pageWidth="827" pageHeight="1169" math="0" shadow="0">
      <root>
        <mxCell id="iPg6XSxxFUmYr636jRGu-0" />
        <mxCell id="iPg6XSxxFUmYr636jRGu-1" parent="iPg6XSxxFUmYr636jRGu-0" />
        <mxCell id="iPg6XSxxFUmYr636jRGu-4" style="rounded=0;orthogonalLoop=1;jettySize=auto;html=1;exitX=1;exitY=0.5;exitDx=0;exitDy=0;endArrow=none;endFill=0;entryX=0;entryY=0.5;entryDx=0;entryDy=0;" edge="1" parent="iPg6XSxxFUmYr636jRGu-1" source="iPg6XSxxFUmYr636jRGu-11" target="iPg6XSxxFUmYr636jRGu-10">
          <mxGeometry relative="1" as="geometry">
            <mxPoint x="378" y="520" as="targetPoint" />
            <mxPoint x="232" y="649" as="sourcePoint" />
          </mxGeometry>
        </mxCell>
        <mxCell id="iPg6XSxxFUmYr636jRGu-7" style="edgeStyle=none;rounded=0;orthogonalLoop=1;jettySize=auto;html=1;exitX=1;exitY=0.5;exitDx=0;exitDy=0;entryX=0.5;entryY=0;entryDx=0;entryDy=0;endArrow=none;endFill=0;" edge="1" parent="iPg6XSxxFUmYr636jRGu-1" target="iPg6XSxxFUmYr636jRGu-10">
          <mxGeometry relative="1" as="geometry">
            <mxPoint x="432" y="435" as="sourcePoint" />
            <mxPoint x="592" y="564" as="targetPoint" />
          </mxGeometry>
        </mxCell>
        <mxCell id="iPg6XSxxFUmYr636jRGu-10" value="" style="shape=image;verticalLabelPosition=bottom;labelBackgroundColor=#ffffff;verticalAlign=top;aspect=fixed;imageAspect=0;image=data:image/svg+xml,PHN2ZyB4bWxucz0iaHR0cDovL3d3dy53My5vcmcvMjAwMC9zdmciIHhtbG5zOnhsaW5rPSJodHRwOi8vd3d3LnczLm9yZy8xOTk5L3hsaW5rIiB0PSIxNjMyNDcyMzEzNTYyIiBjbGFzcz0iaWNvbiIgdmlld0JveD0iMjI5LjQzMDAwNzkzNDU3MDMgMjU3LjQ2NjU4MzI1MTk1MzEgNjE1LjQ4MDA0MTUwMzkwNjIgNTY3LjM4MzU0NDkyMTg3NSIgdmVyc2lvbj0iMS4xIiBwLWlkPSIyMDA0IiB3aWR0aD0iNjE1LjQ4MDA0MTUwMzkwNjIiIGhlaWdodD0iNTY3LjM4MzU0NDkyMTg3NSI+PGRlZnM+PHN0eWxlIHR5cGU9InRleHQvY3NzIi8+PC9kZWZzPjxwYXRoIGQ9Ik04NDQuOTEgNjMyLjYzYzAtMS4zMyAwLTIuNjctMC4zMi0zLjY3TDc5MS41IDMwNC4yYy0yLTEyLjM1LTcuNjctMjQuMzctMTUuNjktMzIuMzhhNDcuNzc4IDQ3Ljc3OCAwIDAgMC0zNC43MS0xNC4zNUgzMzMuNTdjLTEzLjQ3IDAuMDMtMjYuNCA1LjI5LTM2LjA1IDE0LjY5YTUxLjA5NiA1MS4wOTYgMCAwIDAtMTQuMzUgMzQuMzhMMjMwLjEgNjI2Ljk1Yy0wLjMzIDIuMzQtMC42NyA0LjAxLTAuNjcgNi4wMXYxMzYuODVjMS42NyAyNC42OSAxNy4zNiA0Ni4wNiA0My4wNiA1Mi43NGwwLjMzIDAuMzNoMS4zNGwwLjY3IDAuMzIgMC42NiAwLjM1aDAuNjdsMC4zMyAwLjMyaDFsMy42NyAwLjMzIDEuNjcgMC4zM2gwLjY3bDAuNjcgMC4zMmg1MDRjMzEuMzcgMCA1Ni43My0yNS42OSA1Ni43My01Ny4wN2wwLjAxLTEzNS4xNXpNMzE5LjIyIDI5OC44NmMwLjMzLTEuMzMgMC4zMy0yLjY3IDAuMzMtNC4wMSAwLTEgMC4zMy0xLjY3IDEtMi4zNCAwLjY3LTAuNjcgMS42Ny0xLjMzIDIuNjctMS4zM2g0MzAuOWMwLjMzIDAgMC42NiAwIDEuMDEgMC42NiAxLjY3IDEuNjcgMi42NyA0LjAxIDIuOTkgNy4wMWw0NC4wNyAyOTEuODhjLTEuNjctMC4zMy0zLjAxLTAuMzMtNC4zNC0wLjMzSDI4My4xN2MtMS4zMyAwLTMgMC00LjM0IDAuMzNsNDAuMzktMjkxLjg3eiBtNDkxLjk3IDQ3NC45NmMwIDUuMzUtNC4zMyA5LjY4LTkuNjggOS42OUgyNzIuNDljLTQuNjctMC4zNC04LjY4LTMuMzQtOS4zNS04LjM1di0wLjMyaC0wLjMzdi0xNDAuMmMwLjMtNS4yOSA0LjcxLTkuNDEgMTAuMDEtOS4zNWg1MjguMzZhOC40MjcgOC40MjcgMCAwIDEgNi42NyAzLjAxYzEuNjYgMS42NyAzIDQuMDIgMyA2LjM0djEzOS4xOGgwLjM0eiBtMCAwIiBwLWlkPSIyMDA1Ii8+PHBhdGggZD0iTTcxMy45OSA3MTMuMDdoNjJ2MzEuNzFoLTYydi0zMS43MXogbTAtNDkuMDdoNjJ2MzEuNzJoLTYyVjY2NHogbS0xMDMuNzIgNDkuMDdoNjJ2MzEuNzFoLTYydi0zMS43MXogbTAtNDkuMDdoNjJ2MzEuNzJoLTYyVjY2NHogbS0xMDguMDIgNDkuMDdoNjIuMDF2MzEuNzFoLTYyLjAxdi0zMS43MXogbTAtNDkuMDdoNjIuMDF2MzEuNzJoLTYyLjAxVjY2NHogbS0xMDMuNzIgNDkuMDdoNjJ2MzEuNzFoLTYydi0zMS43MXogbTAtNDkuMDdoNjJ2MzEuNzJoLTYyVjY2NHogbTg1LjU3LTEyNy41YzUuMzQgMCAxMC42OC05LjY4IDE0LjAyLTE0LjAybDI4LjM3LTQyLjM5LTI4LjM3LTI4LjM3LTI4LjA0IDQyLjM5aC01Ni40MWMtMTAuMDEgMC0xNC4wMiA5LjY4LTE0LjAyIDIwLjAzIDAgMTAuMzQgNC4wMSAyMi4zNiAxNC4wMiAyMi4zNmg3MC40M3ogbTAgMCIgcC1pZD0iMjAwNiIvPjxwYXRoIGQ9Ik02NjcuNjcgNDk0LjExaC03MC40M2wtOTguOC0xNDEuMTljLTMuMzQtMC4zMy04LjY4IDAtMTQuMDIgMGgtNTYuNzR2LTI4LjM3bC01Ni40MSA1Ni43NCA1Ni40MSA0Mi4zOXYtMjguMzdoNTUuNDFsODUuNzggMTI3LjE3YzMuMzMgNC4zNCA4LjY4IDE0LjAyIDE0LjAyIDE0LjAyaDgwLjQ0YzEwLjAyIDAgMTguMzYtOC42OCAxOC4zNi0xOS4zNiAwLjM1LTEwLjY4LTMuNjctMjMuMDMtMTQuMDItMjMuMDN6IG0wIDAiIHAtaWQ9IjIwMDciLz48cGF0aCBkPSJNNjUzLjY2IDM1Mi45M2gtNTYuNDFjLTUuNjggMC0xOC4zNiA2LjAxLTIyLjAyIDEwLjM1bC0zNC43MiAzMi4wNCAyOC4zNyAyOC4zNyAyOC4zNy0yOC4zN2g1Ni40MXYyOC4zN2w1Ni40MS00Mi4zOS01Ni40MS01Ni40MXYyOC4wNHpNMzExLjYxIDcwMC43MmMwIDExLjUyIDkuMzQgMjAuODYgMjAuODYgMjAuODZzMjAuODYtOS4zNCAyMC44Ni0yMC44Ni05LjM0LTIwLjg2LTIwLjg2LTIwLjg2LTIwLjg2IDkuMzQtMjAuODYgMjAuODZ6IG0wIDAiIHAtaWQ9IjIwMDgiLz48L3N2Zz4=;" vertex="1" parent="iPg6XSxxFUmYr636jRGu-1">
          <mxGeometry x="387" y="552" width="94.44" height="87" as="geometry" />
        </mxCell>
        <mxCell id="iPg6XSxxFUmYr636jRGu-11" value="" style="shape=image;verticalLabelPosition=bottom;labelBackgroundColor=#ffffff;verticalAlign=top;aspect=fixed;imageAspect=0;image=data:image/svg+xml,PHN2ZyB4bWxucz0iaHR0cDovL3d3dy53My5vcmcvMjAwMC9zdmciIHhtbG5zOnhsaW5rPSJodHRwOi8vd3d3LnczLm9yZy8xOTk5L3hsaW5rIiB0PSIxNjMyNDcyMzY5NDM0IiBjbGFzcz0iaWNvbiIgdmlld0JveD0iMTcwLjY2NjY3MTc1MjkyOTcgMjEzLjMzMzMyODI0NzA3MDMgNjgyLjY2NjY4NzAxMTcxODggNTk3LjMzMzM3NDAyMzQzNzUiIHZlcnNpb249IjEuMSIgcC1pZD0iMzgzMyIgd2lkdGg9IjY4Mi42NjY2ODcwMTE3MTg4IiBoZWlnaHQ9IjU5Ny4zMzMzNzQwMjM0Mzc1Ij48ZGVmcz48c3R5bGUgdHlwZT0idGV4dC9jc3MiLz48L2RlZnM+PHBhdGggZD0iTTU1NC42NjY2NjcgNjgyLjY2NjY2N3Y0Mi42NjY2NjZoODUuMzMzMzMzdjg1LjMzMzMzNEgzODR2LTg1LjMzMzMzNGg4NS4zMzMzMzN2LTQyLjY2NjY2NkgxNzAuNjY2NjY3VjIxMy4zMzMzMzNoNjgyLjY2NjY2NnY0NjkuMzMzMzM0aC0yOTguNjY2NjY2eiBtMC04NS4zMzMzMzRoMjEzLjMzMzMzM1YyOTguNjY2NjY3SDI1NnYyOTguNjY2NjY2aDI5OC42NjY2Njd6IiBmaWxsPSIjNDQ0NDQ0IiBwLWlkPSIzODM0Ii8+PC9zdmc+;" vertex="1" parent="iPg6XSxxFUmYr636jRGu-1">
          <mxGeometry x="145" y="573" width="89.14" height="78" as="geometry" />
        </mxCell>
        <mxCell id="iPg6XSxxFUmYr636jRGu-12" value="" style="shape=image;verticalLabelPosition=bottom;labelBackgroundColor=#ffffff;verticalAlign=top;aspect=fixed;imageAspect=0;image=data:image/svg+xml,PHN2ZyB4bWxucz0iaHR0cDovL3d3dy53My5vcmcvMjAwMC9zdmciIHhtbG5zOnhsaW5rPSJodHRwOi8vd3d3LnczLm9yZy8xOTk5L3hsaW5rIiB0PSIxNjMyNDcyMzY5NDM0IiBjbGFzcz0iaWNvbiIgdmlld0JveD0iMTcwLjY2NjY3MTc1MjkyOTcgMjEzLjMzMzMyODI0NzA3MDMgNjgyLjY2NjY4NzAxMTcxODggNTk3LjMzMzM3NDAyMzQzNzUiIHZlcnNpb249IjEuMSIgcC1pZD0iMzgzMyIgd2lkdGg9IjY4Mi42NjY2ODcwMTE3MTg4IiBoZWlnaHQ9IjU5Ny4zMzMzNzQwMjM0Mzc1Ij48ZGVmcz48c3R5bGUgdHlwZT0idGV4dC9jc3MiLz48L2RlZnM+PHBhdGggZD0iTTU1NC42NjY2NjcgNjgyLjY2NjY2N3Y0Mi42NjY2NjZoODUuMzMzMzMzdjg1LjMzMzMzNEgzODR2LTg1LjMzMzMzNGg4NS4zMzMzMzN2LTQyLjY2NjY2NkgxNzAuNjY2NjY3VjIxMy4zMzMzMzNoNjgyLjY2NjY2NnY0NjkuMzMzMzM0aC0yOTguNjY2NjY2eiBtMC04NS4zMzMzMzRoMjEzLjMzMzMzM1YyOTguNjY2NjY3SDI1NnYyOTguNjY2NjY2aDI5OC42NjY2Njd6IiBmaWxsPSIjNDQ0NDQ0IiBwLWlkPSIzODM0Ii8+PC9zdmc+;" vertex="1" parent="iPg6XSxxFUmYr636jRGu-1">
          <mxGeometry x="390" y="360" width="89.14" height="78" as="geometry" />
        </mxCell>
        <mxCell id="iPg6XSxxFUmYr636jRGu-13" value="" style="shape=image;verticalLabelPosition=bottom;labelBackgroundColor=#ffffff;verticalAlign=top;aspect=fixed;imageAspect=0;image=data:image/svg+xml,PHN2ZyB4bWxucz0iaHR0cDovL3d3dy53My5vcmcvMjAwMC9zdmciIHhtbG5zOnhsaW5rPSJodHRwOi8vd3d3LnczLm9yZy8xOTk5L3hsaW5rIiB0PSIxNjMyNDcyMzY5NDM0IiBjbGFzcz0iaWNvbiIgdmlld0JveD0iMTcwLjY2NjY3MTc1MjkyOTcgMjEzLjMzMzMyODI0NzA3MDMgNjgyLjY2NjY4NzAxMTcxODggNTk3LjMzMzM3NDAyMzQzNzUiIHZlcnNpb249IjEuMSIgcC1pZD0iMzgzMyIgd2lkdGg9IjY4Mi42NjY2ODcwMTE3MTg4IiBoZWlnaHQ9IjU5Ny4zMzMzNzQwMjM0Mzc1Ij48ZGVmcz48c3R5bGUgdHlwZT0idGV4dC9jc3MiLz48L2RlZnM+PHBhdGggZD0iTTU1NC42NjY2NjcgNjgyLjY2NjY2N3Y0Mi42NjY2NjZoODUuMzMzMzMzdjg1LjMzMzMzNEgzODR2LTg1LjMzMzMzNGg4NS4zMzMzMzN2LTQyLjY2NjY2NkgxNzAuNjY2NjY3VjIxMy4zMzMzMzNoNjgyLjY2NjY2NnY0NjkuMzMzMzM0aC0yOTguNjY2NjY2eiBtMC04NS4zMzMzMzRoMjEzLjMzMzMzM1YyOTguNjY2NjY3SDI1NnYyOTguNjY2NjY2aDI5OC42NjY2Njd6IiBmaWxsPSIjNDQ0NDQ0IiBwLWlkPSIzODM0Ii8+PC9zdmc+;" vertex="1" parent="iPg6XSxxFUmYr636jRGu-1">
          <mxGeometry x="649" y="549" width="89.14" height="78" as="geometry" />
        </mxCell>
        <mxCell id="iPg6XSxxFUmYr636jRGu-15" style="edgeStyle=none;rounded=0;orthogonalLoop=1;jettySize=auto;html=1;entryX=1;entryY=0.5;entryDx=0;entryDy=0;endArrow=none;endFill=0;" edge="1" parent="iPg6XSxxFUmYr636jRGu-1" target="iPg6XSxxFUmYr636jRGu-10">
          <mxGeometry relative="1" as="geometry">
            <mxPoint x="648" y="585" as="sourcePoint" />
            <mxPoint x="422.2800000000002" y="552" as="targetPoint" />
          </mxGeometry>
        </mxCell>
        <mxCell id="iPg6XSxxFUmYr636jRGu-16" value="Text" style="text;html=1;strokeColor=none;fillColor=none;align=center;verticalAlign=middle;whiteSpace=wrap;rounded=0;" vertex="1" parent="iPg6XSxxFUmYr636jRGu-1">
          <mxGeometry x="392" y="542" width="40" height="20" as="geometry" />
        </mxCell>
        <mxCell id="iPg6XSxxFUmYr636jRGu-17" value="Text" style="text;html=1;strokeColor=none;fillColor=none;align=center;verticalAlign=middle;whiteSpace=wrap;rounded=0;" vertex="1" parent="iPg6XSxxFUmYr636jRGu-1">
          <mxGeometry x="392" y="542" width="40" height="20" as="geometry" />
        </mxCell>
        <mxCell id="iPg6XSxxFUmYr636jRGu-18" value="&lt;font style=&quot;font-size: 16px&quot;&gt;客户端&lt;br&gt;192.168.120.1&lt;/font&gt;" style="text;html=1;strokeColor=none;fillColor=none;align=center;verticalAlign=middle;whiteSpace=wrap;rounded=0;" vertex="1" parent="iPg6XSxxFUmYr636jRGu-1">
          <mxGeometry x="112" y="659" width="165" height="42" as="geometry" />
        </mxCell>
        <mxCell id="iPg6XSxxFUmYr636jRGu-19" value="&lt;font style=&quot;font-size: 16px&quot;&gt;nginx&lt;br&gt;ens33: 192.168.120.2&lt;/font&gt;" style="text;html=1;strokeColor=none;fillColor=none;align=center;verticalAlign=middle;whiteSpace=wrap;rounded=0;" vertex="1" parent="iPg6XSxxFUmYr636jRGu-1">
          <mxGeometry x="355" y="306" width="165" height="42" as="geometry" />
        </mxCell>
        <mxCell id="iPg6XSxxFUmYr636jRGu-20" value="&lt;font style=&quot;font-size: 16px&quot;&gt;server1端口: 15010&lt;br&gt;server2端口: 15011&lt;br&gt;ens33: 192.168.120.5&lt;/font&gt;" style="text;html=1;strokeColor=none;fillColor=none;align=center;verticalAlign=middle;whiteSpace=wrap;rounded=0;" vertex="1" parent="iPg6XSxxFUmYr636jRGu-1">
          <mxGeometry x="611.07" y="639" width="165" height="56" as="geometry" />
        </mxCell>
        <mxCell id="iPg6XSxxFUmYr636jRGu-21" value="&lt;font style=&quot;font-size: 26px&quot;&gt;H1&lt;/font&gt;" style="text;html=1;strokeColor=none;fillColor=none;align=center;verticalAlign=middle;whiteSpace=wrap;rounded=0;" vertex="1" parent="iPg6XSxxFUmYr636jRGu-1">
          <mxGeometry x="169.57" y="592" width="40" height="20" as="geometry" />
        </mxCell>
        <mxCell id="iPg6XSxxFUmYr636jRGu-23" value="&lt;font style=&quot;font-size: 26px&quot;&gt;H2&lt;/font&gt;" style="text;html=1;strokeColor=none;fillColor=none;align=center;verticalAlign=middle;whiteSpace=wrap;rounded=0;" vertex="1" parent="iPg6XSxxFUmYr636jRGu-1">
          <mxGeometry x="414.57" y="382" width="40" height="20" as="geometry" />
        </mxCell>
        <mxCell id="iPg6XSxxFUmYr636jRGu-24" value="&lt;font style=&quot;font-size: 26px&quot;&gt;H3&lt;/font&gt;" style="text;html=1;strokeColor=none;fillColor=none;align=center;verticalAlign=middle;whiteSpace=wrap;rounded=0;" vertex="1" parent="iPg6XSxxFUmYr636jRGu-1">
          <mxGeometry x="673.5699999999999" y="568" width="40" height="20" as="geometry" />
        </mxCell>
      </root>
    </mxGraphModel>
  </diagram>
  <diagram id="CSSMXn0Q5wJbdZCOGgvG" name="第 6 页">
    <mxGraphModel dx="2066" dy="1154" grid="0" gridSize="10" guides="1" tooltips="1" connect="1" arrows="1" fold="1" page="1" pageScale="1" pageWidth="827" pageHeight="1169" math="0" shadow="0">
      <root>
        <mxCell id="KDz1Y3209KSH9sLMbnpr-0" />
        <mxCell id="KDz1Y3209KSH9sLMbnpr-1" parent="KDz1Y3209KSH9sLMbnpr-0" />
        <mxCell id="KDz1Y3209KSH9sLMbnpr-9" value="" style="rounded=0;whiteSpace=wrap;html=1;rotation=0;strokeWidth=2;fontSize=23;" parent="KDz1Y3209KSH9sLMbnpr-1" vertex="1">
          <mxGeometry x="620" y="220" width="160" height="290" as="geometry" />
        </mxCell>
        <mxCell id="KDz1Y3209KSH9sLMbnpr-10" style="rounded=0;orthogonalLoop=1;jettySize=auto;html=1;exitX=1;exitY=0.5;exitDx=0;exitDy=0;entryX=0;entryY=0.5;entryDx=0;entryDy=0;fontSize=23;startArrow=classic;startFill=1;endArrow=classic;endFill=1;" parent="KDz1Y3209KSH9sLMbnpr-1" source="KDz1Y3209KSH9sLMbnpr-2" target="KDz1Y3209KSH9sLMbnpr-5" edge="1">
          <mxGeometry relative="1" as="geometry" />
        </mxCell>
        <mxCell id="KDz1Y3209KSH9sLMbnpr-2" value="client" style="rounded=0;whiteSpace=wrap;html=1;rotation=0;strokeWidth=2;fontSize=23;" parent="KDz1Y3209KSH9sLMbnpr-1" vertex="1">
          <mxGeometry x="60" y="240" width="120" height="60" as="geometry" />
        </mxCell>
        <mxCell id="KDz1Y3209KSH9sLMbnpr-3" value="client" style="rounded=0;whiteSpace=wrap;html=1;rotation=0;strokeWidth=2;fontSize=23;" parent="KDz1Y3209KSH9sLMbnpr-1" vertex="1">
          <mxGeometry x="60" y="340" width="120" height="60" as="geometry" />
        </mxCell>
        <mxCell id="KDz1Y3209KSH9sLMbnpr-4" value="client" style="rounded=0;whiteSpace=wrap;html=1;rotation=0;strokeWidth=2;fontSize=23;" parent="KDz1Y3209KSH9sLMbnpr-1" vertex="1">
          <mxGeometry x="60" y="440" width="120" height="60" as="geometry" />
        </mxCell>
        <mxCell id="KDz1Y3209KSH9sLMbnpr-5" value="nginx" style="rounded=0;whiteSpace=wrap;html=1;rotation=0;strokeWidth=2;fontSize=23;" parent="KDz1Y3209KSH9sLMbnpr-1" vertex="1">
          <mxGeometry x="350" y="340" width="120" height="60" as="geometry" />
        </mxCell>
        <mxCell id="KDz1Y3209KSH9sLMbnpr-6" value="server" style="rounded=0;whiteSpace=wrap;html=1;rotation=0;strokeWidth=2;fontSize=23;dashed=1;" parent="KDz1Y3209KSH9sLMbnpr-1" vertex="1">
          <mxGeometry x="640" y="250" width="120" height="50" as="geometry" />
        </mxCell>
        <mxCell id="KDz1Y3209KSH9sLMbnpr-7" value="server" style="rounded=0;whiteSpace=wrap;html=1;rotation=0;strokeWidth=2;fontSize=23;dashed=1;" parent="KDz1Y3209KSH9sLMbnpr-1" vertex="1">
          <mxGeometry x="640" y="340" width="120" height="50" as="geometry" />
        </mxCell>
        <mxCell id="KDz1Y3209KSH9sLMbnpr-8" value="server" style="rounded=0;whiteSpace=wrap;html=1;rotation=0;strokeWidth=2;fontSize=23;dashed=1;" parent="KDz1Y3209KSH9sLMbnpr-1" vertex="1">
          <mxGeometry x="640" y="430" width="120" height="50" as="geometry" />
        </mxCell>
        <mxCell id="KDz1Y3209KSH9sLMbnpr-13" style="rounded=0;orthogonalLoop=1;jettySize=auto;html=1;exitX=1;exitY=0.617;exitDx=0;exitDy=0;entryX=0;entryY=0.5;entryDx=0;entryDy=0;fontSize=23;startArrow=classic;startFill=1;endArrow=classic;endFill=1;exitPerimeter=0;" parent="KDz1Y3209KSH9sLMbnpr-1" source="KDz1Y3209KSH9sLMbnpr-3" target="KDz1Y3209KSH9sLMbnpr-5" edge="1">
          <mxGeometry relative="1" as="geometry">
            <mxPoint x="190" y="280" as="sourcePoint" />
            <mxPoint x="360" y="380" as="targetPoint" />
          </mxGeometry>
        </mxCell>
        <mxCell id="KDz1Y3209KSH9sLMbnpr-14" style="rounded=0;orthogonalLoop=1;jettySize=auto;html=1;exitX=1;exitY=0.5;exitDx=0;exitDy=0;entryX=0;entryY=0.5;entryDx=0;entryDy=0;fontSize=23;startArrow=classic;startFill=1;endArrow=classic;endFill=1;" parent="KDz1Y3209KSH9sLMbnpr-1" source="KDz1Y3209KSH9sLMbnpr-4" target="KDz1Y3209KSH9sLMbnpr-5" edge="1">
          <mxGeometry relative="1" as="geometry">
            <mxPoint x="200" y="290" as="sourcePoint" />
            <mxPoint x="370" y="390" as="targetPoint" />
          </mxGeometry>
        </mxCell>
        <mxCell id="KDz1Y3209KSH9sLMbnpr-15" style="rounded=0;orthogonalLoop=1;jettySize=auto;html=1;exitX=1;exitY=0.5;exitDx=0;exitDy=0;entryX=-0.006;entryY=0.528;entryDx=0;entryDy=0;fontSize=23;startArrow=classic;startFill=1;endArrow=classic;endFill=1;entryPerimeter=0;" parent="KDz1Y3209KSH9sLMbnpr-1" source="KDz1Y3209KSH9sLMbnpr-5" target="KDz1Y3209KSH9sLMbnpr-9" edge="1">
          <mxGeometry relative="1" as="geometry">
            <mxPoint x="210" y="300" as="sourcePoint" />
            <mxPoint x="380" y="400" as="targetPoint" />
          </mxGeometry>
        </mxCell>
        <mxCell id="WCs2If-HIDXIUZgzcTqv-12" value="client" style="rounded=0;whiteSpace=wrap;html=1;rotation=0;strokeWidth=2;fontSize=23;" vertex="1" parent="KDz1Y3209KSH9sLMbnpr-1">
          <mxGeometry x="48" y="833" width="120" height="60" as="geometry" />
        </mxCell>
        <mxCell id="WCs2If-HIDXIUZgzcTqv-13" value="nginx" style="rounded=0;whiteSpace=wrap;html=1;rotation=0;strokeWidth=2;fontSize=23;" vertex="1" parent="KDz1Y3209KSH9sLMbnpr-1">
          <mxGeometry x="338" y="838" width="120" height="60" as="geometry" />
        </mxCell>
        <mxCell id="WCs2If-HIDXIUZgzcTqv-14" value="server" style="rounded=0;whiteSpace=wrap;html=1;rotation=0;strokeWidth=2;fontSize=23;" vertex="1" parent="KDz1Y3209KSH9sLMbnpr-1">
          <mxGeometry x="628" y="843" width="120" height="50" as="geometry" />
        </mxCell>
        <mxCell id="WCs2If-HIDXIUZgzcTqv-15" style="rounded=0;orthogonalLoop=1;jettySize=auto;html=1;exitX=1;exitY=0.617;exitDx=0;exitDy=0;entryX=0;entryY=0.5;entryDx=0;entryDy=0;fontSize=23;startArrow=classic;startFill=1;endArrow=classic;endFill=1;exitPerimeter=0;" edge="1" source="WCs2If-HIDXIUZgzcTqv-12" target="WCs2If-HIDXIUZgzcTqv-13" parent="KDz1Y3209KSH9sLMbnpr-1">
          <mxGeometry relative="1" as="geometry">
            <mxPoint x="178" y="778" as="sourcePoint" />
            <mxPoint x="348" y="878" as="targetPoint" />
          </mxGeometry>
        </mxCell>
        <mxCell id="WCs2If-HIDXIUZgzcTqv-16" style="rounded=0;orthogonalLoop=1;jettySize=auto;html=1;exitX=1;exitY=0.5;exitDx=0;exitDy=0;entryX=0;entryY=0.5;entryDx=0;entryDy=0;fontSize=23;startArrow=classic;startFill=1;endArrow=classic;endFill=1;" edge="1" source="WCs2If-HIDXIUZgzcTqv-13" target="WCs2If-HIDXIUZgzcTqv-14" parent="KDz1Y3209KSH9sLMbnpr-1">
          <mxGeometry relative="1" as="geometry">
            <mxPoint x="198" y="798" as="sourcePoint" />
            <mxPoint x="607.04" y="871.1199999999999" as="targetPoint" />
          </mxGeometry>
        </mxCell>
        <mxCell id="WCs2If-HIDXIUZgzcTqv-17" value="&lt;font style=&quot;font-size: 18px&quot; color=&quot;#ff3333&quot;&gt;带宽？&lt;/font&gt;" style="text;html=1;strokeColor=none;fillColor=none;align=center;verticalAlign=middle;whiteSpace=wrap;rounded=0;" vertex="1" parent="KDz1Y3209KSH9sLMbnpr-1">
          <mxGeometry x="214" y="881" width="60" height="30" as="geometry" />
        </mxCell>
        <mxCell id="WCs2If-HIDXIUZgzcTqv-18" value="&lt;font style=&quot;font-size: 18px&quot; color=&quot;#ff3333&quot;&gt;带宽？&lt;/font&gt;" style="text;html=1;strokeColor=none;fillColor=none;align=center;verticalAlign=middle;whiteSpace=wrap;rounded=0;" vertex="1" parent="KDz1Y3209KSH9sLMbnpr-1">
          <mxGeometry x="524" y="881" width="60" height="30" as="geometry" />
        </mxCell>
        <mxCell id="1R6MDpHoZ7_VDDEr34g6-0" value="client" style="rounded=0;whiteSpace=wrap;html=1;rotation=0;strokeWidth=2;fontSize=23;" vertex="1" parent="KDz1Y3209KSH9sLMbnpr-1">
          <mxGeometry x="43" y="645" width="120" height="60" as="geometry" />
        </mxCell>
        <mxCell id="1R6MDpHoZ7_VDDEr34g6-1" value="nginx" style="rounded=0;whiteSpace=wrap;html=1;rotation=0;strokeWidth=2;fontSize=23;" vertex="1" parent="KDz1Y3209KSH9sLMbnpr-1">
          <mxGeometry x="333" y="650" width="120" height="60" as="geometry" />
        </mxCell>
        <mxCell id="1R6MDpHoZ7_VDDEr34g6-2" value="server" style="rounded=0;whiteSpace=wrap;html=1;rotation=0;strokeWidth=2;fontSize=23;" vertex="1" parent="KDz1Y3209KSH9sLMbnpr-1">
          <mxGeometry x="623" y="655" width="120" height="50" as="geometry" />
        </mxCell>
        <mxCell id="1R6MDpHoZ7_VDDEr34g6-3" style="rounded=0;orthogonalLoop=1;jettySize=auto;html=1;exitX=1;exitY=0.617;exitDx=0;exitDy=0;entryX=0;entryY=0.5;entryDx=0;entryDy=0;fontSize=23;startArrow=classic;startFill=1;endArrow=classic;endFill=1;exitPerimeter=0;" edge="1" source="1R6MDpHoZ7_VDDEr34g6-0" target="1R6MDpHoZ7_VDDEr34g6-1" parent="KDz1Y3209KSH9sLMbnpr-1">
          <mxGeometry relative="1" as="geometry">
            <mxPoint x="173" y="590" as="sourcePoint" />
            <mxPoint x="343" y="690" as="targetPoint" />
          </mxGeometry>
        </mxCell>
        <mxCell id="1R6MDpHoZ7_VDDEr34g6-4" style="rounded=0;orthogonalLoop=1;jettySize=auto;html=1;exitX=1;exitY=0.5;exitDx=0;exitDy=0;entryX=0;entryY=0.5;entryDx=0;entryDy=0;fontSize=23;startArrow=classic;startFill=1;endArrow=classic;endFill=1;" edge="1" source="1R6MDpHoZ7_VDDEr34g6-1" target="1R6MDpHoZ7_VDDEr34g6-2" parent="KDz1Y3209KSH9sLMbnpr-1">
          <mxGeometry relative="1" as="geometry">
            <mxPoint x="193" y="610" as="sourcePoint" />
            <mxPoint x="602.04" y="683.1199999999999" as="targetPoint" />
          </mxGeometry>
        </mxCell>
      </root>
    </mxGraphModel>
  </diagram>
  <diagram id="meW35Qc-VivvLjF33PCl" name="第 7 页">
    <mxGraphModel dx="2066" dy="1154" grid="0" gridSize="10" guides="1" tooltips="1" connect="1" arrows="1" fold="1" page="1" pageScale="1" pageWidth="827" pageHeight="1169" math="0" shadow="0">
      <root>
        <mxCell id="Q5zS6b7_wfv7j0F1_cCl-0" />
        <mxCell id="Q5zS6b7_wfv7j0F1_cCl-1" parent="Q5zS6b7_wfv7j0F1_cCl-0" />
        <mxCell id="0R7qNHZLjylEhfbotdFQ-0" value="" style="rounded=0;whiteSpace=wrap;html=1;fontSize=18;fontColor=#FF3333;" vertex="1" parent="Q5zS6b7_wfv7j0F1_cCl-1">
          <mxGeometry x="123" y="130" width="26" height="184" as="geometry" />
        </mxCell>
        <mxCell id="0R7qNHZLjylEhfbotdFQ-1" value="" style="rounded=0;whiteSpace=wrap;html=1;fontSize=18;fontColor=#FF3333;" vertex="1" parent="Q5zS6b7_wfv7j0F1_cCl-1">
          <mxGeometry x="583" y="130" width="26" height="187" as="geometry" />
        </mxCell>
        <mxCell id="0R7qNHZLjylEhfbotdFQ-2" value="server&lt;br&gt;&lt;span style=&quot;font-size: 15px ; font-family: &amp;#34;arial&amp;#34; , &amp;#34;microsoft yahei&amp;#34; , , , &amp;#34;heiti&amp;#34; , sans-serif , &amp;#34;simsun&amp;#34; , , serif ; color: rgb(31 , 35 , 41) ; background-color: transparent ; vertical-align: baseline&quot; id=&quot;clipboard-source-id-prefix-%902a978514c-3279-19ca-cb3a-0bdf92589127&quot;&gt;10.62.156.19&lt;/span&gt;" style="text;html=1;strokeColor=none;fillColor=none;align=center;verticalAlign=middle;whiteSpace=wrap;rounded=0;fontSize=18;fontColor=#FF3333;" vertex="1" parent="Q5zS6b7_wfv7j0F1_cCl-1">
          <mxGeometry x="538" y="82" width="116" height="30" as="geometry" />
        </mxCell>
        <mxCell id="0R7qNHZLjylEhfbotdFQ-3" value="client&lt;br&gt;&lt;span style=&quot;font-size: 15px ; font-family: &amp;#34;arial&amp;#34; , &amp;#34;microsoft yahei&amp;#34; , , , &amp;#34;heiti&amp;#34; , sans-serif , &amp;#34;simsun&amp;#34; , , serif ; color: rgb(31 , 35 , 41) ; background-color: transparent ; vertical-align: baseline&quot; id=&quot;clipboard-source-id-prefix-%902a978514c-327a-2f1d-2214-df5923aa045b&quot;&gt;10.58.107.34&lt;/span&gt;" style="text;html=1;strokeColor=none;fillColor=none;align=center;verticalAlign=middle;whiteSpace=wrap;rounded=0;fontSize=18;fontColor=#FF3333;" vertex="1" parent="Q5zS6b7_wfv7j0F1_cCl-1">
          <mxGeometry x="78" y="84" width="116" height="30" as="geometry" />
        </mxCell>
        <mxCell id="0R7qNHZLjylEhfbotdFQ-4" value="" style="endArrow=classic;html=1;rounded=0;fontSize=18;fontColor=#FF3333;" edge="1" parent="Q5zS6b7_wfv7j0F1_cCl-1">
          <mxGeometry width="50" height="50" relative="1" as="geometry">
            <mxPoint x="152" y="163" as="sourcePoint" />
            <mxPoint x="580" y="163" as="targetPoint" />
          </mxGeometry>
        </mxCell>
        <mxCell id="0R7qNHZLjylEhfbotdFQ-5" value="&lt;font color=&quot;#000000&quot;&gt;95(ACK,HEADERS)&lt;/font&gt;" style="text;html=1;strokeColor=none;fillColor=none;align=center;verticalAlign=middle;whiteSpace=wrap;rounded=0;fontSize=18;fontColor=#FF3333;" vertex="1" parent="Q5zS6b7_wfv7j0F1_cCl-1">
          <mxGeometry x="332" y="143" width="60" height="2" as="geometry" />
        </mxCell>
        <mxCell id="0R7qNHZLjylEhfbotdFQ-7" value="" style="endArrow=classic;html=1;rounded=0;fontSize=18;fontColor=#000000;" edge="1" parent="Q5zS6b7_wfv7j0F1_cCl-1">
          <mxGeometry width="50" height="50" relative="1" as="geometry">
            <mxPoint x="576" y="207" as="sourcePoint" />
            <mxPoint x="151" y="207" as="targetPoint" />
          </mxGeometry>
        </mxCell>
        <mxCell id="0R7qNHZLjylEhfbotdFQ-8" value="&lt;font color=&quot;#000000&quot;&gt;1204(HEADERS,DATA),67(ACK)&lt;/font&gt;" style="text;html=1;strokeColor=none;fillColor=none;align=center;verticalAlign=middle;whiteSpace=wrap;rounded=0;fontSize=18;fontColor=#FF3333;" vertex="1" parent="Q5zS6b7_wfv7j0F1_cCl-1">
          <mxGeometry x="330" y="194" width="60" height="2" as="geometry" />
        </mxCell>
        <mxCell id="0R7qNHZLjylEhfbotdFQ-15" value="" style="rounded=0;whiteSpace=wrap;html=1;fontSize=18;fontColor=#FF3333;" vertex="1" parent="Q5zS6b7_wfv7j0F1_cCl-1">
          <mxGeometry x="119" y="381" width="26" height="184" as="geometry" />
        </mxCell>
        <mxCell id="0R7qNHZLjylEhfbotdFQ-16" value="" style="rounded=0;whiteSpace=wrap;html=1;fontSize=18;fontColor=#FF3333;" vertex="1" parent="Q5zS6b7_wfv7j0F1_cCl-1">
          <mxGeometry x="579" y="381" width="26" height="187" as="geometry" />
        </mxCell>
        <mxCell id="0R7qNHZLjylEhfbotdFQ-17" value="server&lt;br&gt;&lt;span style=&quot;font-size: 15px ; font-family: &amp;#34;arial&amp;#34; , &amp;#34;microsoft yahei&amp;#34; , , , &amp;#34;heiti&amp;#34; , sans-serif , &amp;#34;simsun&amp;#34; , , serif ; color: rgb(31 , 35 , 41) ; background-color: transparent ; vertical-align: baseline&quot; id=&quot;clipboard-source-id-prefix-%902a978514c-3279-19ca-cb3a-0bdf92589127&quot;&gt;10.62.156.19&lt;/span&gt;" style="text;html=1;strokeColor=none;fillColor=none;align=center;verticalAlign=middle;whiteSpace=wrap;rounded=0;fontSize=18;fontColor=#FF3333;" vertex="1" parent="Q5zS6b7_wfv7j0F1_cCl-1">
          <mxGeometry x="534" y="333" width="116" height="30" as="geometry" />
        </mxCell>
        <mxCell id="0R7qNHZLjylEhfbotdFQ-18" value="client&lt;br&gt;&lt;span style=&quot;font-size: 15px ; font-family: &amp;#34;arial&amp;#34; , &amp;#34;microsoft yahei&amp;#34; , , , &amp;#34;heiti&amp;#34; , sans-serif , &amp;#34;simsun&amp;#34; , , serif ; color: rgb(31 , 35 , 41) ; background-color: transparent ; vertical-align: baseline&quot; id=&quot;clipboard-source-id-prefix-%902a978514c-327a-2f1d-2214-df5923aa045b&quot;&gt;10.58.107.34&lt;/span&gt;" style="text;html=1;strokeColor=none;fillColor=none;align=center;verticalAlign=middle;whiteSpace=wrap;rounded=0;fontSize=18;fontColor=#FF3333;" vertex="1" parent="Q5zS6b7_wfv7j0F1_cCl-1">
          <mxGeometry x="74" y="335" width="116" height="30" as="geometry" />
        </mxCell>
        <mxCell id="0R7qNHZLjylEhfbotdFQ-19" value="" style="endArrow=classic;html=1;rounded=0;fontSize=18;fontColor=#FF3333;" edge="1" parent="Q5zS6b7_wfv7j0F1_cCl-1">
          <mxGeometry width="50" height="50" relative="1" as="geometry">
            <mxPoint x="148" y="414" as="sourcePoint" />
            <mxPoint x="576" y="414" as="targetPoint" />
          </mxGeometry>
        </mxCell>
        <mxCell id="0R7qNHZLjylEhfbotdFQ-20" value="&lt;font color=&quot;#000000&quot;&gt;112(ACK,HEADERS)&lt;/font&gt;" style="text;html=1;strokeColor=none;fillColor=none;align=center;verticalAlign=middle;whiteSpace=wrap;rounded=0;fontSize=18;fontColor=#FF3333;" vertex="1" parent="Q5zS6b7_wfv7j0F1_cCl-1">
          <mxGeometry x="328" y="394" width="60" height="2" as="geometry" />
        </mxCell>
        <mxCell id="0R7qNHZLjylEhfbotdFQ-21" value="" style="endArrow=classic;html=1;rounded=0;fontSize=18;fontColor=#000000;" edge="1" parent="Q5zS6b7_wfv7j0F1_cCl-1">
          <mxGeometry width="50" height="50" relative="1" as="geometry">
            <mxPoint x="572" y="458" as="sourcePoint" />
            <mxPoint x="147" y="458" as="targetPoint" />
          </mxGeometry>
        </mxCell>
        <mxCell id="0R7qNHZLjylEhfbotdFQ-22" value="&lt;font color=&quot;#000000&quot;&gt;1180(ACK,HEADERS,DATA)&lt;/font&gt;" style="text;html=1;strokeColor=none;fillColor=none;align=center;verticalAlign=middle;whiteSpace=wrap;rounded=0;fontSize=18;fontColor=#FF3333;" vertex="1" parent="Q5zS6b7_wfv7j0F1_cCl-1">
          <mxGeometry x="326" y="445" width="60" height="2" as="geometry" />
        </mxCell>
        <mxCell id="0R7qNHZLjylEhfbotdFQ-27" value="" style="rounded=0;whiteSpace=wrap;html=1;fontSize=18;fontColor=#FF3333;" vertex="1" parent="Q5zS6b7_wfv7j0F1_cCl-1">
          <mxGeometry x="119" y="642" width="26" height="184" as="geometry" />
        </mxCell>
        <mxCell id="0R7qNHZLjylEhfbotdFQ-28" value="" style="rounded=0;whiteSpace=wrap;html=1;fontSize=18;fontColor=#FF3333;" vertex="1" parent="Q5zS6b7_wfv7j0F1_cCl-1">
          <mxGeometry x="579" y="642" width="26" height="187" as="geometry" />
        </mxCell>
        <mxCell id="0R7qNHZLjylEhfbotdFQ-29" value="server&lt;br&gt;&lt;span style=&quot;font-size: 15px ; font-family: &amp;#34;arial&amp;#34; , &amp;#34;microsoft yahei&amp;#34; , , , &amp;#34;heiti&amp;#34; , sans-serif , &amp;#34;simsun&amp;#34; , , serif ; color: rgb(31 , 35 , 41) ; background-color: transparent ; vertical-align: baseline&quot; id=&quot;clipboard-source-id-prefix-%902a978514c-3279-19ca-cb3a-0bdf92589127&quot;&gt;10.62.156.19&lt;/span&gt;" style="text;html=1;strokeColor=none;fillColor=none;align=center;verticalAlign=middle;whiteSpace=wrap;rounded=0;fontSize=18;fontColor=#FF3333;" vertex="1" parent="Q5zS6b7_wfv7j0F1_cCl-1">
          <mxGeometry x="534" y="594" width="116" height="30" as="geometry" />
        </mxCell>
        <mxCell id="0R7qNHZLjylEhfbotdFQ-30" value="client&lt;br&gt;&lt;span style=&quot;font-size: 15px ; font-family: &amp;#34;arial&amp;#34; , &amp;#34;microsoft yahei&amp;#34; , , , &amp;#34;heiti&amp;#34; , sans-serif , &amp;#34;simsun&amp;#34; , , serif ; color: rgb(31 , 35 , 41) ; background-color: transparent ; vertical-align: baseline&quot; id=&quot;clipboard-source-id-prefix-%902a978514c-327a-2f1d-2214-df5923aa045b&quot;&gt;10.58.107.34&lt;/span&gt;" style="text;html=1;strokeColor=none;fillColor=none;align=center;verticalAlign=middle;whiteSpace=wrap;rounded=0;fontSize=18;fontColor=#FF3333;" vertex="1" parent="Q5zS6b7_wfv7j0F1_cCl-1">
          <mxGeometry x="74" y="596" width="116" height="30" as="geometry" />
        </mxCell>
        <mxCell id="0R7qNHZLjylEhfbotdFQ-31" value="" style="endArrow=classic;html=1;rounded=0;fontSize=18;fontColor=#FF3333;" edge="1" parent="Q5zS6b7_wfv7j0F1_cCl-1">
          <mxGeometry width="50" height="50" relative="1" as="geometry">
            <mxPoint x="148" y="675" as="sourcePoint" />
            <mxPoint x="576" y="675" as="targetPoint" />
          </mxGeometry>
        </mxCell>
        <mxCell id="0R7qNHZLjylEhfbotdFQ-32" value="&lt;font color=&quot;#000000&quot;&gt;77(ACK),83(ACK,HEADERS)&lt;/font&gt;" style="text;html=1;strokeColor=none;fillColor=none;align=center;verticalAlign=middle;whiteSpace=wrap;rounded=0;fontSize=18;fontColor=#FF3333;" vertex="1" parent="Q5zS6b7_wfv7j0F1_cCl-1">
          <mxGeometry x="328" y="655" width="60" height="2" as="geometry" />
        </mxCell>
        <mxCell id="0R7qNHZLjylEhfbotdFQ-33" value="" style="endArrow=classic;html=1;rounded=0;fontSize=18;fontColor=#000000;" edge="1" parent="Q5zS6b7_wfv7j0F1_cCl-1">
          <mxGeometry width="50" height="50" relative="1" as="geometry">
            <mxPoint x="572" y="719" as="sourcePoint" />
            <mxPoint x="147" y="719" as="targetPoint" />
          </mxGeometry>
        </mxCell>
        <mxCell id="0R7qNHZLjylEhfbotdFQ-34" value="&lt;font color=&quot;#000000&quot;&gt;69(ACK),75(HEADERS),1066(DATA)&lt;/font&gt;" style="text;html=1;strokeColor=none;fillColor=none;align=center;verticalAlign=middle;whiteSpace=wrap;rounded=0;fontSize=18;fontColor=#FF3333;" vertex="1" parent="Q5zS6b7_wfv7j0F1_cCl-1">
          <mxGeometry x="326" y="706" width="60" height="2" as="geometry" />
        </mxCell>
        <mxCell id="0R7qNHZLjylEhfbotdFQ-43" value="" style="shape=curlyBracket;whiteSpace=wrap;html=1;rounded=1;flipH=1;fontSize=18;fontColor=#000000;strokeColor=#FF3333;" vertex="1" parent="Q5zS6b7_wfv7j0F1_cCl-1">
          <mxGeometry x="594" y="160" width="61" height="48" as="geometry" />
        </mxCell>
        <mxCell id="0R7qNHZLjylEhfbotdFQ-44" value="&lt;font color=&quot;#000000&quot;&gt;0.193ms&lt;/font&gt;" style="text;html=1;strokeColor=none;fillColor=none;align=center;verticalAlign=middle;whiteSpace=wrap;rounded=0;fontSize=18;fontColor=#FF3333;" vertex="1" parent="Q5zS6b7_wfv7j0F1_cCl-1">
          <mxGeometry x="662" y="183" width="60" height="2" as="geometry" />
        </mxCell>
        <mxCell id="0R7qNHZLjylEhfbotdFQ-45" value="" style="shape=curlyBracket;whiteSpace=wrap;html=1;rounded=1;flipH=1;fontSize=18;fontColor=#000000;strokeColor=#FF3333;" vertex="1" parent="Q5zS6b7_wfv7j0F1_cCl-1">
          <mxGeometry x="596" y="410" width="61" height="48" as="geometry" />
        </mxCell>
        <mxCell id="0R7qNHZLjylEhfbotdFQ-46" value="&lt;font color=&quot;#000000&quot;&gt;0.042ms&lt;/font&gt;" style="text;html=1;strokeColor=none;fillColor=none;align=center;verticalAlign=middle;whiteSpace=wrap;rounded=0;fontSize=18;fontColor=#FF3333;" vertex="1" parent="Q5zS6b7_wfv7j0F1_cCl-1">
          <mxGeometry x="664" y="433" width="60" height="2" as="geometry" />
        </mxCell>
        <mxCell id="0R7qNHZLjylEhfbotdFQ-47" value="" style="shape=curlyBracket;whiteSpace=wrap;html=1;rounded=1;flipH=1;fontSize=18;fontColor=#000000;strokeColor=#FF3333;" vertex="1" parent="Q5zS6b7_wfv7j0F1_cCl-1">
          <mxGeometry x="596" y="672" width="61" height="48" as="geometry" />
        </mxCell>
        <mxCell id="0R7qNHZLjylEhfbotdFQ-48" value="&lt;font color=&quot;#000000&quot;&gt;1.838ms&lt;/font&gt;" style="text;html=1;strokeColor=none;fillColor=none;align=center;verticalAlign=middle;whiteSpace=wrap;rounded=0;fontSize=18;fontColor=#FF3333;" vertex="1" parent="Q5zS6b7_wfv7j0F1_cCl-1">
          <mxGeometry x="664" y="695" width="60" height="2" as="geometry" />
        </mxCell>
        <mxCell id="0R7qNHZLjylEhfbotdFQ-50" value="nginx" style="text;html=1;strokeColor=none;fillColor=none;align=center;verticalAlign=middle;whiteSpace=wrap;rounded=0;fontSize=24;fontColor=#000000;" vertex="1" parent="Q5zS6b7_wfv7j0F1_cCl-1">
          <mxGeometry x="322" y="75" width="60" height="30" as="geometry" />
        </mxCell>
        <mxCell id="0R7qNHZLjylEhfbotdFQ-51" value="cloudflare" style="text;html=1;strokeColor=none;fillColor=none;align=center;verticalAlign=middle;whiteSpace=wrap;rounded=0;fontSize=24;fontColor=#000000;" vertex="1" parent="Q5zS6b7_wfv7j0F1_cCl-1">
          <mxGeometry x="332" y="333" width="60" height="30" as="geometry" />
        </mxCell>
        <mxCell id="0R7qNHZLjylEhfbotdFQ-52" value="kquic" style="text;html=1;strokeColor=none;fillColor=none;align=center;verticalAlign=middle;whiteSpace=wrap;rounded=0;fontSize=24;fontColor=#000000;" vertex="1" parent="Q5zS6b7_wfv7j0F1_cCl-1">
          <mxGeometry x="332" y="594" width="60" height="30" as="geometry" />
        </mxCell>
        <mxCell id="0R7qNHZLjylEhfbotdFQ-53" value="&lt;font style=&quot;font-size: 14px&quot;&gt;图中：箭头上方，每个数字代表一个包的长度&lt;/font&gt;" style="text;html=1;strokeColor=none;fillColor=none;align=center;verticalAlign=middle;whiteSpace=wrap;rounded=0;fontSize=24;fontColor=#000000;" vertex="1" parent="Q5zS6b7_wfv7j0F1_cCl-1">
          <mxGeometry x="170" y="850" width="413" height="30" as="geometry" />
        </mxCell>
        <mxCell id="0R7qNHZLjylEhfbotdFQ-56" value="" style="endArrow=classic;html=1;rounded=0;fontSize=18;fontColor=#FF3333;" edge="1" parent="Q5zS6b7_wfv7j0F1_cCl-1">
          <mxGeometry width="50" height="50" relative="1" as="geometry">
            <mxPoint x="148.5" y="767" as="sourcePoint" />
            <mxPoint x="576.5" y="767" as="targetPoint" />
          </mxGeometry>
        </mxCell>
        <mxCell id="0R7qNHZLjylEhfbotdFQ-57" value="&lt;font color=&quot;#000000&quot;&gt;77(ACK),83(ACK,HEADERS)&lt;/font&gt;" style="text;html=1;strokeColor=none;fillColor=none;align=center;verticalAlign=middle;whiteSpace=wrap;rounded=0;fontSize=18;fontColor=#FF3333;" vertex="1" parent="Q5zS6b7_wfv7j0F1_cCl-1">
          <mxGeometry x="328.5" y="747" width="60" height="2" as="geometry" />
        </mxCell>
        <mxCell id="0R7qNHZLjylEhfbotdFQ-58" value="" style="endArrow=classic;html=1;rounded=0;fontSize=18;fontColor=#000000;" edge="1" parent="Q5zS6b7_wfv7j0F1_cCl-1">
          <mxGeometry width="50" height="50" relative="1" as="geometry">
            <mxPoint x="572.5" y="811" as="sourcePoint" />
            <mxPoint x="147.5" y="811" as="targetPoint" />
          </mxGeometry>
        </mxCell>
        <mxCell id="0R7qNHZLjylEhfbotdFQ-59" value="&lt;font color=&quot;#000000&quot;&gt;69(ACK),75(HEADERS),1066(DATA)&lt;/font&gt;" style="text;html=1;strokeColor=none;fillColor=none;align=center;verticalAlign=middle;whiteSpace=wrap;rounded=0;fontSize=18;fontColor=#FF3333;" vertex="1" parent="Q5zS6b7_wfv7j0F1_cCl-1">
          <mxGeometry x="326.5" y="798" width="60" height="2" as="geometry" />
        </mxCell>
        <mxCell id="0R7qNHZLjylEhfbotdFQ-60" value="" style="endArrow=classic;html=1;rounded=0;fontSize=18;fontColor=#FF3333;" edge="1" parent="Q5zS6b7_wfv7j0F1_cCl-1">
          <mxGeometry width="50" height="50" relative="1" as="geometry">
            <mxPoint x="151" y="257" as="sourcePoint" />
            <mxPoint x="579" y="257" as="targetPoint" />
          </mxGeometry>
        </mxCell>
        <mxCell id="0R7qNHZLjylEhfbotdFQ-61" value="&lt;font color=&quot;#000000&quot;&gt;95(ACK,HEADERS)&lt;/font&gt;" style="text;html=1;strokeColor=none;fillColor=none;align=center;verticalAlign=middle;whiteSpace=wrap;rounded=0;fontSize=18;fontColor=#FF3333;" vertex="1" parent="Q5zS6b7_wfv7j0F1_cCl-1">
          <mxGeometry x="331" y="237" width="60" height="2" as="geometry" />
        </mxCell>
        <mxCell id="0R7qNHZLjylEhfbotdFQ-62" value="" style="endArrow=classic;html=1;rounded=0;fontSize=18;fontColor=#000000;" edge="1" parent="Q5zS6b7_wfv7j0F1_cCl-1">
          <mxGeometry width="50" height="50" relative="1" as="geometry">
            <mxPoint x="575" y="301" as="sourcePoint" />
            <mxPoint x="150" y="301" as="targetPoint" />
          </mxGeometry>
        </mxCell>
        <mxCell id="0R7qNHZLjylEhfbotdFQ-63" value="&lt;font color=&quot;#000000&quot;&gt;1204(HEADERS,DATA)&lt;/font&gt;" style="text;html=1;strokeColor=none;fillColor=none;align=center;verticalAlign=middle;whiteSpace=wrap;rounded=0;fontSize=18;fontColor=#FF3333;" vertex="1" parent="Q5zS6b7_wfv7j0F1_cCl-1">
          <mxGeometry x="329" y="288" width="60" height="2" as="geometry" />
        </mxCell>
        <mxCell id="0R7qNHZLjylEhfbotdFQ-64" value="" style="endArrow=classic;html=1;rounded=0;fontSize=18;fontColor=#FF3333;" edge="1" parent="Q5zS6b7_wfv7j0F1_cCl-1">
          <mxGeometry width="50" height="50" relative="1" as="geometry">
            <mxPoint x="148.5" y="508" as="sourcePoint" />
            <mxPoint x="576.5" y="508" as="targetPoint" />
          </mxGeometry>
        </mxCell>
        <mxCell id="0R7qNHZLjylEhfbotdFQ-65" value="&lt;font color=&quot;#000000&quot;&gt;112(ACK,HEADERS)&lt;/font&gt;" style="text;html=1;strokeColor=none;fillColor=none;align=center;verticalAlign=middle;whiteSpace=wrap;rounded=0;fontSize=18;fontColor=#FF3333;" vertex="1" parent="Q5zS6b7_wfv7j0F1_cCl-1">
          <mxGeometry x="328.5" y="488" width="60" height="2" as="geometry" />
        </mxCell>
        <mxCell id="0R7qNHZLjylEhfbotdFQ-66" value="" style="endArrow=classic;html=1;rounded=0;fontSize=18;fontColor=#000000;" edge="1" parent="Q5zS6b7_wfv7j0F1_cCl-1">
          <mxGeometry width="50" height="50" relative="1" as="geometry">
            <mxPoint x="572.5" y="552" as="sourcePoint" />
            <mxPoint x="147.5" y="552" as="targetPoint" />
          </mxGeometry>
        </mxCell>
        <mxCell id="0R7qNHZLjylEhfbotdFQ-67" value="&lt;font color=&quot;#000000&quot;&gt;1180(ACK,HEADERS,DATA)&lt;/font&gt;" style="text;html=1;strokeColor=none;fillColor=none;align=center;verticalAlign=middle;whiteSpace=wrap;rounded=0;fontSize=18;fontColor=#FF3333;" vertex="1" parent="Q5zS6b7_wfv7j0F1_cCl-1">
          <mxGeometry x="326.5" y="539" width="60" height="2" as="geometry" />
        </mxCell>
      </root>
    </mxGraphModel>
  </diagram>
  <diagram id="pu5orGBHufEs7He_Z2bE" name="第 8 页">
    <mxGraphModel dx="1181" dy="659" grid="0" gridSize="10" guides="1" tooltips="1" connect="1" arrows="1" fold="1" page="1" pageScale="1" pageWidth="827" pageHeight="1169" math="0" shadow="0">
      <root>
        <mxCell id="uqspFC6oTgATVkDgHFAL-0" />
        <mxCell id="uqspFC6oTgATVkDgHFAL-1" parent="uqspFC6oTgATVkDgHFAL-0" />
        <mxCell id="uqspFC6oTgATVkDgHFAL-44" value="" style="rounded=0;whiteSpace=wrap;html=1;strokeColor=#97D077;dashed=1;" vertex="1" parent="uqspFC6oTgATVkDgHFAL-1">
          <mxGeometry x="276" y="830" width="485" height="204" as="geometry" />
        </mxCell>
        <mxCell id="uqspFC6oTgATVkDgHFAL-6" value="ngx_quic_connection_s" style="swimlane;fontStyle=1;childLayout=stackLayout;horizontal=1;startSize=26;fillColor=none;horizontalStack=0;resizeParent=1;resizeParentMax=0;resizeLast=0;collapsible=1;marginBottom=0;" vertex="1" parent="uqspFC6oTgATVkDgHFAL-1">
          <mxGeometry x="507" y="712" width="168" height="52" as="geometry" />
        </mxCell>
        <mxCell id="uqspFC6oTgATVkDgHFAL-7" value="ngx_quic_streams_t" style="text;strokeColor=none;fillColor=none;align=left;verticalAlign=top;spacingLeft=4;spacingRight=4;overflow=hidden;rotatable=0;points=[[0,0.5],[1,0.5]];portConstraint=eastwest;" vertex="1" parent="uqspFC6oTgATVkDgHFAL-6">
          <mxGeometry y="26" width="168" height="26" as="geometry" />
        </mxCell>
        <mxCell id="uqspFC6oTgATVkDgHFAL-12" style="edgeStyle=orthogonalEdgeStyle;rounded=0;orthogonalLoop=1;jettySize=auto;html=1;entryX=0;entryY=0;entryDx=0;entryDy=0;" edge="1" parent="uqspFC6oTgATVkDgHFAL-1" source="uqspFC6oTgATVkDgHFAL-7" target="uqspFC6oTgATVkDgHFAL-30">
          <mxGeometry relative="1" as="geometry">
            <mxPoint x="710" y="751" as="targetPoint" />
          </mxGeometry>
        </mxCell>
        <mxCell id="uqspFC6oTgATVkDgHFAL-13" value="ngx_connection_s" style="swimlane;fontStyle=1;align=center;verticalAlign=top;childLayout=stackLayout;horizontal=1;startSize=26;horizontalStack=0;resizeParent=1;resizeParentMax=0;resizeLast=0;collapsible=1;marginBottom=0;" vertex="1" parent="uqspFC6oTgATVkDgHFAL-1">
          <mxGeometry x="82" y="553" width="199" height="60" as="geometry">
            <mxRectangle x="-250" y="561" width="132" height="26" as="alternateBounds" />
          </mxGeometry>
        </mxCell>
        <mxCell id="uqspFC6oTgATVkDgHFAL-14" value="ngx_udp_connection_t   *udp" style="text;strokeColor=none;fillColor=none;align=left;verticalAlign=top;spacingLeft=4;spacingRight=4;overflow=hidden;rotatable=0;points=[[0,0.5],[1,0.5]];portConstraint=eastwest;" vertex="1" parent="uqspFC6oTgATVkDgHFAL-13">
          <mxGeometry y="26" width="199" height="26" as="geometry" />
        </mxCell>
        <mxCell id="uqspFC6oTgATVkDgHFAL-15" value="" style="line;strokeWidth=1;fillColor=none;align=left;verticalAlign=middle;spacingTop=-1;spacingLeft=3;spacingRight=3;rotatable=0;labelPosition=right;points=[];portConstraint=eastwest;" vertex="1" parent="uqspFC6oTgATVkDgHFAL-13">
          <mxGeometry y="52" width="199" height="8" as="geometry" />
        </mxCell>
        <mxCell id="uqspFC6oTgATVkDgHFAL-23" value="" style="edgeStyle=orthogonalEdgeStyle;rounded=0;orthogonalLoop=1;jettySize=auto;html=1;entryX=0;entryY=0;entryDx=0;entryDy=0;" edge="1" parent="uqspFC6oTgATVkDgHFAL-1" source="uqspFC6oTgATVkDgHFAL-14" target="uqspFC6oTgATVkDgHFAL-24">
          <mxGeometry relative="1" as="geometry" />
        </mxCell>
        <mxCell id="uqspFC6oTgATVkDgHFAL-24" value="ngx_quic_socket_s" style="swimlane;fontStyle=1;align=center;verticalAlign=top;childLayout=stackLayout;horizontal=1;startSize=26;horizontalStack=0;resizeParent=1;resizeParentMax=0;resizeLast=0;collapsible=1;marginBottom=0;" vertex="1" parent="uqspFC6oTgATVkDgHFAL-1">
          <mxGeometry x="308" y="613" width="178" height="86" as="geometry" />
        </mxCell>
        <mxCell id="uqspFC6oTgATVkDgHFAL-25" value="ngx_connection_t  udp " style="text;strokeColor=none;fillColor=none;align=left;verticalAlign=top;spacingLeft=4;spacingRight=4;overflow=hidden;rotatable=0;points=[[0,0.5],[1,0.5]];portConstraint=eastwest;" vertex="1" parent="uqspFC6oTgATVkDgHFAL-24">
          <mxGeometry y="26" width="178" height="26" as="geometry" />
        </mxCell>
        <mxCell id="uqspFC6oTgATVkDgHFAL-27" value="ngx_quic_connection_t  *quic" style="text;strokeColor=none;fillColor=none;align=left;verticalAlign=top;spacingLeft=4;spacingRight=4;overflow=hidden;rotatable=0;points=[[0,0.5],[1,0.5]];portConstraint=eastwest;" vertex="1" parent="uqspFC6oTgATVkDgHFAL-24">
          <mxGeometry y="52" width="178" height="26" as="geometry" />
        </mxCell>
        <mxCell id="uqspFC6oTgATVkDgHFAL-26" value="" style="line;strokeWidth=1;fillColor=none;align=left;verticalAlign=middle;spacingTop=-1;spacingLeft=3;spacingRight=3;rotatable=0;labelPosition=right;points=[];portConstraint=eastwest;" vertex="1" parent="uqspFC6oTgATVkDgHFAL-24">
          <mxGeometry y="78" width="178" height="8" as="geometry" />
        </mxCell>
        <mxCell id="uqspFC6oTgATVkDgHFAL-29" style="edgeStyle=orthogonalEdgeStyle;rounded=0;orthogonalLoop=1;jettySize=auto;html=1;entryX=0;entryY=0;entryDx=0;entryDy=0;" edge="1" parent="uqspFC6oTgATVkDgHFAL-1" source="uqspFC6oTgATVkDgHFAL-27" target="uqspFC6oTgATVkDgHFAL-6">
          <mxGeometry relative="1" as="geometry" />
        </mxCell>
        <mxCell id="uqspFC6oTgATVkDgHFAL-30" value="ngx_quic_streams_t" style="swimlane;fontStyle=1;childLayout=stackLayout;horizontal=1;startSize=26;fillColor=none;horizontalStack=0;resizeParent=1;resizeParentMax=0;resizeLast=0;collapsible=1;marginBottom=0;" vertex="1" parent="uqspFC6oTgATVkDgHFAL-1">
          <mxGeometry x="68" y="799" width="168" height="52" as="geometry" />
        </mxCell>
        <mxCell id="uqspFC6oTgATVkDgHFAL-31" value="ngx_rbtree_t                      tree;" style="text;strokeColor=none;fillColor=none;align=left;verticalAlign=top;spacingLeft=4;spacingRight=4;overflow=hidden;rotatable=0;points=[[0,0.5],[1,0.5]];portConstraint=eastwest;" vertex="1" parent="uqspFC6oTgATVkDgHFAL-30">
          <mxGeometry y="26" width="168" height="26" as="geometry" />
        </mxCell>
        <mxCell id="uqspFC6oTgATVkDgHFAL-32" value="ngx_quic_stream_s" style="swimlane;fontStyle=1;childLayout=stackLayout;horizontal=1;startSize=26;fillColor=none;horizontalStack=0;resizeParent=1;resizeParentMax=0;resizeLast=0;collapsible=1;marginBottom=0;" vertex="1" parent="uqspFC6oTgATVkDgHFAL-1">
          <mxGeometry x="291" y="880" width="180" height="78" as="geometry" />
        </mxCell>
        <mxCell id="uqspFC6oTgATVkDgHFAL-33" value="ngx_connection_t  *parent;" style="text;strokeColor=none;fillColor=none;align=left;verticalAlign=top;spacingLeft=4;spacingRight=4;overflow=hidden;rotatable=0;points=[[0,0.5],[1,0.5]];portConstraint=eastwest;" vertex="1" parent="uqspFC6oTgATVkDgHFAL-32">
          <mxGeometry y="26" width="180" height="26" as="geometry" />
        </mxCell>
        <mxCell id="uqspFC6oTgATVkDgHFAL-34" value="ngx_connection_t          *connection;" style="text;strokeColor=none;fillColor=none;align=left;verticalAlign=top;spacingLeft=4;spacingRight=4;overflow=hidden;rotatable=0;points=[[0,0.5],[1,0.5]];portConstraint=eastwest;" vertex="1" parent="uqspFC6oTgATVkDgHFAL-32">
          <mxGeometry y="52" width="180" height="26" as="geometry" />
        </mxCell>
        <mxCell id="uqspFC6oTgATVkDgHFAL-35" style="edgeStyle=orthogonalEdgeStyle;rounded=0;orthogonalLoop=1;jettySize=auto;html=1;entryX=0;entryY=0.25;entryDx=0;entryDy=0;" edge="1" parent="uqspFC6oTgATVkDgHFAL-1" source="uqspFC6oTgATVkDgHFAL-33" target="uqspFC6oTgATVkDgHFAL-13">
          <mxGeometry relative="1" as="geometry">
            <Array as="points">
              <mxPoint x="45" y="919" />
              <mxPoint x="45" y="568" />
            </Array>
          </mxGeometry>
        </mxCell>
        <mxCell id="uqspFC6oTgATVkDgHFAL-36" value="ngx_connection_s" style="swimlane;fontStyle=1;align=center;verticalAlign=top;childLayout=stackLayout;horizontal=1;startSize=26;horizontalStack=0;resizeParent=1;resizeParentMax=0;resizeLast=0;collapsible=1;marginBottom=0;" vertex="1" parent="uqspFC6oTgATVkDgHFAL-1">
          <mxGeometry x="539" y="883" width="199" height="86" as="geometry">
            <mxRectangle x="-250" y="561" width="132" height="26" as="alternateBounds" />
          </mxGeometry>
        </mxCell>
        <mxCell id="uqspFC6oTgATVkDgHFAL-37" value="ngx_udp_connection_t   *udp" style="text;strokeColor=none;fillColor=none;align=left;verticalAlign=top;spacingLeft=4;spacingRight=4;overflow=hidden;rotatable=0;points=[[0,0.5],[1,0.5]];portConstraint=eastwest;" vertex="1" parent="uqspFC6oTgATVkDgHFAL-36">
          <mxGeometry y="26" width="199" height="26" as="geometry" />
        </mxCell>
        <mxCell id="uqspFC6oTgATVkDgHFAL-38" value="" style="line;strokeWidth=1;fillColor=none;align=left;verticalAlign=middle;spacingTop=-1;spacingLeft=3;spacingRight=3;rotatable=0;labelPosition=right;points=[];portConstraint=eastwest;" vertex="1" parent="uqspFC6oTgATVkDgHFAL-36">
          <mxGeometry y="52" width="199" height="8" as="geometry" />
        </mxCell>
        <mxCell id="uqspFC6oTgATVkDgHFAL-41" value=" ngx_quic_stream_t     *quic;" style="text;strokeColor=none;fillColor=none;align=left;verticalAlign=top;spacingLeft=4;spacingRight=4;overflow=hidden;rotatable=0;points=[[0,0.5],[1,0.5]];portConstraint=eastwest;" vertex="1" parent="uqspFC6oTgATVkDgHFAL-36">
          <mxGeometry y="60" width="199" height="26" as="geometry" />
        </mxCell>
        <mxCell id="uqspFC6oTgATVkDgHFAL-40" style="edgeStyle=orthogonalEdgeStyle;rounded=0;orthogonalLoop=1;jettySize=auto;html=1;exitX=1;exitY=0.5;exitDx=0;exitDy=0;entryX=0;entryY=0;entryDx=0;entryDy=0;" edge="1" parent="uqspFC6oTgATVkDgHFAL-1" source="uqspFC6oTgATVkDgHFAL-34" target="uqspFC6oTgATVkDgHFAL-36">
          <mxGeometry relative="1" as="geometry" />
        </mxCell>
        <mxCell id="uqspFC6oTgATVkDgHFAL-42" style="edgeStyle=orthogonalEdgeStyle;rounded=0;orthogonalLoop=1;jettySize=auto;html=1;entryX=0;entryY=0;entryDx=0;entryDy=0;" edge="1" parent="uqspFC6oTgATVkDgHFAL-1" source="uqspFC6oTgATVkDgHFAL-41" target="uqspFC6oTgATVkDgHFAL-32">
          <mxGeometry relative="1" as="geometry">
            <Array as="points">
              <mxPoint x="752" y="956" />
              <mxPoint x="752" y="847" />
              <mxPoint x="291" y="847" />
            </Array>
          </mxGeometry>
        </mxCell>
        <mxCell id="uqspFC6oTgATVkDgHFAL-45" value="..........." style="text;strokeColor=none;fillColor=none;align=left;verticalAlign=middle;spacingLeft=4;spacingRight=4;overflow=hidden;points=[[0,0.5],[1,0.5]];portConstraint=eastwest;rotatable=0;dashed=1;" vertex="1" parent="uqspFC6oTgATVkDgHFAL-1">
          <mxGeometry x="483" y="983" width="80" height="30" as="geometry" />
        </mxCell>
        <mxCell id="uqspFC6oTgATVkDgHFAL-46" style="edgeStyle=orthogonalEdgeStyle;rounded=0;orthogonalLoop=1;jettySize=auto;html=1;entryX=0;entryY=0.203;entryDx=0;entryDy=0;entryPerimeter=0;" edge="1" parent="uqspFC6oTgATVkDgHFAL-1" source="uqspFC6oTgATVkDgHFAL-31" target="uqspFC6oTgATVkDgHFAL-32">
          <mxGeometry relative="1" as="geometry" />
        </mxCell>
      </root>
    </mxGraphModel>
  </diagram>
  <diagram id="Gkp_hdUL54LXRyS68oIQ" name="第 9 页">
    <mxGraphModel dx="666" dy="428" grid="0" gridSize="10" guides="1" tooltips="1" connect="1" arrows="1" fold="1" page="1" pageScale="1" pageWidth="827" pageHeight="1169" math="0" shadow="0">
      <root>
        <mxCell id="mc4LY7N5Fw2V7b27eZ8k-0" />
        <mxCell id="mc4LY7N5Fw2V7b27eZ8k-1" parent="mc4LY7N5Fw2V7b27eZ8k-0" />
        <mxCell id="mc4LY7N5Fw2V7b27eZ8k-20" value="" style="ellipse;whiteSpace=wrap;html=1;fontSize=14;dashed=1;" vertex="1" parent="mc4LY7N5Fw2V7b27eZ8k-1">
          <mxGeometry x="213.5" y="135" width="282.5" height="97" as="geometry" />
        </mxCell>
        <mxCell id="mc4LY7N5Fw2V7b27eZ8k-18" value="" style="ellipse;whiteSpace=wrap;html=1;fontSize=14;dashed=1;" vertex="1" parent="mc4LY7N5Fw2V7b27eZ8k-1">
          <mxGeometry x="308" y="310" width="428" height="236" as="geometry" />
        </mxCell>
        <mxCell id="mc4LY7N5Fw2V7b27eZ8k-16" value="" style="ellipse;whiteSpace=wrap;html=1;fontSize=14;dashed=1;" vertex="1" parent="mc4LY7N5Fw2V7b27eZ8k-1">
          <mxGeometry x="144" y="320" width="154.5" height="210" as="geometry" />
        </mxCell>
        <mxCell id="mc4LY7N5Fw2V7b27eZ8k-2" value="&lt;font style=&quot;font-size: 14px&quot;&gt;kquic&lt;/font&gt;" style="rounded=1;whiteSpace=wrap;html=1;" vertex="1" parent="mc4LY7N5Fw2V7b27eZ8k-1">
          <mxGeometry x="200" y="433" width="62" height="39" as="geometry" />
        </mxCell>
        <mxCell id="mc4LY7N5Fw2V7b27eZ8k-3" value="&lt;font style=&quot;font-size: 14px&quot;&gt;file_server&lt;/font&gt;" style="rounded=1;whiteSpace=wrap;html=1;" vertex="1" parent="mc4LY7N5Fw2V7b27eZ8k-1">
          <mxGeometry x="189" y="352" width="84" height="39" as="geometry" />
        </mxCell>
        <mxCell id="mc4LY7N5Fw2V7b27eZ8k-9" value="&lt;font style=&quot;font-size: 14px&quot;&gt;da_proxy&lt;/font&gt;" style="rounded=1;whiteSpace=wrap;html=1;" vertex="1" parent="mc4LY7N5Fw2V7b27eZ8k-1">
          <mxGeometry x="256" y="167" width="62" height="39" as="geometry" />
        </mxCell>
        <mxCell id="mc4LY7N5Fw2V7b27eZ8k-10" value="&lt;font style=&quot;font-size: 14px&quot;&gt;da_proxy&lt;/font&gt;" style="rounded=1;whiteSpace=wrap;html=1;" vertex="1" parent="mc4LY7N5Fw2V7b27eZ8k-1">
          <mxGeometry x="369" y="167" width="62" height="39" as="geometry" />
        </mxCell>
        <mxCell id="mc4LY7N5Fw2V7b27eZ8k-11" value="&lt;font style=&quot;font-size: 14px&quot;&gt;kquic&lt;/font&gt;" style="rounded=1;whiteSpace=wrap;html=1;" vertex="1" parent="mc4LY7N5Fw2V7b27eZ8k-1">
          <mxGeometry x="363" y="441" width="62" height="39" as="geometry" />
        </mxCell>
        <mxCell id="mc4LY7N5Fw2V7b27eZ8k-12" value="&lt;font style=&quot;font-size: 14px&quot;&gt;file_server&lt;/font&gt;" style="rounded=1;whiteSpace=wrap;html=1;" vertex="1" parent="mc4LY7N5Fw2V7b27eZ8k-1">
          <mxGeometry x="352" y="360" width="84" height="39" as="geometry" />
        </mxCell>
        <mxCell id="mc4LY7N5Fw2V7b27eZ8k-13" value="&lt;font style=&quot;font-size: 14px&quot;&gt;kquic&lt;/font&gt;" style="rounded=1;whiteSpace=wrap;html=1;" vertex="1" parent="mc4LY7N5Fw2V7b27eZ8k-1">
          <mxGeometry x="478" y="441" width="62" height="39" as="geometry" />
        </mxCell>
        <mxCell id="mc4LY7N5Fw2V7b27eZ8k-14" value="&lt;font style=&quot;font-size: 14px&quot;&gt;file_server&lt;/font&gt;" style="rounded=1;whiteSpace=wrap;html=1;" vertex="1" parent="mc4LY7N5Fw2V7b27eZ8k-1">
          <mxGeometry x="480" y="360" width="84" height="39" as="geometry" />
        </mxCell>
        <mxCell id="mc4LY7N5Fw2V7b27eZ8k-15" value="&lt;font style=&quot;font-size: 14px&quot;&gt;file_server&lt;/font&gt;" style="rounded=1;whiteSpace=wrap;html=1;" vertex="1" parent="mc4LY7N5Fw2V7b27eZ8k-1">
          <mxGeometry x="608" y="360" width="84" height="39" as="geometry" />
        </mxCell>
        <mxCell id="mc4LY7N5Fw2V7b27eZ8k-17" value="西安" style="text;html=1;strokeColor=none;fillColor=none;align=center;verticalAlign=middle;whiteSpace=wrap;rounded=0;dashed=1;fontSize=14;" vertex="1" parent="mc4LY7N5Fw2V7b27eZ8k-1">
          <mxGeometry x="140" y="442" width="60" height="30" as="geometry" />
        </mxCell>
        <mxCell id="mc4LY7N5Fw2V7b27eZ8k-19" value="佛山" style="text;html=1;strokeColor=none;fillColor=none;align=center;verticalAlign=middle;whiteSpace=wrap;rounded=0;dashed=1;fontSize=14;" vertex="1" parent="mc4LY7N5Fw2V7b27eZ8k-1">
          <mxGeometry x="624" y="442" width="60" height="30" as="geometry" />
        </mxCell>
        <mxCell id="mc4LY7N5Fw2V7b27eZ8k-21" value="IDC" style="text;html=1;strokeColor=none;fillColor=none;align=center;verticalAlign=middle;whiteSpace=wrap;rounded=0;dashed=1;fontSize=14;" vertex="1" parent="mc4LY7N5Fw2V7b27eZ8k-1">
          <mxGeometry x="312" y="137" width="60" height="30" as="geometry" />
        </mxCell>
        <mxCell id="mc4LY7N5Fw2V7b27eZ8k-22" value="" style="endArrow=classic;html=1;rounded=0;fontSize=14;exitX=0.5;exitY=0;exitDx=0;exitDy=0;" edge="1" parent="mc4LY7N5Fw2V7b27eZ8k-1" source="mc4LY7N5Fw2V7b27eZ8k-3" target="mc4LY7N5Fw2V7b27eZ8k-20">
          <mxGeometry width="50" height="50" relative="1" as="geometry">
            <mxPoint x="139" y="358" as="sourcePoint" />
            <mxPoint x="189" y="308" as="targetPoint" />
          </mxGeometry>
        </mxCell>
        <mxCell id="mc4LY7N5Fw2V7b27eZ8k-31" value="" style="endArrow=classic;html=1;rounded=0;fontSize=12;entryX=0.5;entryY=1;entryDx=0;entryDy=0;exitX=0.5;exitY=0;exitDx=0;exitDy=0;" edge="1" parent="mc4LY7N5Fw2V7b27eZ8k-1" source="mc4LY7N5Fw2V7b27eZ8k-2" target="mc4LY7N5Fw2V7b27eZ8k-3">
          <mxGeometry width="50" height="50" relative="1" as="geometry">
            <mxPoint x="217" y="455" as="sourcePoint" />
            <mxPoint x="267" y="405" as="targetPoint" />
          </mxGeometry>
        </mxCell>
        <mxCell id="mc4LY7N5Fw2V7b27eZ8k-32" value="" style="endArrow=classic;html=1;rounded=0;fontSize=12;entryX=0.688;entryY=0.969;entryDx=0;entryDy=0;entryPerimeter=0;exitX=0.5;exitY=0;exitDx=0;exitDy=0;" edge="1" parent="mc4LY7N5Fw2V7b27eZ8k-1" source="mc4LY7N5Fw2V7b27eZ8k-18" target="mc4LY7N5Fw2V7b27eZ8k-20">
          <mxGeometry width="50" height="50" relative="1" as="geometry">
            <mxPoint x="575" y="220" as="sourcePoint" />
            <mxPoint x="625" y="170" as="targetPoint" />
          </mxGeometry>
        </mxCell>
        <mxCell id="mc4LY7N5Fw2V7b27eZ8k-39" value="" style="group" vertex="1" connectable="0" parent="mc4LY7N5Fw2V7b27eZ8k-1">
          <mxGeometry x="188" y="552" width="399" height="33" as="geometry" />
        </mxCell>
        <mxCell id="mc4LY7N5Fw2V7b27eZ8k-24" value="" style="rounded=1;whiteSpace=wrap;html=1;fontSize=14;" vertex="1" parent="mc4LY7N5Fw2V7b27eZ8k-39">
          <mxGeometry y="9" width="34" height="18" as="geometry" />
        </mxCell>
        <mxCell id="mc4LY7N5Fw2V7b27eZ8k-25" value="&lt;font style=&quot;font-size: 12px&quot;&gt;机器&lt;/font&gt;" style="text;html=1;strokeColor=none;fillColor=none;align=center;verticalAlign=middle;whiteSpace=wrap;rounded=0;dashed=1;fontSize=14;" vertex="1" parent="mc4LY7N5Fw2V7b27eZ8k-39">
          <mxGeometry x="37" y="3" width="60" height="30" as="geometry" />
        </mxCell>
        <mxCell id="mc4LY7N5Fw2V7b27eZ8k-26" value="" style="ellipse;whiteSpace=wrap;html=1;fontSize=14;dashed=1;" vertex="1" parent="mc4LY7N5Fw2V7b27eZ8k-39">
          <mxGeometry x="106" y="6" width="46" height="24" as="geometry" />
        </mxCell>
        <mxCell id="mc4LY7N5Fw2V7b27eZ8k-27" value="&lt;font style=&quot;font-size: 12px&quot;&gt;区域&lt;/font&gt;" style="text;html=1;strokeColor=none;fillColor=none;align=center;verticalAlign=middle;whiteSpace=wrap;rounded=0;dashed=1;fontSize=14;" vertex="1" parent="mc4LY7N5Fw2V7b27eZ8k-39">
          <mxGeometry x="163" y="3" width="60" height="30" as="geometry" />
        </mxCell>
        <mxCell id="mc4LY7N5Fw2V7b27eZ8k-29" value="" style="endArrow=classic;html=1;rounded=0;fontSize=12;" edge="1" parent="mc4LY7N5Fw2V7b27eZ8k-39">
          <mxGeometry width="50" height="50" relative="1" as="geometry">
            <mxPoint x="226" y="17" as="sourcePoint" />
            <mxPoint x="284" y="17" as="targetPoint" />
          </mxGeometry>
        </mxCell>
        <mxCell id="mc4LY7N5Fw2V7b27eZ8k-30" value="&lt;font style=&quot;font-size: 12px&quot;&gt;上行数据流&lt;/font&gt;" style="text;html=1;strokeColor=none;fillColor=none;align=center;verticalAlign=middle;whiteSpace=wrap;rounded=0;dashed=1;fontSize=14;" vertex="1" parent="mc4LY7N5Fw2V7b27eZ8k-39">
          <mxGeometry x="300" width="99" height="30" as="geometry" />
        </mxCell>
      </root>
    </mxGraphModel>
  </diagram>
  <diagram id="2i49xY4Kum3hx905Ievn" name="第 10 页">
    <mxGraphModel dx="3243" dy="888" grid="0" gridSize="10" guides="1" tooltips="1" connect="1" arrows="1" fold="1" page="1" pageScale="1" pageWidth="827" pageHeight="1169" math="0" shadow="0">
      <root>
        <mxCell id="vayWjo9ZpgyIxWzgXqId-0" />
        <mxCell id="vayWjo9ZpgyIxWzgXqId-1" parent="vayWjo9ZpgyIxWzgXqId-0" />
        <mxCell id="vayWjo9ZpgyIxWzgXqId-41" style="edgeStyle=orthogonalEdgeStyle;rounded=0;orthogonalLoop=1;jettySize=auto;html=1;exitX=1;exitY=0.5;exitDx=0;exitDy=0;entryX=0;entryY=0.5;entryDx=0;entryDy=0;fontSize=13;" edge="1" parent="vayWjo9ZpgyIxWzgXqId-1" source="vayWjo9ZpgyIxWzgXqId-35" target="vayWjo9ZpgyIxWzgXqId-39">
          <mxGeometry relative="1" as="geometry" />
        </mxCell>
        <mxCell id="vayWjo9ZpgyIxWzgXqId-35" value="ngx_epoll_process_events" style="swimlane;fontStyle=1;childLayout=stackLayout;horizontal=1;startSize=26;fillColor=none;horizontalStack=0;resizeParent=1;resizeParentMax=0;resizeLast=0;collapsible=1;marginBottom=0;fontSize=13;" vertex="1" collapsed="1" parent="vayWjo9ZpgyIxWzgXqId-1">
          <mxGeometry x="-890" y="735" width="168" height="26" as="geometry">
            <mxRectangle x="54" y="639" width="167" height="52" as="alternateBounds" />
          </mxGeometry>
        </mxCell>
        <mxCell id="vayWjo9ZpgyIxWzgXqId-36" value="epoll" style="text;strokeColor=none;fillColor=none;align=left;verticalAlign=top;spacingLeft=4;spacingRight=4;overflow=hidden;rotatable=0;points=[[0,0.5],[1,0.5]];portConstraint=eastwest;fontSize=13;" vertex="1" parent="vayWjo9ZpgyIxWzgXqId-35">
          <mxGeometry y="26" width="168" height="26" as="geometry" />
        </mxCell>
        <mxCell id="vayWjo9ZpgyIxWzgXqId-49" style="edgeStyle=orthogonalEdgeStyle;rounded=0;orthogonalLoop=1;jettySize=auto;html=1;exitX=1;exitY=0.5;exitDx=0;exitDy=0;entryX=0;entryY=0.25;entryDx=0;entryDy=0;fontSize=13;fontColor=#0000FF;" edge="1" parent="vayWjo9ZpgyIxWzgXqId-1" source="vayWjo9ZpgyIxWzgXqId-39" target="vayWjo9ZpgyIxWzgXqId-43">
          <mxGeometry relative="1" as="geometry" />
        </mxCell>
        <mxCell id="vayWjo9ZpgyIxWzgXqId-39" value="ngx_event_recvmsg" style="swimlane;fontStyle=1;childLayout=stackLayout;horizontal=1;startSize=26;fillColor=none;horizontalStack=0;resizeParent=1;resizeParentMax=0;resizeLast=0;collapsible=1;marginBottom=0;fontSize=13;" vertex="1" parent="vayWjo9ZpgyIxWzgXqId-1">
          <mxGeometry x="-677" y="735" width="179" height="78" as="geometry">
            <mxRectangle x="-611" y="733" width="147" height="26" as="alternateBounds" />
          </mxGeometry>
        </mxCell>
        <mxCell id="vayWjo9ZpgyIxWzgXqId-40" value="recvmsg(lc-&gt;fd, &amp;msg, 0);" style="text;strokeColor=none;fillColor=none;align=left;verticalAlign=top;spacingLeft=4;spacingRight=4;overflow=hidden;rotatable=0;points=[[0,0.5],[1,0.5]];portConstraint=eastwest;fontSize=13;" vertex="1" parent="vayWjo9ZpgyIxWzgXqId-39">
          <mxGeometry y="26" width="179" height="26" as="geometry" />
        </mxCell>
        <mxCell id="vayWjo9ZpgyIxWzgXqId-42" value="ngx_lookup_udp_connection" style="text;strokeColor=none;fillColor=none;align=left;verticalAlign=top;spacingLeft=4;spacingRight=4;overflow=hidden;rotatable=0;points=[[0,0.5],[1,0.5]];portConstraint=eastwest;fontSize=13;" vertex="1" parent="vayWjo9ZpgyIxWzgXqId-39">
          <mxGeometry y="52" width="179" height="26" as="geometry" />
        </mxCell>
        <mxCell id="vayWjo9ZpgyIxWzgXqId-50" style="edgeStyle=orthogonalEdgeStyle;rounded=0;orthogonalLoop=1;jettySize=auto;html=1;exitX=1;exitY=0.5;exitDx=0;exitDy=0;entryX=0;entryY=0.25;entryDx=0;entryDy=0;fontSize=13;fontColor=#0000FF;" edge="1" parent="vayWjo9ZpgyIxWzgXqId-1" source="vayWjo9ZpgyIxWzgXqId-44" target="vayWjo9ZpgyIxWzgXqId-46">
          <mxGeometry relative="1" as="geometry" />
        </mxCell>
        <mxCell id="vayWjo9ZpgyIxWzgXqId-43" value="ngx_event_recvmsg" style="swimlane;fontStyle=1;childLayout=stackLayout;horizontal=1;startSize=26;fillColor=none;horizontalStack=0;resizeParent=1;resizeParentMax=0;resizeLast=0;collapsible=1;marginBottom=0;fontSize=13;dashed=1;fontColor=#0000FF;" vertex="1" parent="vayWjo9ZpgyIxWzgXqId-1">
          <mxGeometry x="-421" y="720" width="179" height="104" as="geometry">
            <mxRectangle x="-424" y="817" width="147" height="26" as="alternateBounds" />
          </mxGeometry>
        </mxCell>
        <mxCell id="vayWjo9ZpgyIxWzgXqId-44" value="ngx_get_connection(lc-&gt;fd, ev-&gt;log);" style="text;strokeColor=none;fillColor=none;align=left;verticalAlign=top;spacingLeft=4;spacingRight=4;overflow=hidden;rotatable=0;points=[[0,0.5],[1,0.5]];portConstraint=eastwest;fontSize=13;" vertex="1" parent="vayWjo9ZpgyIxWzgXqId-43">
          <mxGeometry y="26" width="179" height="26" as="geometry" />
        </mxCell>
        <mxCell id="vayWjo9ZpgyIxWzgXqId-52" value="c-&gt;buffer" style="text;strokeColor=none;fillColor=none;align=left;verticalAlign=top;spacingLeft=4;spacingRight=4;overflow=hidden;rotatable=0;points=[[0,0.5],[1,0.5]];portConstraint=eastwest;fontSize=13;" vertex="1" parent="vayWjo9ZpgyIxWzgXqId-43">
          <mxGeometry y="52" width="179" height="26" as="geometry" />
        </mxCell>
        <mxCell id="vayWjo9ZpgyIxWzgXqId-56" value="ls-&gt;handler(c);" style="text;strokeColor=none;fillColor=none;align=left;verticalAlign=top;spacingLeft=4;spacingRight=4;overflow=hidden;rotatable=0;points=[[0,0.5],[1,0.5]];portConstraint=eastwest;fontSize=13;" vertex="1" parent="vayWjo9ZpgyIxWzgXqId-43">
          <mxGeometry y="78" width="179" height="26" as="geometry" />
        </mxCell>
        <mxCell id="vayWjo9ZpgyIxWzgXqId-46" value="ngx_get_connection" style="swimlane;fontStyle=1;childLayout=stackLayout;horizontal=1;startSize=26;fillColor=none;horizontalStack=0;resizeParent=1;resizeParentMax=0;resizeLast=0;collapsible=1;marginBottom=0;fontSize=13;" vertex="1" parent="vayWjo9ZpgyIxWzgXqId-1">
          <mxGeometry x="-193" y="636" width="179" height="52" as="geometry">
            <mxRectangle x="-196" y="733" width="147" height="26" as="alternateBounds" />
          </mxGeometry>
        </mxCell>
        <mxCell id="vayWjo9ZpgyIxWzgXqId-47" value="分配一个空闲的ngx_connection_t" style="text;strokeColor=none;fillColor=none;align=left;verticalAlign=top;spacingLeft=4;spacingRight=4;overflow=hidden;rotatable=0;points=[[0,0.5],[1,0.5]];portConstraint=eastwest;fontSize=13;" vertex="1" parent="vayWjo9ZpgyIxWzgXqId-46">
          <mxGeometry y="26" width="179" height="26" as="geometry" />
        </mxCell>
        <mxCell id="vayWjo9ZpgyIxWzgXqId-53" value="UDP包" style="shape=tape;whiteSpace=wrap;html=1;strokeWidth=2;size=0.19;dashed=1;fontSize=13;fontColor=#0000FF;" vertex="1" parent="vayWjo9ZpgyIxWzgXqId-1">
          <mxGeometry x="195" y="683" width="52" height="30" as="geometry" />
        </mxCell>
        <mxCell id="vayWjo9ZpgyIxWzgXqId-57" value="ngx_http_init_connection" style="swimlane;fontStyle=1;childLayout=stackLayout;horizontal=1;startSize=26;fillColor=none;horizontalStack=0;resizeParent=1;resizeParentMax=0;resizeLast=0;collapsible=1;marginBottom=0;fontSize=13;" vertex="1" parent="vayWjo9ZpgyIxWzgXqId-1">
          <mxGeometry x="-172" y="882" width="179" height="156" as="geometry">
            <mxRectangle x="-196" y="733" width="147" height="26" as="alternateBounds" />
          </mxGeometry>
        </mxCell>
        <mxCell id="vayWjo9ZpgyIxWzgXqId-67" value="创建对象ngx_http_connection_t" style="text;strokeColor=none;fillColor=none;align=left;verticalAlign=top;spacingLeft=4;spacingRight=4;overflow=hidden;rotatable=0;points=[[0,0.5],[1,0.5]];portConstraint=eastwest;fontSize=13;" vertex="1" parent="vayWjo9ZpgyIxWzgXqId-57">
          <mxGeometry y="26" width="179" height="26" as="geometry" />
        </mxCell>
        <mxCell id="vayWjo9ZpgyIxWzgXqId-68" value="set: c-&gt;data" style="text;strokeColor=none;fillColor=none;align=left;verticalAlign=top;spacingLeft=4;spacingRight=4;overflow=hidden;rotatable=0;points=[[0,0.5],[1,0.5]];portConstraint=eastwest;fontSize=13;" vertex="1" parent="vayWjo9ZpgyIxWzgXqId-57">
          <mxGeometry y="52" width="179" height="26" as="geometry" />
        </mxCell>
        <mxCell id="vayWjo9ZpgyIxWzgXqId-80" value="set: c-&gt;read-&gt;handler=ngx_http_wait_request_handler" style="text;strokeColor=none;fillColor=none;align=left;verticalAlign=top;spacingLeft=4;spacingRight=4;overflow=hidden;rotatable=0;points=[[0,0.5],[1,0.5]];portConstraint=eastwest;fontSize=13;" vertex="1" parent="vayWjo9ZpgyIxWzgXqId-57">
          <mxGeometry y="78" width="179" height="26" as="geometry" />
        </mxCell>
        <mxCell id="vayWjo9ZpgyIxWzgXqId-81" value="set: c-&gt;write-&gt;handler=ngx_http_empty_handler" style="text;strokeColor=none;fillColor=none;align=left;verticalAlign=top;spacingLeft=4;spacingRight=4;overflow=hidden;rotatable=0;points=[[0,0.5],[1,0.5]];portConstraint=eastwest;fontSize=13;" vertex="1" parent="vayWjo9ZpgyIxWzgXqId-57">
          <mxGeometry y="104" width="179" height="26" as="geometry" />
        </mxCell>
        <mxCell id="vayWjo9ZpgyIxWzgXqId-82" value="c：ngx_http_v3_init" style="text;strokeColor=none;fillColor=none;align=left;verticalAlign=top;spacingLeft=4;spacingRight=4;overflow=hidden;rotatable=0;points=[[0,0.5],[1,0.5]];portConstraint=eastwest;fontSize=13;" vertex="1" parent="vayWjo9ZpgyIxWzgXqId-57">
          <mxGeometry y="130" width="179" height="26" as="geometry" />
        </mxCell>
        <mxCell id="vayWjo9ZpgyIxWzgXqId-59" value="ngx_connection_t" style="swimlane;fontStyle=1;align=center;verticalAlign=top;childLayout=stackLayout;horizontal=1;startSize=26;horizontalStack=0;resizeParent=1;resizeParentMax=0;resizeLast=0;collapsible=1;marginBottom=0;fontSize=12;fillColor=#d5e8d4;strokeColor=#82b366;" vertex="1" parent="vayWjo9ZpgyIxWzgXqId-1">
          <mxGeometry x="3" y="720" width="128" height="86" as="geometry" />
        </mxCell>
        <mxCell id="vayWjo9ZpgyIxWzgXqId-61" value="" style="line;strokeWidth=1;fillColor=none;align=left;verticalAlign=middle;spacingTop=-1;spacingLeft=3;spacingRight=3;rotatable=0;labelPosition=right;points=[];portConstraint=eastwest;fontSize=13;" vertex="1" parent="vayWjo9ZpgyIxWzgXqId-59">
          <mxGeometry y="26" width="128" height="8" as="geometry" />
        </mxCell>
        <mxCell id="vayWjo9ZpgyIxWzgXqId-63" value="buffer" style="text;strokeColor=none;fillColor=none;align=left;verticalAlign=top;spacingLeft=4;spacingRight=4;overflow=hidden;rotatable=0;points=[[0,0.5],[1,0.5]];portConstraint=eastwest;fontSize=13;" vertex="1" parent="vayWjo9ZpgyIxWzgXqId-59">
          <mxGeometry y="34" width="128" height="26" as="geometry" />
        </mxCell>
        <mxCell id="vayWjo9ZpgyIxWzgXqId-73" value="data" style="text;strokeColor=none;fillColor=none;align=left;verticalAlign=top;spacingLeft=4;spacingRight=4;overflow=hidden;rotatable=0;points=[[0,0.5],[1,0.5]];portConstraint=eastwest;fontSize=13;" vertex="1" parent="vayWjo9ZpgyIxWzgXqId-59">
          <mxGeometry y="60" width="128" height="26" as="geometry" />
        </mxCell>
        <mxCell id="vayWjo9ZpgyIxWzgXqId-64" style="edgeStyle=orthogonalEdgeStyle;rounded=0;orthogonalLoop=1;jettySize=auto;html=1;exitX=1;exitY=0.5;exitDx=0;exitDy=0;entryX=0;entryY=0.25;entryDx=0;entryDy=0;fontSize=12;fontColor=#0000FF;dashed=1;" edge="1" parent="vayWjo9ZpgyIxWzgXqId-1" source="vayWjo9ZpgyIxWzgXqId-52" target="vayWjo9ZpgyIxWzgXqId-59">
          <mxGeometry relative="1" as="geometry" />
        </mxCell>
        <mxCell id="vayWjo9ZpgyIxWzgXqId-65" style="edgeStyle=orthogonalEdgeStyle;rounded=0;orthogonalLoop=1;jettySize=auto;html=1;exitX=1;exitY=0.5;exitDx=0;exitDy=0;entryX=0;entryY=0.5;entryDx=0;entryDy=0;entryPerimeter=0;fontSize=12;fontColor=#0000FF;dashed=1;" edge="1" parent="vayWjo9ZpgyIxWzgXqId-1" source="vayWjo9ZpgyIxWzgXqId-63" target="vayWjo9ZpgyIxWzgXqId-53">
          <mxGeometry relative="1" as="geometry" />
        </mxCell>
        <mxCell id="vayWjo9ZpgyIxWzgXqId-66" style="edgeStyle=orthogonalEdgeStyle;rounded=0;orthogonalLoop=1;jettySize=auto;html=1;exitX=1;exitY=0.5;exitDx=0;exitDy=0;entryX=0;entryY=0.25;entryDx=0;entryDy=0;fontSize=12;fontColor=#0000FF;" edge="1" parent="vayWjo9ZpgyIxWzgXqId-1" source="vayWjo9ZpgyIxWzgXqId-56" target="vayWjo9ZpgyIxWzgXqId-57">
          <mxGeometry relative="1" as="geometry" />
        </mxCell>
        <mxCell id="vayWjo9ZpgyIxWzgXqId-74" style="edgeStyle=orthogonalEdgeStyle;rounded=0;orthogonalLoop=1;jettySize=auto;html=1;exitX=1;exitY=0.5;exitDx=0;exitDy=0;entryX=0.5;entryY=0;entryDx=0;entryDy=0;fontSize=12;fontColor=#0000FF;dashed=1;fillColor=#d5e8d4;strokeColor=#82b366;" edge="1" parent="vayWjo9ZpgyIxWzgXqId-1" source="vayWjo9ZpgyIxWzgXqId-47" target="vayWjo9ZpgyIxWzgXqId-59">
          <mxGeometry relative="1" as="geometry" />
        </mxCell>
        <mxCell id="vayWjo9ZpgyIxWzgXqId-78" style="edgeStyle=orthogonalEdgeStyle;rounded=0;orthogonalLoop=1;jettySize=auto;html=1;exitX=1;exitY=0.5;exitDx=0;exitDy=0;entryX=0;entryY=0.25;entryDx=0;entryDy=0;dashed=1;fontSize=12;fontColor=#0000FF;fillColor=#d5e8d4;strokeColor=#82b366;" edge="1" parent="vayWjo9ZpgyIxWzgXqId-1" source="vayWjo9ZpgyIxWzgXqId-67" target="vayWjo9ZpgyIxWzgXqId-260">
          <mxGeometry relative="1" as="geometry">
            <mxPoint x="167" y="860" as="targetPoint" />
          </mxGeometry>
        </mxCell>
        <mxCell id="vayWjo9ZpgyIxWzgXqId-92" style="edgeStyle=orthogonalEdgeStyle;rounded=0;orthogonalLoop=1;jettySize=auto;html=1;exitX=1;exitY=0.75;exitDx=0;exitDy=0;entryX=0;entryY=0.25;entryDx=0;entryDy=0;fontSize=13;fontColor=#0000FF;" edge="1" parent="vayWjo9ZpgyIxWzgXqId-1" source="vayWjo9ZpgyIxWzgXqId-83" target="vayWjo9ZpgyIxWzgXqId-90">
          <mxGeometry relative="1" as="geometry" />
        </mxCell>
        <mxCell id="vayWjo9ZpgyIxWzgXqId-83" value="ngx_http_v3_init" style="swimlane;fontStyle=1;childLayout=stackLayout;horizontal=1;startSize=26;fillColor=none;horizontalStack=0;resizeParent=1;resizeParentMax=0;resizeLast=0;collapsible=1;marginBottom=0;fontSize=13;" vertex="1" parent="vayWjo9ZpgyIxWzgXqId-1">
          <mxGeometry x="75" y="1065" width="185" height="52" as="geometry">
            <mxRectangle x="-196" y="733" width="147" height="26" as="alternateBounds" />
          </mxGeometry>
        </mxCell>
        <mxCell id="vayWjo9ZpgyIxWzgXqId-84" value="if：c-&gt;quic == NULL:" style="text;strokeColor=none;fillColor=none;align=left;verticalAlign=top;spacingLeft=4;spacingRight=4;overflow=hidden;rotatable=0;points=[[0,0.5],[1,0.5]];portConstraint=eastwest;fontSize=13;" vertex="1" parent="vayWjo9ZpgyIxWzgXqId-83">
          <mxGeometry y="26" width="185" height="26" as="geometry" />
        </mxCell>
        <mxCell id="vayWjo9ZpgyIxWzgXqId-89" style="edgeStyle=orthogonalEdgeStyle;rounded=0;orthogonalLoop=1;jettySize=auto;html=1;exitX=1;exitY=0.5;exitDx=0;exitDy=0;entryX=0;entryY=0.25;entryDx=0;entryDy=0;fontSize=13;fontColor=#0000FF;" edge="1" parent="vayWjo9ZpgyIxWzgXqId-1" source="vayWjo9ZpgyIxWzgXqId-82" target="vayWjo9ZpgyIxWzgXqId-83">
          <mxGeometry relative="1" as="geometry" />
        </mxCell>
        <mxCell id="vayWjo9ZpgyIxWzgXqId-95" style="edgeStyle=orthogonalEdgeStyle;rounded=0;orthogonalLoop=1;jettySize=auto;html=1;exitX=1;exitY=0.75;exitDx=0;exitDy=0;entryX=0;entryY=0.25;entryDx=0;entryDy=0;fontSize=13;fontColor=#0000FF;" edge="1" parent="vayWjo9ZpgyIxWzgXqId-1" source="vayWjo9ZpgyIxWzgXqId-90" target="vayWjo9ZpgyIxWzgXqId-93">
          <mxGeometry relative="1" as="geometry">
            <Array as="points">
              <mxPoint x="526" y="1104" />
              <mxPoint x="526" y="1128" />
              <mxPoint x="-461" y="1128" />
              <mxPoint x="-461" y="1321" />
            </Array>
          </mxGeometry>
        </mxCell>
        <mxCell id="vayWjo9ZpgyIxWzgXqId-90" value="ngx_quic_run" style="swimlane;fontStyle=1;childLayout=stackLayout;horizontal=1;startSize=26;fillColor=none;horizontalStack=0;resizeParent=1;resizeParentMax=0;resizeLast=0;collapsible=1;marginBottom=0;fontSize=13;" vertex="1" parent="vayWjo9ZpgyIxWzgXqId-1">
          <mxGeometry x="321" y="1065" width="185" height="52" as="geometry">
            <mxRectangle x="-196" y="733" width="147" height="26" as="alternateBounds" />
          </mxGeometry>
        </mxCell>
        <mxCell id="vayWjo9ZpgyIxWzgXqId-91" value="c：ngx_quic_input" style="text;strokeColor=none;fillColor=none;align=left;verticalAlign=top;spacingLeft=4;spacingRight=4;overflow=hidden;rotatable=0;points=[[0,0.5],[1,0.5]];portConstraint=eastwest;fontSize=13;" vertex="1" parent="vayWjo9ZpgyIxWzgXqId-90">
          <mxGeometry y="26" width="185" height="26" as="geometry" />
        </mxCell>
        <mxCell id="vayWjo9ZpgyIxWzgXqId-98" style="edgeStyle=orthogonalEdgeStyle;rounded=0;orthogonalLoop=1;jettySize=auto;html=1;exitX=1;exitY=0.5;exitDx=0;exitDy=0;entryX=0;entryY=0.25;entryDx=0;entryDy=0;fontSize=13;fontColor=#0000FF;" edge="1" parent="vayWjo9ZpgyIxWzgXqId-1" source="vayWjo9ZpgyIxWzgXqId-94" target="vayWjo9ZpgyIxWzgXqId-96">
          <mxGeometry relative="1" as="geometry" />
        </mxCell>
        <mxCell id="vayWjo9ZpgyIxWzgXqId-93" value="ngx_quic_input" style="swimlane;fontStyle=1;childLayout=stackLayout;horizontal=1;startSize=26;fillColor=none;horizontalStack=0;resizeParent=1;resizeParentMax=0;resizeLast=0;collapsible=1;marginBottom=0;fontSize=13;" vertex="1" parent="vayWjo9ZpgyIxWzgXqId-1">
          <mxGeometry x="-441" y="1308" width="206" height="52" as="geometry">
            <mxRectangle x="-196" y="733" width="147" height="26" as="alternateBounds" />
          </mxGeometry>
        </mxCell>
        <mxCell id="vayWjo9ZpgyIxWzgXqId-94" value="循环：ngx_quic_process_packet" style="text;strokeColor=none;fillColor=none;align=left;verticalAlign=top;spacingLeft=4;spacingRight=4;overflow=hidden;rotatable=0;points=[[0,0.5],[1,0.5]];portConstraint=eastwest;fontSize=13;" vertex="1" parent="vayWjo9ZpgyIxWzgXqId-93">
          <mxGeometry y="26" width="206" height="26" as="geometry" />
        </mxCell>
        <mxCell id="vayWjo9ZpgyIxWzgXqId-96" value="ngx_quic_process_packet" style="swimlane;fontStyle=1;childLayout=stackLayout;horizontal=1;startSize=26;fillColor=none;horizontalStack=0;resizeParent=1;resizeParentMax=0;resizeLast=0;collapsible=1;marginBottom=0;fontSize=13;" vertex="1" parent="vayWjo9ZpgyIxWzgXqId-1">
          <mxGeometry x="-187" y="1308" width="180" height="52" as="geometry">
            <mxRectangle x="-196" y="733" width="147" height="26" as="alternateBounds" />
          </mxGeometry>
        </mxCell>
        <mxCell id="vayWjo9ZpgyIxWzgXqId-97" value="c：ngx_quic_parse_packet" style="text;strokeColor=none;fillColor=none;align=left;verticalAlign=top;spacingLeft=4;spacingRight=4;overflow=hidden;rotatable=0;points=[[0,0.5],[1,0.5]];portConstraint=eastwest;fontSize=13;" vertex="1" parent="vayWjo9ZpgyIxWzgXqId-96">
          <mxGeometry y="26" width="180" height="26" as="geometry" />
        </mxCell>
        <mxCell id="vayWjo9ZpgyIxWzgXqId-99" value="ngx_quic_parse_packet" style="swimlane;fontStyle=1;childLayout=stackLayout;horizontal=1;startSize=26;fillColor=none;horizontalStack=0;resizeParent=1;resizeParentMax=0;resizeLast=0;collapsible=1;marginBottom=0;fontSize=13;" vertex="1" parent="vayWjo9ZpgyIxWzgXqId-1">
          <mxGeometry x="32" y="1308" width="180" height="130" as="geometry">
            <mxRectangle x="-196" y="733" width="147" height="26" as="alternateBounds" />
          </mxGeometry>
        </mxCell>
        <mxCell id="vayWjo9ZpgyIxWzgXqId-100" value="如果是短包头。" style="text;strokeColor=none;fillColor=none;align=left;verticalAlign=top;spacingLeft=4;spacingRight=4;overflow=hidden;rotatable=0;points=[[0,0.5],[1,0.5]];portConstraint=eastwest;fontSize=13;" vertex="1" parent="vayWjo9ZpgyIxWzgXqId-99">
          <mxGeometry y="26" width="180" height="26" as="geometry" />
        </mxCell>
        <mxCell id="vayWjo9ZpgyIxWzgXqId-104" value="否则是长包头" style="text;strokeColor=none;fillColor=none;align=left;verticalAlign=top;spacingLeft=4;spacingRight=4;overflow=hidden;rotatable=0;points=[[0,0.5],[1,0.5]];portConstraint=eastwest;fontSize=13;" vertex="1" parent="vayWjo9ZpgyIxWzgXqId-99">
          <mxGeometry y="52" width="180" height="26" as="geometry" />
        </mxCell>
        <mxCell id="vayWjo9ZpgyIxWzgXqId-176" value="ngx_connection_t对象有对应的ngx_quic_connection_t" style="text;strokeColor=none;fillColor=none;align=left;verticalAlign=top;spacingLeft=4;spacingRight=4;overflow=hidden;rotatable=0;points=[[0,0.5],[1,0.5]];portConstraint=eastwest;fontSize=13;fontStyle=0" vertex="1" parent="vayWjo9ZpgyIxWzgXqId-99">
          <mxGeometry y="78" width="180" height="26" as="geometry" />
        </mxCell>
        <mxCell id="vayWjo9ZpgyIxWzgXqId-177" value="ngx_connection_t对象无对应的ngx_quic_connection_t" style="text;strokeColor=none;fillColor=none;align=left;verticalAlign=top;spacingLeft=4;spacingRight=4;overflow=hidden;rotatable=0;points=[[0,0.5],[1,0.5]];portConstraint=eastwest;fontSize=13;fontStyle=0" vertex="1" parent="vayWjo9ZpgyIxWzgXqId-99">
          <mxGeometry y="104" width="180" height="26" as="geometry" />
        </mxCell>
        <mxCell id="vayWjo9ZpgyIxWzgXqId-101" style="edgeStyle=orthogonalEdgeStyle;rounded=0;orthogonalLoop=1;jettySize=auto;html=1;exitX=1;exitY=0.5;exitDx=0;exitDy=0;entryX=0;entryY=0.25;entryDx=0;entryDy=0;fontSize=13;fontColor=#0000FF;" edge="1" parent="vayWjo9ZpgyIxWzgXqId-1" source="vayWjo9ZpgyIxWzgXqId-97" target="vayWjo9ZpgyIxWzgXqId-99">
          <mxGeometry relative="1" as="geometry" />
        </mxCell>
        <mxCell id="vayWjo9ZpgyIxWzgXqId-105" value="短包头处理逻辑" style="swimlane;fontStyle=1;childLayout=stackLayout;horizontal=1;startSize=26;fillColor=none;horizontalStack=0;resizeParent=1;resizeParentMax=0;resizeLast=0;collapsible=1;marginBottom=0;fontSize=13;dashed=1;fontColor=#0000FF;" vertex="1" parent="vayWjo9ZpgyIxWzgXqId-1">
          <mxGeometry x="252" y="1193" width="179" height="104" as="geometry">
            <mxRectangle x="-424" y="817" width="147" height="26" as="alternateBounds" />
          </mxGeometry>
        </mxCell>
        <mxCell id="vayWjo9ZpgyIxWzgXqId-106" value="pkt-&gt;level = ssl_encryption_application;" style="text;strokeColor=none;fillColor=none;align=left;verticalAlign=top;spacingLeft=4;spacingRight=4;overflow=hidden;rotatable=0;points=[[0,0.5],[1,0.5]];portConstraint=eastwest;fontSize=13;" vertex="1" parent="vayWjo9ZpgyIxWzgXqId-105">
          <mxGeometry y="26" width="179" height="26" as="geometry" />
        </mxCell>
        <mxCell id="vayWjo9ZpgyIxWzgXqId-107" value="ngx_quic_parse_short_header" style="text;strokeColor=none;fillColor=none;align=left;verticalAlign=top;spacingLeft=4;spacingRight=4;overflow=hidden;rotatable=0;points=[[0,0.5],[1,0.5]];portConstraint=eastwest;fontSize=13;" vertex="1" parent="vayWjo9ZpgyIxWzgXqId-105">
          <mxGeometry y="52" width="179" height="26" as="geometry" />
        </mxCell>
        <mxCell id="vayWjo9ZpgyIxWzgXqId-114" value="return" style="text;strokeColor=none;fillColor=none;align=left;verticalAlign=top;spacingLeft=4;spacingRight=4;overflow=hidden;rotatable=0;points=[[0,0.5],[1,0.5]];portConstraint=eastwest;fontSize=13;" vertex="1" parent="vayWjo9ZpgyIxWzgXqId-105">
          <mxGeometry y="78" width="179" height="26" as="geometry" />
        </mxCell>
        <mxCell id="vayWjo9ZpgyIxWzgXqId-109" style="edgeStyle=orthogonalEdgeStyle;rounded=0;orthogonalLoop=1;jettySize=auto;html=1;exitX=1;exitY=0.5;exitDx=0;exitDy=0;entryX=0;entryY=0.25;entryDx=0;entryDy=0;fontSize=13;fontColor=#0000FF;" edge="1" parent="vayWjo9ZpgyIxWzgXqId-1" source="vayWjo9ZpgyIxWzgXqId-100" target="vayWjo9ZpgyIxWzgXqId-105">
          <mxGeometry relative="1" as="geometry" />
        </mxCell>
        <mxCell id="vayWjo9ZpgyIxWzgXqId-110" value="长包头处理逻辑" style="swimlane;fontStyle=1;childLayout=stackLayout;horizontal=1;startSize=26;fillColor=none;horizontalStack=0;resizeParent=1;resizeParentMax=0;resizeLast=0;collapsible=1;marginBottom=0;fontSize=13;dashed=1;fontColor=#0000FF;" vertex="1" parent="vayWjo9ZpgyIxWzgXqId-1">
          <mxGeometry x="331" y="1381" width="179" height="104" as="geometry">
            <mxRectangle x="-424" y="817" width="147" height="26" as="alternateBounds" />
          </mxGeometry>
        </mxCell>
        <mxCell id="vayWjo9ZpgyIxWzgXqId-111" value="c: ngx_quic_parse_long_header" style="text;strokeColor=none;fillColor=none;align=left;verticalAlign=top;spacingLeft=4;spacingRight=4;overflow=hidden;rotatable=0;points=[[0,0.5],[1,0.5]];portConstraint=eastwest;fontSize=13;" vertex="1" parent="vayWjo9ZpgyIxWzgXqId-110">
          <mxGeometry y="26" width="179" height="26" as="geometry" />
        </mxCell>
        <mxCell id="vayWjo9ZpgyIxWzgXqId-112" value="如果版本号不支持，返回NGX_ABORT" style="text;strokeColor=none;fillColor=none;align=left;verticalAlign=top;spacingLeft=4;spacingRight=4;overflow=hidden;rotatable=0;points=[[0,0.5],[1,0.5]];portConstraint=eastwest;fontSize=13;" vertex="1" parent="vayWjo9ZpgyIxWzgXqId-110">
          <mxGeometry y="52" width="179" height="26" as="geometry" />
        </mxCell>
        <mxCell id="vayWjo9ZpgyIxWzgXqId-115" value="c: ngx_quic_parse_long_header_v1" style="text;strokeColor=none;fillColor=none;align=left;verticalAlign=top;spacingLeft=4;spacingRight=4;overflow=hidden;rotatable=0;points=[[0,0.5],[1,0.5]];portConstraint=eastwest;fontSize=13;" vertex="1" parent="vayWjo9ZpgyIxWzgXqId-110">
          <mxGeometry y="78" width="179" height="26" as="geometry" />
        </mxCell>
        <mxCell id="vayWjo9ZpgyIxWzgXqId-113" style="edgeStyle=orthogonalEdgeStyle;rounded=0;orthogonalLoop=1;jettySize=auto;html=1;exitX=1;exitY=0.5;exitDx=0;exitDy=0;entryX=0;entryY=0;entryDx=0;entryDy=0;fontSize=13;fontColor=#0000FF;" edge="1" parent="vayWjo9ZpgyIxWzgXqId-1" source="vayWjo9ZpgyIxWzgXqId-104" target="vayWjo9ZpgyIxWzgXqId-110">
          <mxGeometry relative="1" as="geometry">
            <mxPoint x="216" y="1328" as="sourcePoint" />
          </mxGeometry>
        </mxCell>
        <mxCell id="vayWjo9ZpgyIxWzgXqId-116" style="edgeStyle=orthogonalEdgeStyle;rounded=0;orthogonalLoop=1;jettySize=auto;html=1;exitX=0.528;exitY=1.018;exitDx=0;exitDy=0;fontSize=13;fontColor=#0000FF;exitPerimeter=0;dashed=1;" edge="1" parent="vayWjo9ZpgyIxWzgXqId-1" source="vayWjo9ZpgyIxWzgXqId-94" target="vayWjo9ZpgyIxWzgXqId-117">
          <mxGeometry relative="1" as="geometry">
            <mxPoint x="-332" y="1459" as="targetPoint" />
          </mxGeometry>
        </mxCell>
        <mxCell id="vayWjo9ZpgyIxWzgXqId-117" value="ngx_quic_header_t" style="swimlane;fontStyle=1;align=center;verticalAlign=top;childLayout=stackLayout;horizontal=1;startSize=26;horizontalStack=0;resizeParent=1;resizeParentMax=0;resizeLast=0;collapsible=1;marginBottom=0;fontSize=12;fillColor=#d5e8d4;strokeColor=#82b366;" vertex="1" parent="vayWjo9ZpgyIxWzgXqId-1">
          <mxGeometry x="-395.5" y="1458" width="128" height="164" as="geometry" />
        </mxCell>
        <mxCell id="vayWjo9ZpgyIxWzgXqId-118" value="" style="line;strokeWidth=1;fillColor=none;align=left;verticalAlign=middle;spacingTop=-1;spacingLeft=3;spacingRight=3;rotatable=0;labelPosition=right;points=[];portConstraint=eastwest;fontSize=13;" vertex="1" parent="vayWjo9ZpgyIxWzgXqId-117">
          <mxGeometry y="26" width="128" height="8" as="geometry" />
        </mxCell>
        <mxCell id="vayWjo9ZpgyIxWzgXqId-119" value="raw" style="text;strokeColor=none;fillColor=none;align=left;verticalAlign=top;spacingLeft=4;spacingRight=4;overflow=hidden;rotatable=0;points=[[0,0.5],[1,0.5]];portConstraint=eastwest;fontSize=13;" vertex="1" parent="vayWjo9ZpgyIxWzgXqId-117">
          <mxGeometry y="34" width="128" height="26" as="geometry" />
        </mxCell>
        <mxCell id="vayWjo9ZpgyIxWzgXqId-120" value="data" style="text;strokeColor=none;fillColor=none;align=left;verticalAlign=top;spacingLeft=4;spacingRight=4;overflow=hidden;rotatable=0;points=[[0,0.5],[1,0.5]];portConstraint=eastwest;fontSize=13;" vertex="1" parent="vayWjo9ZpgyIxWzgXqId-117">
          <mxGeometry y="60" width="128" height="26" as="geometry" />
        </mxCell>
        <mxCell id="vayWjo9ZpgyIxWzgXqId-130" value="len: point to end of udp" style="text;strokeColor=none;fillColor=none;align=left;verticalAlign=top;spacingLeft=4;spacingRight=4;overflow=hidden;rotatable=0;points=[[0,0.5],[1,0.5]];portConstraint=eastwest;fontSize=13;" vertex="1" parent="vayWjo9ZpgyIxWzgXqId-117">
          <mxGeometry y="86" width="128" height="26" as="geometry" />
        </mxCell>
        <mxCell id="vayWjo9ZpgyIxWzgXqId-128" value="first：is first frame" style="text;strokeColor=none;fillColor=none;align=left;verticalAlign=top;spacingLeft=4;spacingRight=4;overflow=hidden;rotatable=0;points=[[0,0.5],[1,0.5]];portConstraint=eastwest;fontSize=13;" vertex="1" parent="vayWjo9ZpgyIxWzgXqId-117">
          <mxGeometry y="112" width="128" height="26" as="geometry" />
        </mxCell>
        <mxCell id="vayWjo9ZpgyIxWzgXqId-129" value="flags=frame[0]" style="text;strokeColor=none;fillColor=none;align=left;verticalAlign=top;spacingLeft=4;spacingRight=4;overflow=hidden;rotatable=0;points=[[0,0.5],[1,0.5]];portConstraint=eastwest;fontSize=13;" vertex="1" parent="vayWjo9ZpgyIxWzgXqId-117">
          <mxGeometry y="138" width="128" height="26" as="geometry" />
        </mxCell>
        <mxCell id="vayWjo9ZpgyIxWzgXqId-121" style="edgeStyle=orthogonalEdgeStyle;rounded=0;orthogonalLoop=1;jettySize=auto;html=1;exitX=1;exitY=0.5;exitDx=0;exitDy=0;dashed=1;fontSize=13;fontColor=#0000FF;entryX=0.033;entryY=0.172;entryDx=0;entryDy=0;entryPerimeter=0;" edge="1" parent="vayWjo9ZpgyIxWzgXqId-1" source="vayWjo9ZpgyIxWzgXqId-119" target="vayWjo9ZpgyIxWzgXqId-126">
          <mxGeometry relative="1" as="geometry">
            <mxPoint x="-190" y="1460" as="targetPoint" />
          </mxGeometry>
        </mxCell>
        <mxCell id="vayWjo9ZpgyIxWzgXqId-126" value="UDP包" style="shape=tape;whiteSpace=wrap;html=1;strokeWidth=2;size=0.19;dashed=1;fontSize=13;fontColor=#0000FF;" vertex="1" parent="vayWjo9ZpgyIxWzgXqId-1">
          <mxGeometry x="-226" y="1469" width="52" height="30" as="geometry" />
        </mxCell>
        <mxCell id="vayWjo9ZpgyIxWzgXqId-127" style="edgeStyle=orthogonalEdgeStyle;rounded=0;orthogonalLoop=1;jettySize=auto;html=1;exitX=1;exitY=0.5;exitDx=0;exitDy=0;entryX=-0.012;entryY=0.146;entryDx=0;entryDy=0;entryPerimeter=0;dashed=1;fontSize=13;fontColor=#0000FF;" edge="1" parent="vayWjo9ZpgyIxWzgXqId-1" source="vayWjo9ZpgyIxWzgXqId-120" target="vayWjo9ZpgyIxWzgXqId-126">
          <mxGeometry relative="1" as="geometry" />
        </mxCell>
        <mxCell id="vayWjo9ZpgyIxWzgXqId-132" value="ngx_quic_parse_long_header" style="swimlane;fontStyle=1;childLayout=stackLayout;horizontal=1;startSize=26;fillColor=none;horizontalStack=0;resizeParent=1;resizeParentMax=0;resizeLast=0;collapsible=1;marginBottom=0;fontSize=13;" vertex="1" parent="vayWjo9ZpgyIxWzgXqId-1">
          <mxGeometry x="561" y="1381" width="180" height="52" as="geometry">
            <mxRectangle x="-196" y="733" width="147" height="26" as="alternateBounds" />
          </mxGeometry>
        </mxCell>
        <mxCell id="vayWjo9ZpgyIxWzgXqId-133" value="解析长包头" style="text;strokeColor=none;fillColor=none;align=left;verticalAlign=top;spacingLeft=4;spacingRight=4;overflow=hidden;rotatable=0;points=[[0,0.5],[1,0.5]];portConstraint=eastwest;fontSize=13;" vertex="1" parent="vayWjo9ZpgyIxWzgXqId-132">
          <mxGeometry y="26" width="180" height="26" as="geometry" />
        </mxCell>
        <mxCell id="vayWjo9ZpgyIxWzgXqId-135" style="edgeStyle=orthogonalEdgeStyle;rounded=0;orthogonalLoop=1;jettySize=auto;html=1;exitX=1;exitY=0.5;exitDx=0;exitDy=0;entryX=-0.004;entryY=0.146;entryDx=0;entryDy=0;entryPerimeter=0;fontSize=13;fontColor=#0000FF;" edge="1" parent="vayWjo9ZpgyIxWzgXqId-1" source="vayWjo9ZpgyIxWzgXqId-111" target="vayWjo9ZpgyIxWzgXqId-132">
          <mxGeometry relative="1" as="geometry" />
        </mxCell>
        <mxCell id="vayWjo9ZpgyIxWzgXqId-136" value="ngx_quic_header_t" style="swimlane;fontStyle=1;align=center;verticalAlign=top;childLayout=stackLayout;horizontal=1;startSize=26;horizontalStack=0;resizeParent=1;resizeParentMax=0;resizeLast=0;collapsible=1;marginBottom=0;fontSize=12;fillColor=#d5e8d4;strokeColor=#82b366;" vertex="1" parent="vayWjo9ZpgyIxWzgXqId-1">
          <mxGeometry x="777" y="1198" width="128" height="242" as="geometry" />
        </mxCell>
        <mxCell id="vayWjo9ZpgyIxWzgXqId-137" value="" style="line;strokeWidth=1;fillColor=none;align=left;verticalAlign=middle;spacingTop=-1;spacingLeft=3;spacingRight=3;rotatable=0;labelPosition=right;points=[];portConstraint=eastwest;fontSize=13;" vertex="1" parent="vayWjo9ZpgyIxWzgXqId-136">
          <mxGeometry y="26" width="128" height="8" as="geometry" />
        </mxCell>
        <mxCell id="vayWjo9ZpgyIxWzgXqId-138" value="raw" style="text;strokeColor=none;fillColor=none;align=left;verticalAlign=top;spacingLeft=4;spacingRight=4;overflow=hidden;rotatable=0;points=[[0,0.5],[1,0.5]];portConstraint=eastwest;fontSize=13;" vertex="1" parent="vayWjo9ZpgyIxWzgXqId-136">
          <mxGeometry y="34" width="128" height="26" as="geometry" />
        </mxCell>
        <mxCell id="vayWjo9ZpgyIxWzgXqId-139" value="data" style="text;strokeColor=none;fillColor=none;align=left;verticalAlign=top;spacingLeft=4;spacingRight=4;overflow=hidden;rotatable=0;points=[[0,0.5],[1,0.5]];portConstraint=eastwest;fontSize=13;" vertex="1" parent="vayWjo9ZpgyIxWzgXqId-136">
          <mxGeometry y="60" width="128" height="26" as="geometry" />
        </mxCell>
        <mxCell id="vayWjo9ZpgyIxWzgXqId-140" value="len: point to end of udp" style="text;strokeColor=none;fillColor=none;align=left;verticalAlign=top;spacingLeft=4;spacingRight=4;overflow=hidden;rotatable=0;points=[[0,0.5],[1,0.5]];portConstraint=eastwest;fontSize=13;" vertex="1" parent="vayWjo9ZpgyIxWzgXqId-136">
          <mxGeometry y="86" width="128" height="26" as="geometry" />
        </mxCell>
        <mxCell id="vayWjo9ZpgyIxWzgXqId-141" value="first：is first frame" style="text;strokeColor=none;fillColor=none;align=left;verticalAlign=top;spacingLeft=4;spacingRight=4;overflow=hidden;rotatable=0;points=[[0,0.5],[1,0.5]];portConstraint=eastwest;fontSize=13;" vertex="1" parent="vayWjo9ZpgyIxWzgXqId-136">
          <mxGeometry y="112" width="128" height="26" as="geometry" />
        </mxCell>
        <mxCell id="vayWjo9ZpgyIxWzgXqId-142" value="flags=frame[0]" style="text;strokeColor=none;fillColor=none;align=left;verticalAlign=top;spacingLeft=4;spacingRight=4;overflow=hidden;rotatable=0;points=[[0,0.5],[1,0.5]];portConstraint=eastwest;fontSize=13;" vertex="1" parent="vayWjo9ZpgyIxWzgXqId-136">
          <mxGeometry y="138" width="128" height="26" as="geometry" />
        </mxCell>
        <mxCell id="vayWjo9ZpgyIxWzgXqId-144" value="version" style="text;strokeColor=none;fillColor=none;align=left;verticalAlign=top;spacingLeft=4;spacingRight=4;overflow=hidden;rotatable=0;points=[[0,0.5],[1,0.5]];portConstraint=eastwest;fontSize=13;fontColor=#97D077;" vertex="1" parent="vayWjo9ZpgyIxWzgXqId-136">
          <mxGeometry y="164" width="128" height="26" as="geometry" />
        </mxCell>
        <mxCell id="vayWjo9ZpgyIxWzgXqId-145" value="dcid" style="text;strokeColor=none;fillColor=none;align=left;verticalAlign=top;spacingLeft=4;spacingRight=4;overflow=hidden;rotatable=0;points=[[0,0.5],[1,0.5]];portConstraint=eastwest;fontSize=13;fontColor=#97D077;" vertex="1" parent="vayWjo9ZpgyIxWzgXqId-136">
          <mxGeometry y="190" width="128" height="26" as="geometry" />
        </mxCell>
        <mxCell id="vayWjo9ZpgyIxWzgXqId-146" value="scid" style="text;strokeColor=none;fillColor=none;align=left;verticalAlign=top;spacingLeft=4;spacingRight=4;overflow=hidden;rotatable=0;points=[[0,0.5],[1,0.5]];portConstraint=eastwest;fontSize=13;fontColor=#97D077;" vertex="1" parent="vayWjo9ZpgyIxWzgXqId-136">
          <mxGeometry y="216" width="128" height="26" as="geometry" />
        </mxCell>
        <mxCell id="vayWjo9ZpgyIxWzgXqId-143" style="edgeStyle=orthogonalEdgeStyle;rounded=0;orthogonalLoop=1;jettySize=auto;html=1;exitX=1;exitY=0.5;exitDx=0;exitDy=0;fontSize=13;fontColor=#0000FF;dashed=1;entryX=0.5;entryY=0;entryDx=0;entryDy=0;" edge="1" parent="vayWjo9ZpgyIxWzgXqId-1" source="vayWjo9ZpgyIxWzgXqId-133" target="vayWjo9ZpgyIxWzgXqId-136">
          <mxGeometry relative="1" as="geometry">
            <mxPoint x="655.7684615384615" y="1562.53" as="targetPoint" />
            <mxPoint x="654.998" y="1464.9979999999998" as="sourcePoint" />
          </mxGeometry>
        </mxCell>
        <mxCell id="vayWjo9ZpgyIxWzgXqId-147" value="ngx_quic_parse_long_header_v1" style="swimlane;fontStyle=1;childLayout=stackLayout;horizontal=1;startSize=26;fillColor=none;horizontalStack=0;resizeParent=1;resizeParentMax=0;resizeLast=0;collapsible=1;marginBottom=0;fontSize=13;" vertex="1" parent="vayWjo9ZpgyIxWzgXqId-1">
          <mxGeometry x="545" y="1530" width="212" height="156" as="geometry">
            <mxRectangle x="-196" y="733" width="147" height="26" as="alternateBounds" />
          </mxGeometry>
        </mxCell>
        <mxCell id="vayWjo9ZpgyIxWzgXqId-148" value="if: is initail packet" style="text;strokeColor=none;fillColor=none;align=left;verticalAlign=top;spacingLeft=4;spacingRight=4;overflow=hidden;rotatable=0;points=[[0,0.5],[1,0.5]];portConstraint=eastwest;fontSize=13;" vertex="1" parent="vayWjo9ZpgyIxWzgXqId-147">
          <mxGeometry y="26" width="212" height="26" as="geometry" />
        </mxCell>
        <mxCell id="vayWjo9ZpgyIxWzgXqId-150" value="elif: is zero-rtt packet" style="text;strokeColor=none;fillColor=none;align=left;verticalAlign=top;spacingLeft=4;spacingRight=4;overflow=hidden;rotatable=0;points=[[0,0.5],[1,0.5]];portConstraint=eastwest;fontSize=13;" vertex="1" parent="vayWjo9ZpgyIxWzgXqId-147">
          <mxGeometry y="52" width="212" height="26" as="geometry" />
        </mxCell>
        <mxCell id="vayWjo9ZpgyIxWzgXqId-151" value="elif: is handshake packet" style="text;strokeColor=none;fillColor=none;align=left;verticalAlign=top;spacingLeft=4;spacingRight=4;overflow=hidden;rotatable=0;points=[[0,0.5],[1,0.5]];portConstraint=eastwest;fontSize=13;" vertex="1" parent="vayWjo9ZpgyIxWzgXqId-147">
          <mxGeometry y="78" width="212" height="26" as="geometry" />
        </mxCell>
        <mxCell id="vayWjo9ZpgyIxWzgXqId-152" value="else: return NGX_DECLINED" style="text;strokeColor=none;fillColor=none;align=left;verticalAlign=top;spacingLeft=4;spacingRight=4;overflow=hidden;rotatable=0;points=[[0,0.5],[1,0.5]];portConstraint=eastwest;fontSize=13;" vertex="1" parent="vayWjo9ZpgyIxWzgXqId-147">
          <mxGeometry y="104" width="212" height="26" as="geometry" />
        </mxCell>
        <mxCell id="vayWjo9ZpgyIxWzgXqId-172" value="往后读出frame长度，并设置packet的正确帧长" style="text;strokeColor=none;fillColor=none;align=left;verticalAlign=top;spacingLeft=4;spacingRight=4;overflow=hidden;rotatable=0;points=[[0,0.5],[1,0.5]];portConstraint=eastwest;fontSize=13;" vertex="1" parent="vayWjo9ZpgyIxWzgXqId-147">
          <mxGeometry y="130" width="212" height="26" as="geometry" />
        </mxCell>
        <mxCell id="vayWjo9ZpgyIxWzgXqId-149" style="edgeStyle=orthogonalEdgeStyle;rounded=0;orthogonalLoop=1;jettySize=auto;html=1;exitX=1;exitY=0.5;exitDx=0;exitDy=0;entryX=0;entryY=0.25;entryDx=0;entryDy=0;fontSize=13;fontColor=#97D077;" edge="1" parent="vayWjo9ZpgyIxWzgXqId-1" source="vayWjo9ZpgyIxWzgXqId-115" target="vayWjo9ZpgyIxWzgXqId-147">
          <mxGeometry relative="1" as="geometry" />
        </mxCell>
        <mxCell id="vayWjo9ZpgyIxWzgXqId-153" value="initial包处理逻辑" style="swimlane;fontStyle=1;childLayout=stackLayout;horizontal=1;startSize=26;fillColor=none;horizontalStack=0;resizeParent=1;resizeParentMax=0;resizeLast=0;collapsible=1;marginBottom=0;fontSize=13;dashed=1;fontColor=#0000FF;" vertex="1" parent="vayWjo9ZpgyIxWzgXqId-1">
          <mxGeometry x="839" y="1539" width="192" height="78" as="geometry">
            <mxRectangle x="-424" y="817" width="147" height="26" as="alternateBounds" />
          </mxGeometry>
        </mxCell>
        <mxCell id="vayWjo9ZpgyIxWzgXqId-154" value="读位于sid后面的token长度：0" style="text;strokeColor=none;fillColor=none;align=left;verticalAlign=top;spacingLeft=4;spacingRight=4;overflow=hidden;rotatable=0;points=[[0,0.5],[1,0.5]];portConstraint=eastwest;fontSize=13;" vertex="1" parent="vayWjo9ZpgyIxWzgXqId-153">
          <mxGeometry y="26" width="192" height="26" as="geometry" />
        </mxCell>
        <mxCell id="vayWjo9ZpgyIxWzgXqId-156" value="set：" style="text;strokeColor=none;fillColor=none;align=left;verticalAlign=top;spacingLeft=4;spacingRight=4;overflow=hidden;rotatable=0;points=[[0,0.5],[1,0.5]];portConstraint=eastwest;fontSize=13;" vertex="1" parent="vayWjo9ZpgyIxWzgXqId-153">
          <mxGeometry y="52" width="192" height="26" as="geometry" />
        </mxCell>
        <mxCell id="vayWjo9ZpgyIxWzgXqId-157" style="edgeStyle=orthogonalEdgeStyle;rounded=0;orthogonalLoop=1;jettySize=auto;html=1;exitX=1;exitY=0.5;exitDx=0;exitDy=0;entryX=-0.001;entryY=0.136;entryDx=0;entryDy=0;entryPerimeter=0;fontSize=13;fontColor=#97D077;" edge="1" parent="vayWjo9ZpgyIxWzgXqId-1" source="vayWjo9ZpgyIxWzgXqId-148" target="vayWjo9ZpgyIxWzgXqId-153">
          <mxGeometry relative="1" as="geometry" />
        </mxCell>
        <mxCell id="vayWjo9ZpgyIxWzgXqId-158" value="ngx_quic_header_t" style="swimlane;fontStyle=1;align=center;verticalAlign=top;childLayout=stackLayout;horizontal=1;startSize=26;horizontalStack=0;resizeParent=1;resizeParentMax=0;resizeLast=0;collapsible=1;marginBottom=0;fontSize=12;fillColor=#d5e8d4;strokeColor=#82b366;" vertex="1" parent="vayWjo9ZpgyIxWzgXqId-1">
          <mxGeometry x="1102" y="1459" width="128" height="294" as="geometry" />
        </mxCell>
        <mxCell id="vayWjo9ZpgyIxWzgXqId-159" value="" style="line;strokeWidth=1;fillColor=none;align=left;verticalAlign=middle;spacingTop=-1;spacingLeft=3;spacingRight=3;rotatable=0;labelPosition=right;points=[];portConstraint=eastwest;fontSize=13;" vertex="1" parent="vayWjo9ZpgyIxWzgXqId-158">
          <mxGeometry y="26" width="128" height="8" as="geometry" />
        </mxCell>
        <mxCell id="vayWjo9ZpgyIxWzgXqId-160" value="raw" style="text;strokeColor=none;fillColor=none;align=left;verticalAlign=top;spacingLeft=4;spacingRight=4;overflow=hidden;rotatable=0;points=[[0,0.5],[1,0.5]];portConstraint=eastwest;fontSize=13;" vertex="1" parent="vayWjo9ZpgyIxWzgXqId-158">
          <mxGeometry y="34" width="128" height="26" as="geometry" />
        </mxCell>
        <mxCell id="vayWjo9ZpgyIxWzgXqId-161" value="data" style="text;strokeColor=none;fillColor=none;align=left;verticalAlign=top;spacingLeft=4;spacingRight=4;overflow=hidden;rotatable=0;points=[[0,0.5],[1,0.5]];portConstraint=eastwest;fontSize=13;" vertex="1" parent="vayWjo9ZpgyIxWzgXqId-158">
          <mxGeometry y="60" width="128" height="26" as="geometry" />
        </mxCell>
        <mxCell id="vayWjo9ZpgyIxWzgXqId-162" value="len = p + varint - pkt-&gt;data;" style="text;strokeColor=none;fillColor=none;align=left;verticalAlign=top;spacingLeft=4;spacingRight=4;overflow=hidden;rotatable=0;points=[[0,0.5],[1,0.5]];portConstraint=eastwest;fontSize=13;fontColor=#67AB9F;" vertex="1" parent="vayWjo9ZpgyIxWzgXqId-158">
          <mxGeometry y="86" width="128" height="26" as="geometry" />
        </mxCell>
        <mxCell id="vayWjo9ZpgyIxWzgXqId-163" value="first：is first frame" style="text;strokeColor=none;fillColor=none;align=left;verticalAlign=top;spacingLeft=4;spacingRight=4;overflow=hidden;rotatable=0;points=[[0,0.5],[1,0.5]];portConstraint=eastwest;fontSize=13;" vertex="1" parent="vayWjo9ZpgyIxWzgXqId-158">
          <mxGeometry y="112" width="128" height="26" as="geometry" />
        </mxCell>
        <mxCell id="vayWjo9ZpgyIxWzgXqId-164" value="flags=frame[0]" style="text;strokeColor=none;fillColor=none;align=left;verticalAlign=top;spacingLeft=4;spacingRight=4;overflow=hidden;rotatable=0;points=[[0,0.5],[1,0.5]];portConstraint=eastwest;fontSize=13;" vertex="1" parent="vayWjo9ZpgyIxWzgXqId-158">
          <mxGeometry y="138" width="128" height="26" as="geometry" />
        </mxCell>
        <mxCell id="vayWjo9ZpgyIxWzgXqId-165" value="version" style="text;strokeColor=none;fillColor=none;align=left;verticalAlign=top;spacingLeft=4;spacingRight=4;overflow=hidden;rotatable=0;points=[[0,0.5],[1,0.5]];portConstraint=eastwest;fontSize=13;fontColor=#000000;" vertex="1" parent="vayWjo9ZpgyIxWzgXqId-158">
          <mxGeometry y="164" width="128" height="26" as="geometry" />
        </mxCell>
        <mxCell id="vayWjo9ZpgyIxWzgXqId-166" value="dcid" style="text;strokeColor=none;fillColor=none;align=left;verticalAlign=top;spacingLeft=4;spacingRight=4;overflow=hidden;rotatable=0;points=[[0,0.5],[1,0.5]];portConstraint=eastwest;fontSize=13;fontColor=#000000;" vertex="1" parent="vayWjo9ZpgyIxWzgXqId-158">
          <mxGeometry y="190" width="128" height="26" as="geometry" />
        </mxCell>
        <mxCell id="vayWjo9ZpgyIxWzgXqId-167" value="scid" style="text;strokeColor=none;fillColor=none;align=left;verticalAlign=top;spacingLeft=4;spacingRight=4;overflow=hidden;rotatable=0;points=[[0,0.5],[1,0.5]];portConstraint=eastwest;fontSize=13;fontColor=#000000;" vertex="1" parent="vayWjo9ZpgyIxWzgXqId-158">
          <mxGeometry y="216" width="128" height="26" as="geometry" />
        </mxCell>
        <mxCell id="vayWjo9ZpgyIxWzgXqId-170" value="token" style="text;strokeColor=none;fillColor=none;align=left;verticalAlign=top;spacingLeft=4;spacingRight=4;overflow=hidden;rotatable=0;points=[[0,0.5],[1,0.5]];portConstraint=eastwest;fontSize=13;fontColor=#97D077;" vertex="1" parent="vayWjo9ZpgyIxWzgXqId-158">
          <mxGeometry y="242" width="128" height="26" as="geometry" />
        </mxCell>
        <mxCell id="vayWjo9ZpgyIxWzgXqId-171" value="level=ssl_encryption_initial" style="text;strokeColor=none;fillColor=none;align=left;verticalAlign=top;spacingLeft=4;spacingRight=4;overflow=hidden;rotatable=0;points=[[0,0.5],[1,0.5]];portConstraint=eastwest;fontSize=13;fontColor=#97D077;" vertex="1" parent="vayWjo9ZpgyIxWzgXqId-158">
          <mxGeometry y="268" width="128" height="26" as="geometry" />
        </mxCell>
        <mxCell id="vayWjo9ZpgyIxWzgXqId-169" style="edgeStyle=orthogonalEdgeStyle;rounded=0;orthogonalLoop=1;jettySize=auto;html=1;exitX=1;exitY=0.5;exitDx=0;exitDy=0;fontSize=13;fontColor=#0000FF;dashed=1;entryX=0.5;entryY=0;entryDx=0;entryDy=0;" edge="1" parent="vayWjo9ZpgyIxWzgXqId-1" source="vayWjo9ZpgyIxWzgXqId-156" target="vayWjo9ZpgyIxWzgXqId-158">
          <mxGeometry relative="1" as="geometry">
            <mxPoint x="1049" y="1177" as="targetPoint" />
            <mxPoint x="944.9999999999995" y="1444" as="sourcePoint" />
          </mxGeometry>
        </mxCell>
        <mxCell id="vayWjo9ZpgyIxWzgXqId-175" style="edgeStyle=orthogonalEdgeStyle;rounded=0;orthogonalLoop=1;jettySize=auto;html=1;exitX=1;exitY=0.5;exitDx=0;exitDy=0;fontSize=13;fontColor=#0000FF;dashed=1;entryX=-0.001;entryY=0.698;entryDx=0;entryDy=0;entryPerimeter=0;" edge="1" parent="vayWjo9ZpgyIxWzgXqId-1" source="vayWjo9ZpgyIxWzgXqId-172" target="vayWjo9ZpgyIxWzgXqId-162">
          <mxGeometry relative="1" as="geometry">
            <mxPoint x="1175.9999999999995" y="1469" as="targetPoint" />
            <mxPoint x="1041.0000000000005" y="1614" as="sourcePoint" />
            <Array as="points">
              <mxPoint x="930" y="1673" />
              <mxPoint x="930" y="1642" />
              <mxPoint x="1083" y="1642" />
              <mxPoint x="1083" y="1563" />
            </Array>
          </mxGeometry>
        </mxCell>
        <mxCell id="vayWjo9ZpgyIxWzgXqId-178" value="无ngx_quic_connection_t" style="swimlane;fontStyle=1;childLayout=stackLayout;horizontal=1;startSize=26;fillColor=none;horizontalStack=0;resizeParent=1;resizeParentMax=0;resizeLast=0;collapsible=1;marginBottom=0;fontSize=13;dashed=1;fontColor=#0000FF;" vertex="1" parent="vayWjo9ZpgyIxWzgXqId-1">
          <mxGeometry x="336" y="1767" width="179" height="208" as="geometry">
            <mxRectangle x="-424" y="817" width="147" height="26" as="alternateBounds" />
          </mxGeometry>
        </mxCell>
        <mxCell id="vayWjo9ZpgyIxWzgXqId-179" value="if: 版本号不对" style="text;strokeColor=none;fillColor=none;align=left;verticalAlign=top;spacingLeft=4;spacingRight=4;overflow=hidden;rotatable=0;points=[[0,0.5],[1,0.5]];portConstraint=eastwest;fontSize=13;" vertex="1" parent="vayWjo9ZpgyIxWzgXqId-178">
          <mxGeometry y="26" width="179" height="26" as="geometry" />
        </mxCell>
        <mxCell id="vayWjo9ZpgyIxWzgXqId-180" value="if：pkt-&gt;level == ssl_encryption_application" style="text;strokeColor=none;fillColor=none;align=left;verticalAlign=top;spacingLeft=4;spacingRight=4;overflow=hidden;rotatable=0;points=[[0,0.5],[1,0.5]];portConstraint=eastwest;fontSize=13;" vertex="1" parent="vayWjo9ZpgyIxWzgXqId-178">
          <mxGeometry y="52" width="179" height="26" as="geometry" />
        </mxCell>
        <mxCell id="vayWjo9ZpgyIxWzgXqId-181" value="if：pkt-&gt;level != ssl_encryption_initial" style="text;strokeColor=none;fillColor=none;align=left;verticalAlign=top;spacingLeft=4;spacingRight=4;overflow=hidden;rotatable=0;points=[[0,0.5],[1,0.5]];portConstraint=eastwest;fontSize=13;" vertex="1" parent="vayWjo9ZpgyIxWzgXqId-178">
          <mxGeometry y="78" width="179" height="26" as="geometry" />
        </mxCell>
        <mxCell id="vayWjo9ZpgyIxWzgXqId-201" value="if：pkt-&gt;token" style="text;strokeColor=none;fillColor=none;align=left;verticalAlign=top;spacingLeft=4;spacingRight=4;overflow=hidden;rotatable=0;points=[[0,0.5],[1,0.5]];portConstraint=eastwest;fontSize=13;" vertex="1" parent="vayWjo9ZpgyIxWzgXqId-178">
          <mxGeometry y="104" width="179" height="26" as="geometry" />
        </mxCell>
        <mxCell id="vayWjo9ZpgyIxWzgXqId-202" value="elif：conf-&gt;retry" style="text;strokeColor=none;fillColor=none;align=left;verticalAlign=top;spacingLeft=4;spacingRight=4;overflow=hidden;rotatable=0;points=[[0,0.5],[1,0.5]];portConstraint=eastwest;fontSize=13;" vertex="1" parent="vayWjo9ZpgyIxWzgXqId-178">
          <mxGeometry y="130" width="179" height="26" as="geometry" />
        </mxCell>
        <mxCell id="vayWjo9ZpgyIxWzgXqId-203" value="else：pkt-&gt;odcid = pkt-&gt;dcid" style="text;strokeColor=none;fillColor=none;align=left;verticalAlign=top;spacingLeft=4;spacingRight=4;overflow=hidden;rotatable=0;points=[[0,0.5],[1,0.5]];portConstraint=eastwest;fontSize=13;" vertex="1" parent="vayWjo9ZpgyIxWzgXqId-178">
          <mxGeometry y="156" width="179" height="26" as="geometry" />
        </mxCell>
        <mxCell id="vayWjo9ZpgyIxWzgXqId-204" value="c: qc = ngx_quic_new_connection" style="text;strokeColor=none;fillColor=none;align=left;verticalAlign=top;spacingLeft=4;spacingRight=4;overflow=hidden;rotatable=0;points=[[0,0.5],[1,0.5]];portConstraint=eastwest;fontSize=13;" vertex="1" parent="vayWjo9ZpgyIxWzgXqId-178">
          <mxGeometry y="182" width="179" height="26" as="geometry" />
        </mxCell>
        <mxCell id="vayWjo9ZpgyIxWzgXqId-182" style="edgeStyle=orthogonalEdgeStyle;rounded=0;orthogonalLoop=1;jettySize=auto;html=1;exitX=1;exitY=0.5;exitDx=0;exitDy=0;entryX=0;entryY=0;entryDx=0;entryDy=0;fontSize=13;fontColor=#67AB9F;" edge="1" parent="vayWjo9ZpgyIxWzgXqId-1" source="vayWjo9ZpgyIxWzgXqId-177" target="vayWjo9ZpgyIxWzgXqId-178">
          <mxGeometry relative="1" as="geometry">
            <Array as="points">
              <mxPoint x="277" y="1425" />
              <mxPoint x="277" y="1767" />
            </Array>
          </mxGeometry>
        </mxCell>
        <mxCell id="vayWjo9ZpgyIxWzgXqId-188" style="edgeStyle=orthogonalEdgeStyle;rounded=0;orthogonalLoop=1;jettySize=auto;html=1;exitX=1;exitY=0.5;exitDx=0;exitDy=0;fontSize=13;fontColor=#67AB9F;entryX=0;entryY=0.25;entryDx=0;entryDy=0;" edge="1" parent="vayWjo9ZpgyIxWzgXqId-1" source="vayWjo9ZpgyIxWzgXqId-179" target="vayWjo9ZpgyIxWzgXqId-189">
          <mxGeometry relative="1" as="geometry">
            <mxPoint x="559" y="1770" as="targetPoint" />
          </mxGeometry>
        </mxCell>
        <mxCell id="vayWjo9ZpgyIxWzgXqId-189" value="ngx_quic_negotiate_version" style="swimlane;fontStyle=1;childLayout=stackLayout;horizontal=1;startSize=26;fillColor=none;horizontalStack=0;resizeParent=1;resizeParentMax=0;resizeLast=0;collapsible=1;marginBottom=0;fontSize=13;" vertex="1" parent="vayWjo9ZpgyIxWzgXqId-1">
          <mxGeometry x="574" y="1764" width="212" height="52" as="geometry">
            <mxRectangle x="-196" y="733" width="147" height="26" as="alternateBounds" />
          </mxGeometry>
        </mxCell>
        <mxCell id="vayWjo9ZpgyIxWzgXqId-195" value="ngx_quic_send_stateless_reset" style="swimlane;fontStyle=1;childLayout=stackLayout;horizontal=1;startSize=26;fillColor=none;horizontalStack=0;resizeParent=1;resizeParentMax=0;resizeLast=0;collapsible=1;marginBottom=0;fontSize=13;" vertex="1" parent="vayWjo9ZpgyIxWzgXqId-1">
          <mxGeometry x="574" y="1826" width="212" height="52" as="geometry">
            <mxRectangle x="-196" y="733" width="147" height="26" as="alternateBounds" />
          </mxGeometry>
        </mxCell>
        <mxCell id="vayWjo9ZpgyIxWzgXqId-196" style="edgeStyle=orthogonalEdgeStyle;rounded=0;orthogonalLoop=1;jettySize=auto;html=1;exitX=1;exitY=0.5;exitDx=0;exitDy=0;entryX=0;entryY=0.25;entryDx=0;entryDy=0;fontSize=13;fontColor=#67AB9F;" edge="1" parent="vayWjo9ZpgyIxWzgXqId-1" source="vayWjo9ZpgyIxWzgXqId-180" target="vayWjo9ZpgyIxWzgXqId-195">
          <mxGeometry relative="1" as="geometry" />
        </mxCell>
        <mxCell id="vayWjo9ZpgyIxWzgXqId-197" style="edgeStyle=orthogonalEdgeStyle;rounded=0;orthogonalLoop=1;jettySize=auto;html=1;exitX=1;exitY=0.5;exitDx=0;exitDy=0;fontSize=13;fontColor=#67AB9F;entryX=0;entryY=0.25;entryDx=0;entryDy=0;" edge="1" parent="vayWjo9ZpgyIxWzgXqId-1" source="vayWjo9ZpgyIxWzgXqId-181" target="vayWjo9ZpgyIxWzgXqId-198">
          <mxGeometry relative="1" as="geometry">
            <mxPoint x="559.3846153846152" y="1928.1538461538462" as="targetPoint" />
          </mxGeometry>
        </mxCell>
        <mxCell id="vayWjo9ZpgyIxWzgXqId-198" value="initial包处理逻辑" style="swimlane;fontStyle=1;childLayout=stackLayout;horizontal=1;startSize=26;fillColor=none;horizontalStack=0;resizeParent=1;resizeParentMax=0;resizeLast=0;collapsible=1;marginBottom=0;fontSize=13;dashed=1;fontColor=#0000FF;" vertex="1" parent="vayWjo9ZpgyIxWzgXqId-1">
          <mxGeometry x="574" y="1888" width="192" height="52" as="geometry">
            <mxRectangle x="-424" y="817" width="147" height="26" as="alternateBounds" />
          </mxGeometry>
        </mxCell>
        <mxCell id="vayWjo9ZpgyIxWzgXqId-199" value="return NGX_ERROR" style="text;strokeColor=none;fillColor=none;align=left;verticalAlign=top;spacingLeft=4;spacingRight=4;overflow=hidden;rotatable=0;points=[[0,0.5],[1,0.5]];portConstraint=eastwest;fontSize=13;" vertex="1" parent="vayWjo9ZpgyIxWzgXqId-198">
          <mxGeometry y="26" width="192" height="26" as="geometry" />
        </mxCell>
        <mxCell id="vayWjo9ZpgyIxWzgXqId-206" style="edgeStyle=orthogonalEdgeStyle;rounded=0;orthogonalLoop=1;jettySize=auto;html=1;exitX=1;exitY=0.5;exitDx=0;exitDy=0;entryX=0.003;entryY=0.084;entryDx=0;entryDy=0;fontSize=13;fontColor=#67AB9F;entryPerimeter=0;" edge="1" parent="vayWjo9ZpgyIxWzgXqId-1" source="vayWjo9ZpgyIxWzgXqId-204" target="vayWjo9ZpgyIxWzgXqId-219">
          <mxGeometry relative="1" as="geometry" />
        </mxCell>
        <mxCell id="vayWjo9ZpgyIxWzgXqId-207" value="ngx_quic_connection_t" style="swimlane;fontStyle=1;align=center;verticalAlign=top;childLayout=stackLayout;horizontal=1;startSize=26;horizontalStack=0;resizeParent=1;resizeParentMax=0;resizeLast=0;collapsible=1;marginBottom=0;fontSize=12;fillColor=#d5e8d4;strokeColor=#82b366;" vertex="1" parent="vayWjo9ZpgyIxWzgXqId-1">
          <mxGeometry x="851" y="1940" width="136" height="60" as="geometry" />
        </mxCell>
        <mxCell id="vayWjo9ZpgyIxWzgXqId-208" value="" style="line;strokeWidth=1;fillColor=none;align=left;verticalAlign=middle;spacingTop=-1;spacingLeft=3;spacingRight=3;rotatable=0;labelPosition=right;points=[];portConstraint=eastwest;fontSize=13;" vertex="1" parent="vayWjo9ZpgyIxWzgXqId-207">
          <mxGeometry y="26" width="136" height="8" as="geometry" />
        </mxCell>
        <mxCell id="vayWjo9ZpgyIxWzgXqId-212" value="fi" style="text;strokeColor=none;fillColor=none;align=left;verticalAlign=top;spacingLeft=4;spacingRight=4;overflow=hidden;rotatable=0;points=[[0,0.5],[1,0.5]];portConstraint=eastwest;fontSize=13;" vertex="1" parent="vayWjo9ZpgyIxWzgXqId-207">
          <mxGeometry y="34" width="136" height="26" as="geometry" />
        </mxCell>
        <mxCell id="vayWjo9ZpgyIxWzgXqId-214" style="edgeStyle=orthogonalEdgeStyle;rounded=0;orthogonalLoop=1;jettySize=auto;html=1;exitX=1;exitY=0.25;exitDx=0;exitDy=0;entryX=0;entryY=0.25;entryDx=0;entryDy=0;fontSize=12;fontColor=#0000FF;dashed=1;fillColor=#d5e8d4;strokeColor=#82b366;" edge="1" parent="vayWjo9ZpgyIxWzgXqId-1" source="vayWjo9ZpgyIxWzgXqId-219" target="vayWjo9ZpgyIxWzgXqId-207">
          <mxGeometry relative="1" as="geometry">
            <mxPoint x="782.9999999999995" y="1969" as="sourcePoint" />
            <mxPoint x="902" y="1866" as="targetPoint" />
          </mxGeometry>
        </mxCell>
        <mxCell id="vayWjo9ZpgyIxWzgXqId-219" value="ngx_quic_new_connection" style="swimlane;fontStyle=1;childLayout=stackLayout;horizontal=1;startSize=26;fillColor=none;horizontalStack=0;resizeParent=1;resizeParentMax=0;resizeLast=0;collapsible=1;marginBottom=0;fontSize=13;" vertex="1" parent="vayWjo9ZpgyIxWzgXqId-1">
          <mxGeometry x="574" y="2014" width="212" height="104" as="geometry">
            <mxRectangle x="-196" y="733" width="147" height="26" as="alternateBounds" />
          </mxGeometry>
        </mxCell>
        <mxCell id="vayWjo9ZpgyIxWzgXqId-220" value="ngx_quic_init_transport_params" style="text;strokeColor=none;fillColor=none;align=left;verticalAlign=top;spacingLeft=4;spacingRight=4;overflow=hidden;rotatable=0;points=[[0,0.5],[1,0.5]];portConstraint=eastwest;fontSize=13;" vertex="1" parent="vayWjo9ZpgyIxWzgXqId-219">
          <mxGeometry y="26" width="212" height="26" as="geometry" />
        </mxCell>
        <mxCell id="vayWjo9ZpgyIxWzgXqId-221" value="ngx_quic_keys_set_initial_secret" style="text;strokeColor=none;fillColor=none;align=left;verticalAlign=top;spacingLeft=4;spacingRight=4;overflow=hidden;rotatable=0;points=[[0,0.5],[1,0.5]];portConstraint=eastwest;fontSize=13;" vertex="1" parent="vayWjo9ZpgyIxWzgXqId-219">
          <mxGeometry y="52" width="212" height="26" as="geometry" />
        </mxCell>
        <mxCell id="vayWjo9ZpgyIxWzgXqId-222" value="ngx_quic_open_sockets" style="text;strokeColor=none;fillColor=none;align=left;verticalAlign=top;spacingLeft=4;spacingRight=4;overflow=hidden;rotatable=0;points=[[0,0.5],[1,0.5]];portConstraint=eastwest;fontSize=13;" vertex="1" parent="vayWjo9ZpgyIxWzgXqId-219">
          <mxGeometry y="78" width="212" height="26" as="geometry" />
        </mxCell>
        <mxCell id="vayWjo9ZpgyIxWzgXqId-225" value="ngx_quic_open_sockets" style="swimlane;fontStyle=1;childLayout=stackLayout;horizontal=1;startSize=26;fillColor=none;horizontalStack=0;resizeParent=1;resizeParentMax=0;resizeLast=0;collapsible=1;marginBottom=0;fontSize=13;" vertex="1" parent="vayWjo9ZpgyIxWzgXqId-1">
          <mxGeometry x="839" y="2055" width="212" height="104" as="geometry">
            <mxRectangle x="-196" y="733" width="147" height="26" as="alternateBounds" />
          </mxGeometry>
        </mxCell>
        <mxCell id="vayWjo9ZpgyIxWzgXqId-226" value="qsock = ngx_quic_alloc_socket(c, qc)" style="text;strokeColor=none;fillColor=none;align=left;verticalAlign=top;spacingLeft=4;spacingRight=4;overflow=hidden;rotatable=0;points=[[0,0.5],[1,0.5]];portConstraint=eastwest;fontSize=13;" vertex="1" parent="vayWjo9ZpgyIxWzgXqId-225">
          <mxGeometry y="26" width="212" height="26" as="geometry" />
        </mxCell>
        <mxCell id="vayWjo9ZpgyIxWzgXqId-256" value="c: ngx_quic_listen" style="text;strokeColor=none;fillColor=none;align=left;verticalAlign=top;spacingLeft=4;spacingRight=4;overflow=hidden;rotatable=0;points=[[0,0.5],[1,0.5]];portConstraint=eastwest;fontSize=13;" vertex="1" parent="vayWjo9ZpgyIxWzgXqId-225">
          <mxGeometry y="52" width="212" height="26" as="geometry" />
        </mxCell>
        <mxCell id="vayWjo9ZpgyIxWzgXqId-259" value="c-&gt;udp = &amp;qsock-&gt;udp" style="text;strokeColor=none;fillColor=none;align=left;verticalAlign=top;spacingLeft=4;spacingRight=4;overflow=hidden;rotatable=0;points=[[0,0.5],[1,0.5]];portConstraint=eastwest;fontSize=13;" vertex="1" parent="vayWjo9ZpgyIxWzgXqId-225">
          <mxGeometry y="78" width="212" height="26" as="geometry" />
        </mxCell>
        <mxCell id="vayWjo9ZpgyIxWzgXqId-229" style="edgeStyle=orthogonalEdgeStyle;rounded=0;orthogonalLoop=1;jettySize=auto;html=1;exitX=1;exitY=0.5;exitDx=0;exitDy=0;entryX=0.008;entryY=0.139;entryDx=0;entryDy=0;fontSize=13;fontColor=#000000;entryPerimeter=0;" edge="1" parent="vayWjo9ZpgyIxWzgXqId-1" source="vayWjo9ZpgyIxWzgXqId-222" target="vayWjo9ZpgyIxWzgXqId-225">
          <mxGeometry relative="1" as="geometry" />
        </mxCell>
        <mxCell id="vayWjo9ZpgyIxWzgXqId-231" value="ngx_quic_socket_t" style="swimlane;fontStyle=1;align=center;verticalAlign=top;childLayout=stackLayout;horizontal=1;startSize=26;horizontalStack=0;resizeParent=1;resizeParentMax=0;resizeLast=0;collapsible=1;marginBottom=0;fontSize=12;fillColor=#d5e8d4;strokeColor=#82b366;" vertex="1" parent="vayWjo9ZpgyIxWzgXqId-1">
          <mxGeometry x="1141" y="2017" width="136" height="60" as="geometry" />
        </mxCell>
        <mxCell id="vayWjo9ZpgyIxWzgXqId-232" value="" style="line;strokeWidth=1;fillColor=none;align=left;verticalAlign=middle;spacingTop=-1;spacingLeft=3;spacingRight=3;rotatable=0;labelPosition=right;points=[];portConstraint=eastwest;fontSize=13;" vertex="1" parent="vayWjo9ZpgyIxWzgXqId-231">
          <mxGeometry y="26" width="136" height="8" as="geometry" />
        </mxCell>
        <mxCell id="vayWjo9ZpgyIxWzgXqId-233" value="udp：ngx_udp_connection_t" style="text;strokeColor=none;fillColor=none;align=left;verticalAlign=top;spacingLeft=4;spacingRight=4;overflow=hidden;rotatable=0;points=[[0,0.5],[1,0.5]];portConstraint=eastwest;fontSize=13;" vertex="1" parent="vayWjo9ZpgyIxWzgXqId-231">
          <mxGeometry y="34" width="136" height="26" as="geometry" />
        </mxCell>
        <mxCell id="vayWjo9ZpgyIxWzgXqId-234" style="edgeStyle=orthogonalEdgeStyle;rounded=0;orthogonalLoop=1;jettySize=auto;html=1;exitX=1;exitY=0.5;exitDx=0;exitDy=0;entryX=0;entryY=0.25;entryDx=0;entryDy=0;fontSize=12;fontColor=#0000FF;dashed=1;fillColor=#d5e8d4;strokeColor=#82b366;" edge="1" parent="vayWjo9ZpgyIxWzgXqId-1" source="vayWjo9ZpgyIxWzgXqId-226" target="vayWjo9ZpgyIxWzgXqId-231">
          <mxGeometry relative="1" as="geometry">
            <mxPoint x="1078" y="1975" as="sourcePoint" />
            <mxPoint x="1143" y="1890" as="targetPoint" />
          </mxGeometry>
        </mxCell>
        <mxCell id="vayWjo9ZpgyIxWzgXqId-235" value="ngx_quic_listen" style="swimlane;fontStyle=1;childLayout=stackLayout;horizontal=1;startSize=26;fillColor=none;horizontalStack=0;resizeParent=1;resizeParentMax=0;resizeLast=0;collapsible=1;marginBottom=0;fontSize=13;" vertex="1" parent="vayWjo9ZpgyIxWzgXqId-1">
          <mxGeometry x="1139" y="2143" width="212" height="104" as="geometry">
            <mxRectangle x="-196" y="733" width="147" height="26" as="alternateBounds" />
          </mxGeometry>
        </mxCell>
        <mxCell id="vayWjo9ZpgyIxWzgXqId-236" value="c: ngx_quic_create_server_id" style="text;strokeColor=none;fillColor=none;align=left;verticalAlign=top;spacingLeft=4;spacingRight=4;overflow=hidden;rotatable=0;points=[[0,0.5],[1,0.5]];portConstraint=eastwest;fontSize=13;" vertex="1" parent="vayWjo9ZpgyIxWzgXqId-235">
          <mxGeometry y="26" width="212" height="26" as="geometry" />
        </mxCell>
        <mxCell id="vayWjo9ZpgyIxWzgXqId-237" value="c：ngx_insert_udp_connection" style="text;strokeColor=none;fillColor=none;align=left;verticalAlign=top;spacingLeft=4;spacingRight=4;overflow=hidden;rotatable=0;points=[[0,0.5],[1,0.5]];portConstraint=eastwest;fontSize=13;" vertex="1" parent="vayWjo9ZpgyIxWzgXqId-235">
          <mxGeometry y="52" width="212" height="26" as="geometry" />
        </mxCell>
        <mxCell id="vayWjo9ZpgyIxWzgXqId-238" value="qsock-&gt;quic = qc;" style="text;strokeColor=none;fillColor=none;align=left;verticalAlign=top;spacingLeft=4;spacingRight=4;overflow=hidden;rotatable=0;points=[[0,0.5],[1,0.5]];portConstraint=eastwest;fontSize=13;" vertex="1" parent="vayWjo9ZpgyIxWzgXqId-235">
          <mxGeometry y="78" width="212" height="26" as="geometry" />
        </mxCell>
        <mxCell id="vayWjo9ZpgyIxWzgXqId-239" style="edgeStyle=orthogonalEdgeStyle;rounded=0;orthogonalLoop=1;jettySize=auto;html=1;exitX=1;exitY=0.5;exitDx=0;exitDy=0;entryX=0.003;entryY=0.161;entryDx=0;entryDy=0;entryPerimeter=0;fontSize=13;fontColor=#000000;" edge="1" parent="vayWjo9ZpgyIxWzgXqId-1" source="vayWjo9ZpgyIxWzgXqId-256" target="vayWjo9ZpgyIxWzgXqId-235">
          <mxGeometry relative="1" as="geometry" />
        </mxCell>
        <mxCell id="vayWjo9ZpgyIxWzgXqId-244" value="ngx_quic_socket_t" style="swimlane;fontStyle=1;align=center;verticalAlign=top;childLayout=stackLayout;horizontal=1;startSize=26;horizontalStack=0;resizeParent=1;resizeParentMax=0;resizeLast=0;collapsible=1;marginBottom=0;fontSize=12;fillColor=#d5e8d4;strokeColor=#82b366;" vertex="1" parent="vayWjo9ZpgyIxWzgXqId-1">
          <mxGeometry x="1458" y="2077" width="136" height="112" as="geometry" />
        </mxCell>
        <mxCell id="vayWjo9ZpgyIxWzgXqId-245" value="" style="line;strokeWidth=1;fillColor=none;align=left;verticalAlign=middle;spacingTop=-1;spacingLeft=3;spacingRight=3;rotatable=0;labelPosition=right;points=[];portConstraint=eastwest;fontSize=13;" vertex="1" parent="vayWjo9ZpgyIxWzgXqId-244">
          <mxGeometry y="26" width="136" height="8" as="geometry" />
        </mxCell>
        <mxCell id="vayWjo9ZpgyIxWzgXqId-258" value="udp：ngx_udp_connection_t" style="text;strokeColor=none;fillColor=none;align=left;verticalAlign=top;spacingLeft=4;spacingRight=4;overflow=hidden;rotatable=0;points=[[0,0.5],[1,0.5]];portConstraint=eastwest;fontSize=13;fontColor=#000000;" vertex="1" parent="vayWjo9ZpgyIxWzgXqId-244">
          <mxGeometry y="34" width="136" height="26" as="geometry" />
        </mxCell>
        <mxCell id="vayWjo9ZpgyIxWzgXqId-246" value="sid=随机序列" style="text;strokeColor=none;fillColor=none;align=left;verticalAlign=top;spacingLeft=4;spacingRight=4;overflow=hidden;rotatable=0;points=[[0,0.5],[1,0.5]];portConstraint=eastwest;fontSize=13;fontColor=#97D077;" vertex="1" parent="vayWjo9ZpgyIxWzgXqId-244">
          <mxGeometry y="60" width="136" height="26" as="geometry" />
        </mxCell>
        <mxCell id="vayWjo9ZpgyIxWzgXqId-248" value="quic" style="text;strokeColor=none;fillColor=none;align=left;verticalAlign=top;spacingLeft=4;spacingRight=4;overflow=hidden;rotatable=0;points=[[0,0.5],[1,0.5]];portConstraint=eastwest;fontSize=13;fontColor=#97D077;" vertex="1" parent="vayWjo9ZpgyIxWzgXqId-244">
          <mxGeometry y="86" width="136" height="26" as="geometry" />
        </mxCell>
        <mxCell id="vayWjo9ZpgyIxWzgXqId-247" style="edgeStyle=orthogonalEdgeStyle;rounded=0;orthogonalLoop=1;jettySize=auto;html=1;exitX=1;exitY=0.5;exitDx=0;exitDy=0;fontSize=13;fontColor=#0000FF;dashed=1;" edge="1" parent="vayWjo9ZpgyIxWzgXqId-1" source="vayWjo9ZpgyIxWzgXqId-236">
          <mxGeometry relative="1" as="geometry">
            <mxPoint x="1458" y="2092" as="targetPoint" />
            <mxPoint x="907.0000000000005" y="1897.92" as="sourcePoint" />
            <Array as="points">
              <mxPoint x="1385" y="2182" />
              <mxPoint x="1385" y="2092" />
            </Array>
          </mxGeometry>
        </mxCell>
        <mxCell id="vayWjo9ZpgyIxWzgXqId-249" style="edgeStyle=orthogonalEdgeStyle;rounded=0;orthogonalLoop=1;jettySize=auto;html=1;exitX=1;exitY=0.5;exitDx=0;exitDy=0;entryX=1;entryY=0.25;entryDx=0;entryDy=0;fontSize=13;fontColor=#97D077;dashed=1;" edge="1" parent="vayWjo9ZpgyIxWzgXqId-1" source="vayWjo9ZpgyIxWzgXqId-248" target="vayWjo9ZpgyIxWzgXqId-207">
          <mxGeometry relative="1" as="geometry" />
        </mxCell>
        <mxCell id="vayWjo9ZpgyIxWzgXqId-250" style="edgeStyle=orthogonalEdgeStyle;rounded=0;orthogonalLoop=1;jettySize=auto;html=1;exitX=1;exitY=0.5;exitDx=0;exitDy=0;entryX=0;entryY=0.5;entryDx=0;entryDy=0;dashed=1;fontSize=13;fontColor=#97D077;" edge="1" parent="vayWjo9ZpgyIxWzgXqId-1" source="vayWjo9ZpgyIxWzgXqId-238" target="vayWjo9ZpgyIxWzgXqId-248">
          <mxGeometry relative="1" as="geometry" />
        </mxCell>
        <mxCell id="vayWjo9ZpgyIxWzgXqId-251" value="ngx_insert_udp_connection" style="swimlane;fontStyle=1;childLayout=stackLayout;horizontal=1;startSize=26;fillColor=none;horizontalStack=0;resizeParent=1;resizeParentMax=0;resizeLast=0;collapsible=1;marginBottom=0;fontSize=13;" vertex="1" parent="vayWjo9ZpgyIxWzgXqId-1">
          <mxGeometry x="1420" y="2274" width="212" height="52" as="geometry">
            <mxRectangle x="-196" y="733" width="147" height="26" as="alternateBounds" />
          </mxGeometry>
        </mxCell>
        <mxCell id="vayWjo9ZpgyIxWzgXqId-252" value="ngx_insert_udp_connection(c, &amp;qsock-&gt;udp, &amp;id);" style="text;strokeColor=none;fillColor=none;align=left;verticalAlign=top;spacingLeft=4;spacingRight=4;overflow=hidden;rotatable=0;points=[[0,0.5],[1,0.5]];portConstraint=eastwest;fontSize=13;" vertex="1" parent="vayWjo9ZpgyIxWzgXqId-251">
          <mxGeometry y="26" width="212" height="26" as="geometry" />
        </mxCell>
        <mxCell id="vayWjo9ZpgyIxWzgXqId-255" style="edgeStyle=orthogonalEdgeStyle;rounded=0;orthogonalLoop=1;jettySize=auto;html=1;exitX=1;exitY=0.5;exitDx=0;exitDy=0;entryX=-0.001;entryY=0.142;entryDx=0;entryDy=0;entryPerimeter=0;dashed=1;fontSize=13;fontColor=#97D077;" edge="1" parent="vayWjo9ZpgyIxWzgXqId-1" source="vayWjo9ZpgyIxWzgXqId-237" target="vayWjo9ZpgyIxWzgXqId-251">
          <mxGeometry relative="1" as="geometry" />
        </mxCell>
        <mxCell id="vayWjo9ZpgyIxWzgXqId-260" value="ngx_http_connection_t" style="swimlane;fontStyle=1;align=center;verticalAlign=top;childLayout=stackLayout;horizontal=1;startSize=26;horizontalStack=0;resizeParent=1;resizeParentMax=0;resizeLast=0;collapsible=1;marginBottom=0;fontSize=12;fillColor=#d5e8d4;strokeColor=#82b366;" vertex="1" parent="vayWjo9ZpgyIxWzgXqId-1">
          <mxGeometry x="306" y="813" width="158.5" height="86" as="geometry" />
        </mxCell>
        <mxCell id="vayWjo9ZpgyIxWzgXqId-261" value="" style="line;strokeWidth=1;fillColor=none;align=left;verticalAlign=middle;spacingTop=-1;spacingLeft=3;spacingRight=3;rotatable=0;labelPosition=right;points=[];portConstraint=eastwest;fontSize=13;" vertex="1" parent="vayWjo9ZpgyIxWzgXqId-260">
          <mxGeometry y="26" width="158.5" height="8" as="geometry" />
        </mxCell>
        <mxCell id="vayWjo9ZpgyIxWzgXqId-262" value="buffer" style="text;strokeColor=none;fillColor=none;align=left;verticalAlign=top;spacingLeft=4;spacingRight=4;overflow=hidden;rotatable=0;points=[[0,0.5],[1,0.5]];portConstraint=eastwest;fontSize=13;" vertex="1" parent="vayWjo9ZpgyIxWzgXqId-260">
          <mxGeometry y="34" width="158.5" height="26" as="geometry" />
        </mxCell>
        <mxCell id="vayWjo9ZpgyIxWzgXqId-263" value="data" style="text;strokeColor=none;fillColor=none;align=left;verticalAlign=top;spacingLeft=4;spacingRight=4;overflow=hidden;rotatable=0;points=[[0,0.5],[1,0.5]];portConstraint=eastwest;fontSize=13;" vertex="1" parent="vayWjo9ZpgyIxWzgXqId-260">
          <mxGeometry y="60" width="158.5" height="26" as="geometry" />
        </mxCell>
        <mxCell id="vayWjo9ZpgyIxWzgXqId-264" style="edgeStyle=orthogonalEdgeStyle;rounded=0;orthogonalLoop=1;jettySize=auto;html=1;exitX=1;exitY=0.5;exitDx=0;exitDy=0;entryX=0;entryY=0.25;entryDx=0;entryDy=0;dashed=1;fontSize=13;fontColor=#000000;" edge="1" parent="vayWjo9ZpgyIxWzgXqId-1" source="vayWjo9ZpgyIxWzgXqId-73" target="vayWjo9ZpgyIxWzgXqId-260">
          <mxGeometry relative="1" as="geometry" />
        </mxCell>
        <mxCell id="vayWjo9ZpgyIxWzgXqId-265" value="ngx_connection_t" style="swimlane;fontStyle=1;align=center;verticalAlign=top;childLayout=stackLayout;horizontal=1;startSize=26;horizontalStack=0;resizeParent=1;resizeParentMax=0;resizeLast=0;collapsible=1;marginBottom=0;fontSize=12;fillColor=#d5e8d4;strokeColor=#82b366;" vertex="1" parent="vayWjo9ZpgyIxWzgXqId-1">
          <mxGeometry x="1096" y="2328" width="128" height="112" as="geometry" />
        </mxCell>
        <mxCell id="vayWjo9ZpgyIxWzgXqId-266" value="" style="line;strokeWidth=1;fillColor=none;align=left;verticalAlign=middle;spacingTop=-1;spacingLeft=3;spacingRight=3;rotatable=0;labelPosition=right;points=[];portConstraint=eastwest;fontSize=13;" vertex="1" parent="vayWjo9ZpgyIxWzgXqId-265">
          <mxGeometry y="26" width="128" height="8" as="geometry" />
        </mxCell>
        <mxCell id="vayWjo9ZpgyIxWzgXqId-267" value="buffer" style="text;strokeColor=none;fillColor=none;align=left;verticalAlign=top;spacingLeft=4;spacingRight=4;overflow=hidden;rotatable=0;points=[[0,0.5],[1,0.5]];portConstraint=eastwest;fontSize=13;" vertex="1" parent="vayWjo9ZpgyIxWzgXqId-265">
          <mxGeometry y="34" width="128" height="26" as="geometry" />
        </mxCell>
        <mxCell id="vayWjo9ZpgyIxWzgXqId-268" value="data" style="text;strokeColor=none;fillColor=none;align=left;verticalAlign=top;spacingLeft=4;spacingRight=4;overflow=hidden;rotatable=0;points=[[0,0.5],[1,0.5]];portConstraint=eastwest;fontSize=13;" vertex="1" parent="vayWjo9ZpgyIxWzgXqId-265">
          <mxGeometry y="60" width="128" height="26" as="geometry" />
        </mxCell>
        <mxCell id="vayWjo9ZpgyIxWzgXqId-269" value="udp" style="text;strokeColor=none;fillColor=none;align=left;verticalAlign=top;spacingLeft=4;spacingRight=4;overflow=hidden;rotatable=0;points=[[0,0.5],[1,0.5]];portConstraint=eastwest;fontSize=13;" vertex="1" parent="vayWjo9ZpgyIxWzgXqId-265">
          <mxGeometry y="86" width="128" height="26" as="geometry" />
        </mxCell>
        <mxCell id="vayWjo9ZpgyIxWzgXqId-270" value="UDP包" style="shape=tape;whiteSpace=wrap;html=1;strokeWidth=2;size=0.19;dashed=1;fontSize=13;fontColor=#0000FF;" vertex="1" parent="vayWjo9ZpgyIxWzgXqId-1">
          <mxGeometry x="1267" y="2298" width="52" height="30" as="geometry" />
        </mxCell>
        <mxCell id="vayWjo9ZpgyIxWzgXqId-271" style="edgeStyle=orthogonalEdgeStyle;rounded=0;orthogonalLoop=1;jettySize=auto;html=1;exitX=1;exitY=0.5;exitDx=0;exitDy=0;entryX=0;entryY=0.5;entryDx=0;entryDy=0;entryPerimeter=0;dashed=1;fontSize=13;fontColor=#000000;" edge="1" parent="vayWjo9ZpgyIxWzgXqId-1" source="vayWjo9ZpgyIxWzgXqId-267" target="vayWjo9ZpgyIxWzgXqId-270">
          <mxGeometry relative="1" as="geometry" />
        </mxCell>
        <mxCell id="vayWjo9ZpgyIxWzgXqId-272" value="ngx_http_connection_t" style="swimlane;fontStyle=1;align=center;verticalAlign=top;childLayout=stackLayout;horizontal=1;startSize=26;horizontalStack=0;resizeParent=1;resizeParentMax=0;resizeLast=0;collapsible=1;marginBottom=0;fontSize=12;fillColor=#d5e8d4;strokeColor=#82b366;" vertex="1" parent="vayWjo9ZpgyIxWzgXqId-1">
          <mxGeometry x="1270" y="2383" width="158.5" height="86" as="geometry" />
        </mxCell>
        <mxCell id="vayWjo9ZpgyIxWzgXqId-273" value="" style="line;strokeWidth=1;fillColor=none;align=left;verticalAlign=middle;spacingTop=-1;spacingLeft=3;spacingRight=3;rotatable=0;labelPosition=right;points=[];portConstraint=eastwest;fontSize=13;" vertex="1" parent="vayWjo9ZpgyIxWzgXqId-272">
          <mxGeometry y="26" width="158.5" height="8" as="geometry" />
        </mxCell>
        <mxCell id="vayWjo9ZpgyIxWzgXqId-274" value="buffer" style="text;strokeColor=none;fillColor=none;align=left;verticalAlign=top;spacingLeft=4;spacingRight=4;overflow=hidden;rotatable=0;points=[[0,0.5],[1,0.5]];portConstraint=eastwest;fontSize=13;" vertex="1" parent="vayWjo9ZpgyIxWzgXqId-272">
          <mxGeometry y="34" width="158.5" height="26" as="geometry" />
        </mxCell>
        <mxCell id="vayWjo9ZpgyIxWzgXqId-275" value="data" style="text;strokeColor=none;fillColor=none;align=left;verticalAlign=top;spacingLeft=4;spacingRight=4;overflow=hidden;rotatable=0;points=[[0,0.5],[1,0.5]];portConstraint=eastwest;fontSize=13;" vertex="1" parent="vayWjo9ZpgyIxWzgXqId-272">
          <mxGeometry y="60" width="158.5" height="26" as="geometry" />
        </mxCell>
        <mxCell id="vayWjo9ZpgyIxWzgXqId-276" style="edgeStyle=orthogonalEdgeStyle;rounded=0;orthogonalLoop=1;jettySize=auto;html=1;exitX=1;exitY=0.5;exitDx=0;exitDy=0;entryX=0;entryY=0.25;entryDx=0;entryDy=0;dashed=1;fontSize=13;fontColor=#000000;" edge="1" parent="vayWjo9ZpgyIxWzgXqId-1" source="vayWjo9ZpgyIxWzgXqId-268" target="vayWjo9ZpgyIxWzgXqId-272">
          <mxGeometry relative="1" as="geometry" />
        </mxCell>
        <mxCell id="vayWjo9ZpgyIxWzgXqId-277" value="ngx_quic_socket_t" style="swimlane;fontStyle=1;align=center;verticalAlign=top;childLayout=stackLayout;horizontal=1;startSize=26;horizontalStack=0;resizeParent=1;resizeParentMax=0;resizeLast=0;collapsible=1;marginBottom=0;fontSize=12;fillColor=#d5e8d4;strokeColor=#82b366;" vertex="1" parent="vayWjo9ZpgyIxWzgXqId-1">
          <mxGeometry x="1270" y="2494" width="136" height="112" as="geometry" />
        </mxCell>
        <mxCell id="vayWjo9ZpgyIxWzgXqId-278" value="" style="line;strokeWidth=1;fillColor=none;align=left;verticalAlign=middle;spacingTop=-1;spacingLeft=3;spacingRight=3;rotatable=0;labelPosition=right;points=[];portConstraint=eastwest;fontSize=13;" vertex="1" parent="vayWjo9ZpgyIxWzgXqId-277">
          <mxGeometry y="26" width="136" height="8" as="geometry" />
        </mxCell>
        <mxCell id="vayWjo9ZpgyIxWzgXqId-279" value="udp：ngx_udp_connection_t" style="text;strokeColor=none;fillColor=none;align=left;verticalAlign=top;spacingLeft=4;spacingRight=4;overflow=hidden;rotatable=0;points=[[0,0.5],[1,0.5]];portConstraint=eastwest;fontSize=13;" vertex="1" parent="vayWjo9ZpgyIxWzgXqId-277">
          <mxGeometry y="34" width="136" height="26" as="geometry" />
        </mxCell>
        <mxCell id="vayWjo9ZpgyIxWzgXqId-284" value="sid" style="text;strokeColor=none;fillColor=none;align=left;verticalAlign=top;spacingLeft=4;spacingRight=4;overflow=hidden;rotatable=0;points=[[0,0.5],[1,0.5]];portConstraint=eastwest;fontSize=13;" vertex="1" parent="vayWjo9ZpgyIxWzgXqId-277">
          <mxGeometry y="60" width="136" height="26" as="geometry" />
        </mxCell>
        <mxCell id="vayWjo9ZpgyIxWzgXqId-285" value="quic" style="text;strokeColor=none;fillColor=none;align=left;verticalAlign=top;spacingLeft=4;spacingRight=4;overflow=hidden;rotatable=0;points=[[0,0.5],[1,0.5]];portConstraint=eastwest;fontSize=13;" vertex="1" parent="vayWjo9ZpgyIxWzgXqId-277">
          <mxGeometry y="86" width="136" height="26" as="geometry" />
        </mxCell>
        <mxCell id="vayWjo9ZpgyIxWzgXqId-280" style="edgeStyle=orthogonalEdgeStyle;rounded=0;orthogonalLoop=1;jettySize=auto;html=1;exitX=1;exitY=0.5;exitDx=0;exitDy=0;entryX=0;entryY=0.5;entryDx=0;entryDy=0;dashed=1;fontSize=13;fontColor=#000000;" edge="1" parent="vayWjo9ZpgyIxWzgXqId-1" source="vayWjo9ZpgyIxWzgXqId-269" target="vayWjo9ZpgyIxWzgXqId-279">
          <mxGeometry relative="1" as="geometry" />
        </mxCell>
        <mxCell id="vayWjo9ZpgyIxWzgXqId-283" style="edgeStyle=orthogonalEdgeStyle;rounded=0;orthogonalLoop=1;jettySize=auto;html=1;exitX=1;exitY=0.5;exitDx=0;exitDy=0;dashed=1;fontSize=13;fontColor=#000000;entryX=0;entryY=0;entryDx=0;entryDy=0;" edge="1" parent="vayWjo9ZpgyIxWzgXqId-1" source="vayWjo9ZpgyIxWzgXqId-259" target="vayWjo9ZpgyIxWzgXqId-265">
          <mxGeometry relative="1" as="geometry">
            <mxPoint x="1085" y="2317" as="targetPoint" />
          </mxGeometry>
        </mxCell>
        <mxCell id="vayWjo9ZpgyIxWzgXqId-286" value="ngx_quic_connection_t" style="swimlane;fontStyle=1;align=center;verticalAlign=top;childLayout=stackLayout;horizontal=1;startSize=26;horizontalStack=0;resizeParent=1;resizeParentMax=0;resizeLast=0;collapsible=1;marginBottom=0;fontSize=12;fillColor=#d5e8d4;strokeColor=#82b366;" vertex="1" parent="vayWjo9ZpgyIxWzgXqId-1">
          <mxGeometry x="1493" y="2580" width="136" height="60" as="geometry" />
        </mxCell>
        <mxCell id="vayWjo9ZpgyIxWzgXqId-287" value="" style="line;strokeWidth=1;fillColor=none;align=left;verticalAlign=middle;spacingTop=-1;spacingLeft=3;spacingRight=3;rotatable=0;labelPosition=right;points=[];portConstraint=eastwest;fontSize=13;" vertex="1" parent="vayWjo9ZpgyIxWzgXqId-286">
          <mxGeometry y="26" width="136" height="8" as="geometry" />
        </mxCell>
        <mxCell id="vayWjo9ZpgyIxWzgXqId-288" value="fi" style="text;strokeColor=none;fillColor=none;align=left;verticalAlign=top;spacingLeft=4;spacingRight=4;overflow=hidden;rotatable=0;points=[[0,0.5],[1,0.5]];portConstraint=eastwest;fontSize=13;" vertex="1" parent="vayWjo9ZpgyIxWzgXqId-286">
          <mxGeometry y="34" width="136" height="26" as="geometry" />
        </mxCell>
        <mxCell id="vayWjo9ZpgyIxWzgXqId-289" style="edgeStyle=orthogonalEdgeStyle;rounded=0;orthogonalLoop=1;jettySize=auto;html=1;exitX=1;exitY=0.5;exitDx=0;exitDy=0;entryX=0;entryY=0.25;entryDx=0;entryDy=0;dashed=1;fontSize=13;fontColor=#000000;" edge="1" parent="vayWjo9ZpgyIxWzgXqId-1" source="vayWjo9ZpgyIxWzgXqId-285" target="vayWjo9ZpgyIxWzgXqId-286">
          <mxGeometry relative="1" as="geometry" />
        </mxCell>
      </root>
    </mxGraphModel>
  </diagram>
</mxfile>
